<svg xmlns="http://www.w3.org/2000/svg" xmlns:xlink="http://www.w3.org/1999/xlink" viewBox="0 0 1331 1937"><defs><linearGradient id="linear-gradient" x1="374.8812" y1="1153.5903" x2="686.3525" y2="647.0043" gradientUnits="userSpaceOnUse"><stop offset="0.191" stop-color="#f2f2f2"/><stop offset="0.2747" stop-color="#b3b3b3"/><stop offset="0.4359" stop-color="#b9b9b9"/><stop offset="0.6531" stop-color="#cacaca"/><stop offset="0.8994" stop-color="#e6e6e6"/></linearGradient><clipPath id="clip-path"><polygon points="633.115 1091.441 634.078 976.729 738.124 909.416 737.161 1024.128 633.115 1091.441" style="fill:none"/></clipPath><linearGradient id="linear-gradient-2" x1="271.6139" y1="960.6651" x2="1032.3095" y2="1297.4104" gradientUnits="userSpaceOnUse"><stop offset="0" stop-color="#fff" stop-opacity="0"/><stop offset="1" stop-color="#009245" stop-opacity="0.3"/></linearGradient><linearGradient id="linear-gradient-3" x1="109.6139" y1="898.6651" x2="870.3095" y2="1235.4104" gradientUnits="userSpaceOnUse"><stop offset="0" stop-color="#fff" stop-opacity="0"/><stop offset="1" stop-color="#1b1464" stop-opacity="0.32"/></linearGradient><mask id="mask" x="1031.0804" y="1130.4894" width="179.0166" height="454.051" maskUnits="userSpaceOnUse"><path d="M1205.3091,1131.0328l-155.525,98.4363a3.5943,3.5943,0,0,0-1.6865,2.997V1581.562a2.9132,2.9132,0,0,0,3.2238,2.9665,3.4736,3.4736,0,0,0,1.6322-.5736l155.525-103.3408a3.5865,3.5865,0,0,0,1.6183-2.9593V1133.4633a2.92,2.92,0,0,0-3.23-2.962A3.44,3.44,0,0,0,1205.3091,1131.0328Z" style="fill:#fff"/></mask><linearGradient id="linear-gradient-4" x1="1088.0487" y1="1483.2458" x2="1179.0868" y2="1335.1788" xlink:href="#linear-gradient"/><clipPath id="clip-path-2"><polygon points="1052.001 1259.293 1051.579 1239.262 1202.138 1144.89 1202.56 1164.921 1052.001 1259.293" style="fill:none"/></clipPath><clipPath id="clip-path-3"><polygon points="1162.792 1467.839 1163.082 1433.313 1194.398 1413.053 1194.108 1447.579 1162.792 1467.839" style="fill:none"/></clipPath><clipPath id="clip-path-4"><polygon points="281.55 808.643 267.753 298.371 816.656 -10.348 830.453 499.924 281.55 808.643" style="fill:none"/></clipPath><clipPath id="clip-path-5"><polygon points="1058.401 1380.662 1059.192 1284.066 1193.857 1208.3 1193.065 1304.896 1058.401 1380.662" style="fill:none"/></clipPath><clipPath id="clip-path-6"><polygon points="390.995 1797.474 385.509 1594.58 870.075 1322.047 875.561 1524.941 390.995 1797.474" style="fill:none"/></clipPath></defs><title>vuexr_illustration</title><g id="Layer_2" data-name="Layer 2"><path d="M180,1181V923s-2-33,29-50S523,695,532,689s14-6,30,5S760,810,760,810s6,3,6,12v260L413,1315Z" style="opacity:0.4;fill:url(#linear-gradient)"/><path d="M766,828v262L413,1315V1049c0-14,6-26,24-36S738,835,760,822C763.85,819.7249,766,818,766,828Z" style="fill:#b3b3b3"/><polygon points="766 1090 413 1315 180 1181 180 1143 413 1279 766 1055 766 1090" style="opacity:0.6"/><path d="M213.0693,1160.3022S213,964,213,941s15-43,32-53c11.9744-7.0437,325-186,325-186" style="fill:none;stroke:#001e00;stroke-linecap:round;stroke-linejoin:round;stroke-width:4px;opacity:0.4"/><path d="M294,1070s-.0693-64.3022-.0693-87.3022,15-43,32-53" style="fill:none;stroke:#001e00;stroke-linecap:round;stroke-linejoin:round;stroke-width:4px;opacity:0.4"/><path d="M372,1253s-.0693-196.3022-.0693-219.3022,15-43,32-53c11.9744-7.0438,325-186,325-186" style="fill:none;stroke:#001e00;stroke-linecap:round;stroke-linejoin:round;stroke-width:4px;opacity:0.4"/><polygon points="309 886.062 549.512 750.562 579 768.5 338.488 904 309 886.062" style="fill:#999"/><polygon points="579 768.5 549.512 750.562 549.512 785 579 768.5" style="fill:#b3b3b3"/><polygon points="367.488 921.062 608 785.562 637.488 803.5 396.975 939 367.488 921.062" style="fill:#999"/><polygon points="637.488 803.5 608 785.562 608 820 637.488 803.5" style="fill:#b3b3b3"/><path d="M297,1175l-37-67,17.7178-9.6474c12.0012-6.25,29.6915,3.9724,39.5123,22.8314s8.0534,39.2137-3.9479,45.4634Z" style="fill:#ccc"/><ellipse cx="278.5" cy="1141.5" rx="24.5" ry="38.5" transform="translate(-495.7461 257.6858) rotate(-27.5083)" style="fill:gray;stroke:#f2f2f2;stroke-miterlimit:10"/><polygon points="315.972 1054.097 300.694 1062.5 262.5 1043.403 262.602 1038.454 316 1049 315.972 1054.097" style="fill:#999"/><path d="M278.5417,1030c.7639,0,37.43,19.0972,37.43,19.0972L300.6944,1057.5,262.5,1038.4028Z" style="fill:gray"/><g style="isolation:isolate"><g style="clip-path:url(#clip-path)"><path d="M703.1209,970.091l.16-19.1221,17.3378-11.2167-.16,19.1221-.16,19.1152-.16,19.1221-.16,19.1152L702.64,1027.4436l.16-19.1152-.16,19.1152-17.3442,11.2208.16-19.1152-.16,19.1152-17.3378,11.2168.16-19.1152-.16,19.1152-17.3442,11.2208.16-19.1152.16-19.1222.16-19.1152.16-19.1221,17.3441-11.2208-.16,19.1221.16-19.1221L685.9371,962.19l-.16,19.1222.16-19.1222,17.3442-11.2208-.16,19.1221m35.0027-60.6748L634.0775,976.7289l-.9622,114.712,104.0461-67.3127.9622-114.712"/><polyline points="668.599 973.406 651.255 984.627 651.095 1003.749 668.439 992.529 668.599 973.406"/><polyline points="685.937 962.19 668.599 973.406 668.439 992.529 685.777 981.312 685.937 962.19"/><polyline points="703.281 950.969 685.937 962.19 685.777 981.312 703.121 970.091 703.281 950.969" style="fill:#fff"/><polyline points="720.619 939.752 703.281 950.969 703.121 970.091 720.459 958.874 720.619 939.752" style="fill:#fff"/><polyline points="668.439 992.529 651.095 1003.749 650.934 1022.865 668.278 1011.644 668.439 992.529"/><polyline points="685.777 981.312 668.439 992.529 668.278 1011.644 685.616 1000.427 685.777 981.312"/><polyline points="703.121 970.091 685.777 981.312 685.616 1000.427 702.961 989.206 703.121 970.091" style="fill:#fff"/><polyline points="720.459 958.874 703.121 970.091 702.961 989.206 720.298 977.99 720.459 958.874"/><polyline points="668.278 1011.644 650.934 1022.865 650.774 1041.987 668.118 1030.766 668.278 1011.644" style="fill:#fff"/><polyline points="685.616 1000.427 668.278 1011.644 668.118 1030.766 685.456 1019.549 685.616 1000.427"/><polyline points="702.961 989.206 685.616 1000.427 685.456 1019.549 702.8 1008.328 702.961 989.206"/><polyline points="720.298 977.99 702.961 989.206 702.8 1008.328 720.138 997.112 720.298 977.99"/><polyline points="668.118 1030.766 650.774 1041.987 650.614 1061.102 667.958 1049.881 668.118 1030.766" style="fill:#fff"/><polyline points="685.456 1019.549 668.118 1030.766 667.958 1049.881 685.296 1038.664 685.456 1019.549" style="fill:#fff"/><polyline points="702.8 1008.328 685.456 1019.549 685.296 1038.664 702.64 1027.444 702.8 1008.328"/><polyline points="720.138 997.112 702.8 1008.328 702.64 1027.444 719.978 1016.227 720.138 997.112"/></g></g><polygon points="1048 1197 -20 1585 567 338 1048 1197" style="fill:url(#linear-gradient-2)"/><polygon points="886 1135 -182 1523 405 276 886 1135" style="fill:url(#linear-gradient-3)"/><path d="M1171.8139,996.11l-162.0705,102.5816c-17.5291,11.0935-28.4346,30.42-28.4346,50.39v545.38a19.45,19.45,0,0,0,21.5661,19.6872,23.2311,23.2311,0,0,0,10.782-3.8322l167.5262-111.3146c16.6281-11.0463,26.8756-29.6834,26.8766-48.8823V1014.4572a22.1,22.1,0,0,0-24.5093-22.3621,26.3267,26.3267,0,0,0-11.7345,4.0183Z" style="fill:#696969"/><path d="M1198.96,996.13l32.5161,19.8674-30.0155,8.4117ZM1025.7174,1731.7,993.2,1711.8329l30.0144-8.4116Z" style="fill:#696969;fill-rule:evenodd"/><path d="M1204.1887,1015.8312l-162.0705,102.5816c-17.53,11.0976-28.4346,30.42-28.4346,50.39v545.38a19.4487,19.4487,0,0,0,21.565,19.6872,23.2321,23.2321,0,0,0,10.7831-3.8323l167.5262-111.3107c16.631-11.05,26.8766-29.6873,26.8766-48.8861V1034.1788a22.0964,22.0964,0,0,0-24.51-22.362,26.2874,26.2874,0,0,0-11.7335,4.0182Z" style="fill:#848a88"/><path d="M1205.3091,1131.0328l-155.525,98.4363a3.5943,3.5943,0,0,0-1.6865,2.997V1581.562a2.9132,2.9132,0,0,0,3.2238,2.9665,3.4736,3.4736,0,0,0,1.6322-.5736l155.525-103.3408a3.5865,3.5865,0,0,0,1.6183-2.9593V1133.4633a2.92,2.92,0,0,0-3.23-2.962A3.44,3.44,0,0,0,1205.3091,1131.0328Z" style="fill:#fff"/><ellipse cx="1129.3377" cy="1605.3015" rx="45.0098" ry="25.8074" transform="translate(-830.5165 1711.9231) rotate(-57.9874)" style="fill:#6e7a77"/><path d="M1158.7506,1122.6534c7.3606-4.509,13.17-14.6918,12.9754-22.7368-.1946-8.0411-6.3192-10.904-13.6789-6.3911l-58.288,38.3951c-7.36,4.5089-13.1671,14.6876-12.9734,22.7288.1946,8.045,6.3192,10.9079,13.6788,6.395" style="fill:#6e7a77"/><path d="M1205.3091,1131.0328l-155.525,98.4363a3.5943,3.5943,0,0,0-1.6865,2.997V1581.562a2.9132,2.9132,0,0,0,3.2238,2.9665,3.4736,3.4736,0,0,0,1.6322-.5736l155.525-103.3408a3.5865,3.5865,0,0,0,1.6183-2.9593V1133.4633a2.92,2.92,0,0,0-3.23-2.962A3.44,3.44,0,0,0,1205.3091,1131.0328Z" style="fill:#fff"/><g style="mask:url(#mask)"><path d="M1031.088,1491.2572v-75.4093a16.3972,16.3972,0,0,1,8.4762-14.6142c9.0608-4.9688,91.7772-52.0266,94.4078-53.78s4.092-1.7537,8.7685,1.4615,57.8723,33.9049,57.8723,33.9049a3.7993,3.7993,0,0,1,1.7537,3.5074v75.9939L1099.19,1530.4233Z" style="opacity:0.4;fill:url(#linear-gradient-4)"/><path d="M1202.3665,1388.0809v76.5784l-103.1763,65.764v-77.7476c0-4.092,1.7537-7.5994,7.0148-10.5222s87.9775-52.0266,94.4078-55.8263C1201.7381,1385.6622,1202.3665,1385.1581,1202.3665,1388.0809Z" style="fill:#b3b3b3"/><polygon points="1202.366 1464.659 1099.19 1530.423 1031.088 1491.257 1031.088 1480.15 1099.19 1519.901 1202.366 1454.429 1202.366 1464.659" style="opacity:0.6"/><path d="M1040.7536,1485.2076s-.02-57.376-.02-64.0986,4.3842-12.5682,9.3531-15.491c3.5-2.0588,94.9923-54.3649,94.9923-54.3649" style="fill:none;stroke:#001e00;stroke-linecap:round;stroke-linejoin:round;stroke-width:1.1691362822539741px;opacity:0.4"/><path d="M1064.4084,1458.8137s-.02-18.7946-.02-25.5171,4.3843-12.5682,9.3531-15.491" style="fill:none;stroke:#001e00;stroke-linecap:round;stroke-linejoin:round;stroke-width:1.1691362822539741px;opacity:0.4"/><path d="M1087.2065,1512.3017s-.02-57.3761-.02-64.0986,4.3843-12.5682,9.3531-15.4911c3.5-2.0587,94.9923-54.3648,94.9923-54.3648" style="fill:none;stroke:#001e00;stroke-linecap:round;stroke-linejoin:round;stroke-width:1.1691362822539741px;opacity:0.4"/><polygon points="1068.793 1405.052 1139.091 1365.447 1147.709 1370.69 1077.411 1410.295 1068.793 1405.052" style="fill:#999"/><polygon points="1147.709 1370.69 1139.091 1365.447 1139.091 1375.513 1147.709 1370.69" style="fill:#b3b3b3"/><polygon points="1085.888 1415.282 1156.186 1375.677 1164.804 1380.92 1094.506 1420.524 1085.888 1415.282" style="fill:#999"/><polygon points="1164.804 1380.92 1156.186 1375.677 1156.186 1385.743 1164.804 1380.92" style="fill:#b3b3b3"/><path d="M1065.2852,1489.5035l-10.8145-19.583,5.1786-2.82c3.5078-1.8267,8.6784,1.161,11.5489,6.6732s2.3538,11.4616-1.1539,13.2882Z" style="fill:#ccc"/><ellipse cx="1059.878" cy="1479.712" rx="7.161" ry="11.2529" transform="translate(-563.6189 656.8228) rotate(-27.5083)" style="fill:gray;stroke:#f2f2f2;stroke-miterlimit:10;stroke-width:0.29228407056349354px"/><polygon points="1070.831 1454.166 1066.365 1456.622 1055.201 1451.04 1055.231 1449.593 1070.839 1452.676 1070.831 1454.166" style="fill:#999"/><path d="M1059.89,1447.1223c.2232,0,10.94,5.5818,10.94,5.5818l-4.4654,2.456-11.1637-5.5818Z" style="fill:gray"/></g><g style="isolation:isolate"><g style="clip-path:url(#clip-path-2)"><path d="M1074.1017,1236.1168c-1.0075.6315-2.0757,1.54-2.054,2.5735.0141.668.4438.7126.9385.4025a3.0442,3.0442,0,0,0,1.2692-1.7514,1.45,1.45,0,0,0,.0452-.3562l-.0206-.9778c-.059.0354-.1187.072-.1783.1094m38.5439-26.2715a3.6618,3.6618,0,0,0-1.5436,3.1234c.0234,1.1087.5767,1.6967,1.6182,1.0439a3.2666,3.2666,0,0,0,1.3256-1.8914,2.5663,2.5663,0,0,0,.0665-.6l-.0213-1.0123a1.1516,1.1516,0,0,0-.0685-.4314c-.1883-.482-.6738-.673-1.3769-.2324m-45.031,28.1913a3.788,3.788,0,0,0-1.5944,3.2179c.026,1.2326.7162,1.7488,1.6667,1.153a3.8777,3.8777,0,0,0,1.5682-3.2085c-.02-.95-.4948-1.8806-1.64-1.1624m35.5256-22.268a3.8016,3.8016,0,0,0-1.6009,3.2221c.026,1.2325.7227,1.7447,1.6667,1.153a3.8907,3.8907,0,0,0,1.5747-3.2127c-.02-.95-.4948-1.8806-1.64-1.1624m-16.4192,10.2569a3.5264,3.5264,0,0,0-1.4557,2.6008l2.8319-1.775c-.0008-.6623-.2891-1.5072-1.3762-.8258m12.4257-2.563c-.3841.2407-.6575.0982-.6664-.3219a1.4051,1.4051,0,0,1,.6486-1.153c.384-.2407.6573-.1051.6665.3288a1.3814,1.3814,0,0,1-.6487,1.1461m-1.58-4.8494.007.6445-2.3137,4.7642c-.2147.4555-.4238.8656-.6649,1.3168l0,.0206,3.1184-1.9546.0172.8194-4.3292,2.7136-.0126-.5991,2.3453-4.8328c.2215-.4458.4371-.8531.6716-1.307l0-.0207-2.8839,1.8077-.0174-.8263,4.0622-2.5463m-29.91,24.5873c-1.4452.9059-2.5819.4882-2.62-1.2953a5.6062,5.6062,0,0,1,2.58-4.652c1.5364-.963,2.5964-.4344,2.6326,1.2871a5.6216,5.6216,0,0,1-2.593,4.66m3.9629-7.2631-.229-.54a6.7567,6.7567,0,0,1,1.7406-1.6c1.6275-1.02,2.0494-.0916,2.0732,1.0377l.0444,2.1071a6.8344,6.8344,0,0,0,.12,1.2994l-.8853.5549-.0932-.6672-.0326.02a4.4359,4.4359,0,0,1-1.61,1.86c-1.0807.6774-1.651.2186-1.6681-.594-.0286-1.357,1.0912-2.8119,3.1368-4.0941l.0284-.0178-.0023-.11c-.01-.4683-.1513-1.2308-1.2385-.5494a5.5753,5.5753,0,0,0-1.3843,1.2933m6.3525.0228a1.8837,1.8837,0,0,0,1.024-1.493c-.01-.4888-.296-.5819-1.018-.4153-.9646.2417-1.4256-.0413-1.44-.7162a3.5862,3.5862,0,0,1,1.801-2.8033,2.7281,2.7281,0,0,1,1.3225-.4731l-.2317.8987a1.9957,1.9957,0,0,0-1.094.3579,1.6919,1.6919,0,0,0-.8758,1.3234c.01.4682.3334.4817,1.0292.3246.9388-.2117,1.4179-.0166,1.4356.8234a3.6978,3.6978,0,0,1-1.9564,2.9426,3.1136,3.1136,0,0,1-1.5055.553l.2243-.936a2.3606,2.3606,0,0,0,1.2847-.3867m9.0521-4.9064c-1.6406,1.0283-2.6412.4973-2.6771-1.2035a5.5163,5.5163,0,0,1,2.4357-4.61c1.7383-1.09,2.2345.2389,2.2564,1.2787a4.1293,4.1293,0,0,1-.0224.4955l-3.7434,2.3463c.0488,1.3787.9006,1.417,1.8706.8089a6.6507,6.6507,0,0,0,1.4651-1.2114l.1848.6307a8.4933,8.4933,0,0,1-1.77,1.4652m4.0227-7.2378.0455-.0286a3.6756,3.6756,0,0,1,1.4519-2.1589,1.438,1.438,0,0,1,.2741-.1369l.0205.9709a1.6361,1.6361,0,0,0-.3328.1737,3.26,3.26,0,0,0-1.3033,2.6309l.0634,3.0091-.957.6-.0818-3.8836c-.014-.661-.039-1.2244-.0826-1.7273l.8464-.5305.0557,1.0814m12.1289-2.8794c-1.4387.9019-2.5755.4842-2.6131-1.2993a5.5965,5.5965,0,0,1,2.58-4.652c1.53-.959,2.59-.43,2.6261,1.2911a5.6214,5.6214,0,0,1-2.593,4.66m4.6215-7.62.0457-.0286a3.6567,3.6567,0,0,1,1.4452-2.1547,1.5674,1.5674,0,0,1,.2807-.141l.02.9709a1.726,1.726,0,0,0-.3327.1736,3.04,3.04,0,0,0-1.2742,2.1313,3.8966,3.8966,0,0,0-.0356.5037l.0634,3.0091-.957.6-.0818-3.8836c-.0139-.661-.039-1.2243-.0827-1.7272l.8529-.5346.0557,1.0813m4.6522,1.6538c-1.3216.8284-2.2905.2357-2.3234-1.3274a5.4866,5.4866,0,0,1,2.339-4.5011c.9245-.5794,1.4431-.3882,1.6808-.0627l.026-.0164.0212-.8714.8529-.5346c-.0175.4226-.0275.8893-.0129,1.5779l.0689,3.2707a5.2625,5.2625,0,0,1-.7075,3.0528,5.9044,5.9044,0,0,1-1.9258,1.8908,3.54,3.54,0,0,1-1.78.6486l.2244-.9359a2.9665,2.9665,0,0,0,1.5717-.5387,3.37,3.37,0,0,0,1.6773-3.04l-.0133-.6335-.02.0122a4.3445,4.3445,0,0,1-1.6792,2.0084m-51.2517,27.2276-.0164-.7781.82-.5142-.0286-1.3565.9448-.8643.0342,1.625,1.3867-.8691.0164.7781-1.3867.8691.0642,3.0436c.0146.6954.2118.9765.7522.6378a3.9031,3.9031,0,0,0,.5584-.42l.0616.7358a4.403,4.403,0,0,1-.8562.6832c-.4557.2857-.817.3586-1.0573.2232-.28-.1317-.3945-.569-.4085-1.23l-.0648-3.078-.82.5142m19.3025-12.0991-.0164-.7781.8267-.5182-.0286-1.3565.9384-.86.0342,1.6251,1.3866-.8692.0164.7781-1.3866.8692.0641,3.0435c.0147.6955.2119.9765.7522.6379a3.8968,3.8968,0,0,0,.5585-.42l.0616.7358a4.4,4.4,0,0,1-.8563.6833c-.4557.2856-.8169.3585-1.0572.2231-.28-.1316-.3881-.573-.402-1.234l-.0649-3.078-.8267.5182m98.3438-70.6084-117.7937,73.8347c-5.2276,3.2767-9.3778,10.42-9.2611,15.9562.1165,5.5293,4.4556,7.3514,9.6833,4.0746l117.7936-73.8347c5.2277-3.2767,9.3777-10.42,9.2612-15.9492-.1167-5.5362-4.4557-7.3583-9.6833-4.0816" style="fill:#f2f2f2"/><path d="M1200.1937,1147.79a4.3341,4.3341,0,0,0-1.9283,3.33c.0242,1.15.9293,1.5314,2.0164.85a4.3367,4.3367,0,0,0,1.9352-3.327c-.0244-1.1568-.93-1.5383-2.0233-.8527" style="fill:#4d4d4d"/><path d="M1200.3258,1154.056a4.3342,4.3342,0,0,0-1.9284,3.33c.0242,1.15.9294,1.5314,2.0165.85a4.3371,4.3371,0,0,0,1.9352-3.327c-.0244-1.1568-.9295-1.5383-2.0233-.8527" style="fill:#4d4d4d"/><path d="M1200.4579,1160.3221a4.3339,4.3339,0,0,0-1.9284,3.33c.0242,1.15.9293,1.5315,2.0165.85a4.3367,4.3367,0,0,0,1.9351-3.3269c-.0244-1.1568-.9295-1.5383-2.0232-.8527" style="fill:#4d4d4d"/><path d="M1062.9186,1238.6847l-.9448.8643.0286,1.3565-.82.5142.0164.7781.82-.5142.0648,3.078c.014.661.1288,1.0983.4085,1.23.24.1354.6016.0625,1.0573-.2232a4.403,4.403,0,0,0,.8562-.6832l-.0616-.7358a3.9031,3.9031,0,0,1-.5584.42c-.54.3387-.7376.0576-.7522-.6378l-.0642-3.0436,1.3867-.8691-.0164-.7781-1.3867.8691-.0342-1.625"/><path d="M1067.6869,1242.4075c-.95.5958-1.6407.08-1.6667-1.153a3.788,3.788,0,0,1,1.5944-3.2179c1.1457-.7182,1.62.2121,1.64,1.1624a3.8777,3.8777,0,0,1-1.5682,3.2085m-.0691-5.1544a5.6062,5.6062,0,0,0-2.58,4.652c.0376,1.7835,1.1743,2.2012,2.62,1.2953a5.6216,5.6216,0,0,0,2.593-4.66c-.0362-1.7215-1.0962-2.25-2.6326-1.2871"/><path d="M1072.9862,1239.0928c-.4947.31-.9244.2655-.9385-.4025-.0217-1.0335,1.0465-1.942,2.054-2.5735.06-.0374.1193-.074.1783-.1094l.0206.9778a1.45,1.45,0,0,1-.0452.3562,3.0442,3.0442,0,0,1-1.2692,1.7514m.1457-5.296a6.7567,6.7567,0,0,0-1.7406,1.6l.229.54a5.5753,5.5753,0,0,1,1.3843-1.2933c1.0872-.6814,1.2286.0811,1.2385.5494l.0023.11-.0284.0178c-2.0456,1.2822-3.1654,2.7371-3.1368,4.0941.0171.8126.5874,1.2714,1.6681.594a4.4359,4.4359,0,0,0,1.61-1.86l.0326-.02.0932.6672.8853-.5549a6.8344,6.8344,0,0,1-.12-1.2994l-.0444-2.1071c-.0238-1.1293-.4457-2.0578-2.0732-1.0377"/><path d="M1078.34,1230.5323a3.5862,3.5862,0,0,0-1.801,2.8033c.0143.6749.4753.9579,1.44.7162.722-.1666,1.0077-.0735,1.018.4153a1.8837,1.8837,0,0,1-1.024,1.493,2.3606,2.3606,0,0,1-1.2847.3867l-.2243.936a3.1136,3.1136,0,0,0,1.5055-.553,3.6978,3.6978,0,0,0,1.9564-2.9426c-.0177-.84-.4968-1.0351-1.4356-.8234-.6958.1571-1.0194.1436-1.0292-.3246a1.6919,1.6919,0,0,1,.8758-1.3234,1.9957,1.9957,0,0,1,1.094-.3579l.2317-.8987a2.7281,2.7281,0,0,0-1.3225.4731"/><path d="M1082.2211,1226.5856l-.9384.86.0286,1.3565-.8267.5182.0164.7781.8267-.5182.0649,3.078c.0139.661.1222,1.1024.402,1.234.24.1354.6015.0625,1.0572-.2231a4.4,4.4,0,0,0,.8563-.6833l-.0616-.7358a3.8968,3.8968,0,0,1-.5585.42c-.54.3386-.7375.0576-.7522-.6379l-.0641-3.0435,1.3866-.8692-.0164-.7781-1.3866.8692-.0342-1.6251"/><path d="M1085.2653,1228.6263a3.5264,3.5264,0,0,1,1.4557-2.6008c1.0871-.6814,1.3754.1635,1.3762.8258l-2.8319,1.775m1.5182-3.3865a5.5163,5.5163,0,0,0-2.4357,4.61c.0359,1.7008,1.0365,2.2318,2.6771,1.2035a8.4933,8.4933,0,0,0,1.77-1.4652l-.1848-.6307a6.6507,6.6507,0,0,1-1.4651,1.2114c-.97.6081-1.8218.57-1.8706-.8089l3.7434-2.3463a4.1293,4.1293,0,0,0,.0224-.4955c-.0219-1.04-.5181-2.3683-2.2564-1.2787"/><path d="M1092.545,1221.6284a3.6756,3.6756,0,0,0-1.4519,2.1589l-.0455.0286-.0557-1.0814-.8464.5305c.0436.5029.0686,1.0663.0826,1.7273l.0818,3.8836.957-.6-.0634-3.0091a3.26,3.26,0,0,1,1.3033-2.6309,1.6361,1.6361,0,0,1,.3328-.1737l-.0205-.9709a1.438,1.438,0,0,0-.2741.1369"/><path d="M1097.567,1218.6131l-4.0622,2.5463.0174.8263,2.8839-1.8077,0,.0207c-.2345.4539-.45.8612-.6716,1.307l-2.3453,4.8328.0126.5991,4.3292-2.7136-.0172-.8194-3.1184,1.9546,0-.0206c.2411-.4512.45-.8613.6649-1.3168l2.3137-4.7642-.007-.6445"/><path d="M1099.1289,1221.9876a1.4051,1.4051,0,0,0-.6486,1.153c.0089.42.2823.5626.6664.3219a1.3814,1.3814,0,0,0,.6487-1.1461c-.0092-.4339-.2825-.5695-.6665-.3288"/><path d="M1103.206,1220.1437c-.944.5917-1.6407.0795-1.6667-1.153a3.8016,3.8016,0,0,1,1.6009-3.2221c1.1457-.7182,1.62.2122,1.64,1.1624a3.8907,3.8907,0,0,1-1.5747,3.2127m-.0626-5.1585a5.5965,5.5965,0,0,0-2.58,4.652c.0376,1.7835,1.1744,2.2012,2.6131,1.2993a5.6214,5.6214,0,0,0,2.593-4.66c-.0363-1.7214-1.0962-2.25-2.6261-1.2911"/><path d="M1109.2889,1211.1331a3.6567,3.6567,0,0,0-1.4452,2.1547l-.0457.0286-.0557-1.0813-.8529.5346c.0437.5029.0688,1.0662.0827,1.7272l.0818,3.8836.957-.6-.0634-3.0091a3.8966,3.8966,0,0,1,.0356-.5037,3.04,3.04,0,0,1,1.2742-2.1313,1.726,1.726,0,0,1,.3327-.1736l-.02-.9709a1.5674,1.5674,0,0,0-.2807.141"/><path d="M1112.72,1214.0126c-1.0415.6528-1.5948.0648-1.6182-1.0439a3.6618,3.6618,0,0,1,1.5436-3.1234c.7031-.4406,1.1886-.25,1.3769.2324a1.1516,1.1516,0,0,1,.0685.4314l.0213,1.0123a2.5663,2.5663,0,0,1-.0665.6,3.2666,3.2666,0,0,1-1.3256,1.8914m-.2544-4.8709a5.4866,5.4866,0,0,0-2.339,4.5011c.0329,1.5631,1.0018,2.1558,2.3234,1.3274a4.3445,4.3445,0,0,0,1.6792-2.0084l.02-.0122.0133.6335a3.37,3.37,0,0,1-1.6773,3.04,2.9665,2.9665,0,0,1-1.5717.5387l-.2244.9359a3.54,3.54,0,0,0,1.78-.6486,5.9044,5.9044,0,0,0,1.9258-1.8908,5.2625,5.2625,0,0,0,.7075-3.0528l-.0689-3.2707c-.0146-.6886-.0046-1.1553.0129-1.5779l-.8529.5346-.0212.8714-.026.0164c-.2377-.3255-.7563-.5167-1.6808.0627"/></g></g><g style="isolation:isolate"><g style="clip-path:url(#clip-path-3)"><path d="M1183.8647,1431.3112l.0483-5.75,5.2214-3.378-.0482,5.75-.0483,5.7567-.0483,5.7568-.0483,5.7567-5.2214,3.3781.0483-5.7568-.0483,5.7568-5.2215,3.378.0483-5.7567-.0483,5.7567-5.2215,3.378.0483-5.7567-.0483,5.7567-5.2152,3.3741.0483-5.7568.0483-5.7568.0482-5.7567.0483-5.75,5.2152-3.374-.0482,5.75.0482-5.75,5.2215-3.3781-.0482,5.75.0482-5.75,5.2215-3.378-.0483,5.75m10.5333-18.2586-31.3164,20.26-.29,34.5267,31.3164-20.26.29-34.5267"/><polyline points="1173.47 1432.317 1168.255 1435.691 1168.207 1441.441 1173.422 1438.067 1173.47 1432.317"/><polyline points="1178.691 1428.939 1173.47 1432.317 1173.422 1438.067 1178.643 1434.689 1178.691 1428.939"/><polyline points="1183.913 1425.561 1178.691 1428.939 1178.643 1434.689 1183.865 1431.311 1183.913 1425.561" style="fill:#fff"/><polyline points="1189.134 1422.183 1183.913 1425.561 1183.865 1431.311 1189.086 1427.933 1189.134 1422.183" style="fill:#fff"/><polyline points="1173.422 1438.067 1168.207 1441.441 1168.158 1447.198 1173.373 1443.824 1173.422 1438.067"/><polyline points="1178.643 1434.689 1173.422 1438.067 1173.373 1443.824 1178.595 1440.446 1178.643 1434.689"/><polyline points="1183.865 1431.311 1178.643 1434.689 1178.595 1440.446 1183.816 1437.068 1183.865 1431.311" style="fill:#fff"/><polyline points="1189.086 1427.933 1183.865 1431.311 1183.816 1437.068 1189.038 1433.69 1189.086 1427.933"/><polyline points="1173.373 1443.824 1168.158 1447.198 1168.11 1452.955 1173.325 1449.581 1173.373 1443.824" style="fill:#fff"/><polyline points="1178.595 1440.446 1173.373 1443.824 1173.325 1449.581 1178.547 1446.203 1178.595 1440.446"/><polyline points="1183.816 1437.068 1178.595 1440.446 1178.547 1446.203 1183.768 1442.825 1183.816 1437.068"/><polyline points="1189.038 1433.69 1183.816 1437.068 1183.768 1442.825 1188.99 1439.447 1189.038 1433.69"/><polyline points="1173.325 1449.581 1168.11 1452.955 1168.062 1458.712 1173.277 1455.338 1173.325 1449.581" style="fill:#fff"/><polyline points="1178.547 1446.203 1173.325 1449.581 1173.277 1455.338 1178.498 1451.96 1178.547 1446.203" style="fill:#fff"/><polyline points="1183.768 1442.825 1178.547 1446.203 1178.498 1451.96 1183.72 1448.581 1183.768 1442.825"/><polyline points="1188.99 1439.447 1183.768 1442.825 1183.72 1448.581 1188.941 1445.203 1188.99 1439.447"/></g></g><g style="isolation:isolate"><g style="clip-path:url(#clip-path-4)"><path d="M443.4,508.6653c-5.4842,3.0845-7.7422,9.9539-8.0623,14.3l15.8357-8.9064c-.0421-3.7975-1.6792-8.8215-7.7734-5.394m59.8876-33.6825c-5.4841,3.0845-7.7355,9.95-8.0556,14.2967l15.829-8.9027c-.0355-3.8012-1.6726-8.8252-7.7734-5.394M405.1935,638.9083c.5541-17.29,12.946-37.6811,28.5227-46.4418s28.6772-2.7074,30.1352,13.4509L644.1955,504.4868c1.2335-.6938,2.2644-.164,2.3008,1.1823a4.5627,4.5627,0,0,1-2.1687,3.7035L463.941,610.8271c-.834,17.15-13.1057,37.1463-28.49,45.7989s-28.36,2.8556-30.0828-12.8559L340.32,680.3548c-1.24.6974-2.2709.1676-2.3075-1.1859a4.5636,4.5636,0,0,1,2.1754-3.7l65.0052-36.5607m82.1042-158.4815-10.8308,39.1368-5.1725,2.9091L459.0747,496.3l5.7959-3.26,6.3433,15.0014a56.13,56.13,0,0,1,2.6327,6.9845l.1856-.1044c.6039-3.0658,1.3931-6.2433,2.2945-9.7557l5.3012-21.5507,5.67-3.1888M445.3112,537.77c-9.1844,5.1656-14.84,1.6523-15.1056-8.1627-.2656-9.8223,4.8239-20.5327,13.5109-25.4185,9.7348-5.4751,12.5737,2.4148,12.7356,8.4008a27.06,27.06,0,0,1-.1112,2.8622l-20.9484,11.782c.3425,7.9346,5.1132,8.5948,10.5311,5.5477a33.3433,33.3433,0,0,0,8.21-6.3227l1.0429,3.7122a41.2825,41.2825,0,0,1-9.8658,7.599m59.8876-33.6825c-9.1778,5.1619-14.84,1.6523-15.1056-8.1627-.2655-9.8223,4.8239-20.5326,13.511-25.4185,9.7347-5.4751,12.5736,2.4148,12.7355,8.4008a25.3927,25.3927,0,0,1-.1111,2.8622L495.28,493.5511c.3424,7.9346,5.1132,8.5948,10.5376,5.544a33.418,33.418,0,0,0,8.2106-6.3227l1.0363,3.7159a41.241,41.241,0,0,1-9.8659,7.599m46.0034-63.9009-1.5355-3.5086a35.4007,35.4007,0,0,1,10.38-9.2477c7.8912-4.4382,11.5971-1.3346,11.7407,3.9782.1218,4.5022-2.2348,9.7222-7.1092,14.44l.0037.1376c4.9563-1.6927,9.0706.0863,9.236,6.2026.1892,6.9993-4.6388,15.924-14.2476,21.3283-4.496,2.5287-8.4834,3.2061-10.4912,2.8951l1.3553-5.399a16.029,16.029,0,0,0,8.9406-2.2288c6.9629-3.9161,8.9938-9.9743,8.8292-13.5706-.2252-6.09-5.3491-5.8682-10.5879-2.9218l-3.0172,1.697-.12-4.437,3.0172-1.697c3.9457-2.2191,8.879-7.25,8.7391-12.425-.0945-3.4961-2.2141-5.449-7.2075-2.6406a27.9749,27.9749,0,0,0-7.9258,7.397M404.7489,559.9l-1.2255-45.3257,5.3581-3.0135,1.0929,40.4181,17.7455-9.9805.1326,4.9075L404.7489,559.9m118.7939-66.813-1.2909-47.7432,5.4244-3.0509,1.2909,47.7432-5.4244,3.0509M656.0287,297.7525,318.2547,487.7262c-24.337,13.6878-43.56,46.4416-42.842,73.013l5.3749,198.79c.7185,26.5714,21.1107,37.0443,45.4477,23.3564l337.774-189.9736c24.337-13.6878,43.5538-46.4379,42.8353-73.0093l-5.3749-198.79c-.7184-26.5714-21.104-37.048-45.441-23.36" style="fill:#f2f2f2"/><path d="M326.2353,782.8857c-24.337,13.6879-44.7292,3.215-45.4477-23.3564l-5.3749-198.79c-.7184-26.5714,18.505-59.3252,42.842-73.013l337.774-189.9737c24.337-13.6878,44.7226-3.2112,45.441,23.36l5.3749,198.79c.7185,26.5714-18.4983,59.3215-42.8353,73.0093L326.2353,782.8857M656.0121,297.1373,318.2381,487.111c-24.6487,13.8631-44.11,47.0371-43.3824,73.9415l5.3749,198.79c.7277,26.9117,21.3727,37.5215,46.0214,23.6584L664.0259,593.5274c24.6487-13.8631,44.11-47.03,43.3824-73.9416l-5.3749-198.79c-.7274-26.9044-21.3726-37.5215-46.0213-23.6584" style="fill:#e6e6e6"/><path d="M463.941,610.8271,405.3681,643.77c1.7232,15.7115,14.6984,21.5085,30.0828,12.8559s27.6561-28.6492,28.49-45.7989m-30.2248-18.3606c-15.5767,8.7607-27.9686,29.1518-28.5227,46.4418l58.6579-32.9909c-1.458-16.1583-14.5586-22.2116-30.1352-13.4509" style="fill:#666"/><path d="M644.1955,504.4868,463.8514,605.9174l-58.6579,32.9909L340.1883,675.469a4.5636,4.5636,0,0,0-2.1754,3.7c.0366,1.3535,1.0675,1.8833,2.3075,1.1859L405.3681,643.77l58.5729-32.943L644.3276,509.3726a4.5627,4.5627,0,0,0,2.1687-3.7035c-.0364-1.3463-1.0673-1.8761-2.3008-1.1823" style="fill:#666"/><polyline points="408.882 511.561 403.523 514.574 404.749 559.9 427.853 546.906 427.72 541.998 409.974 551.979 408.882 511.561"/><path d="M435.3377,522.9657c.32-4.3465,2.5781-11.2159,8.0623-14.3,6.0942-3.4275,7.7313,1.5965,7.7734,5.394l-15.8357,8.9064m8.3788-18.7771c-8.687,4.8858-13.7765,15.5962-13.5109,25.4185.2654,9.815,5.9212,13.3283,15.1056,8.1627a41.2825,41.2825,0,0,0,9.8658-7.599l-1.0429-3.7122a33.3433,33.3433,0,0,1-8.21,6.3227c-5.4179,3.0471-10.1886,2.3869-10.5311-5.5477l20.9484-11.782a27.06,27.06,0,0,0,.1112-2.8622c-.1619-5.986-3.0008-13.8759-12.7356-8.4008"/><path d="M487.2977,480.4268l-5.67,3.1888-5.3012,21.5507c-.9014,3.5124-1.6906,6.69-2.2945,9.7557l-.1856.1044a56.13,56.13,0,0,0-2.6327-6.9845l-6.3433-15.0014-5.7959,3.26,12.22,26.1725,5.1725-2.9091,10.8308-39.1368"/><path d="M495.232,489.28c.32-4.3466,2.5715-11.2122,8.0556-14.2967,6.1008-3.4312,7.7379,1.5928,7.7734,5.394L495.232,489.28m8.3722-18.7734c-8.6871,4.8859-13.7765,15.5962-13.511,25.4185.2654,9.815,5.9278,13.3246,15.1056,8.1627a41.241,41.241,0,0,0,9.8659-7.599l-1.0363-3.7159a33.418,33.418,0,0,1-8.2106,6.3227c-5.4244,3.0508-10.1952,2.3906-10.5376-5.544l20.9484-11.782a25.3927,25.3927,0,0,0,.1111-2.8622c-.1619-5.986-3.0008-13.8759-12.7355-8.4008"/><polyline points="527.676 442.293 522.252 445.344 523.543 493.087 528.967 490.036 527.676 442.293"/><path d="M560.0468,427.43a35.4007,35.4007,0,0,0-10.38,9.2477l1.5355,3.5086a27.9749,27.9749,0,0,1,7.9258-7.397c4.9934-2.8084,7.113-.8555,7.2075,2.6406.14,5.1753-4.7934,10.2059-8.7391,12.425l-3.0172,1.697.12,4.437,3.0172-1.697c5.2388-2.9464,10.3627-3.1682,10.5879,2.9218.1646,3.5963-1.8663,9.6545-8.8292,13.5706a16.029,16.029,0,0,1-8.9406,2.2288l-1.3553,5.399c2.0078.311,5.9952-.3664,10.4912-2.8951,9.6088-5.4043,14.4368-14.329,14.2476-21.3283-.1654-6.1163-4.28-7.8953-9.236-6.2026l-.0037-.1376c4.8744-4.7181,7.231-9.9381,7.1092-14.44-.1436-5.3128-3.85-8.4164-11.7407-3.9782"/><polyline points="286.717 291.622 273.79 308.768 273.857 311.244 287.31 313.553 287.227 310.463 276.406 308.635 276.401 308.475 286.801 294.712 286.717 291.622"/><path d="M300.5656,305.8263c-1.9828,1.1151-3.77,1.2531-3.8272-.8677-.0667-2.4682,2.1185-5.3066,9.4559-10.0652l.1317,4.8714c-1.9282,2.8847-3.8108,4.9649-5.76,6.0615m1.3081-18.1a28.5491,28.5491,0,0,0-7.6061,7.0187l1.2256,1.5079a22.8632,22.8632,0,0,1,5.954-5.6267c3.3289-1.8723,4.5147-.3421,4.69,2.1461-8.8584,5.7685-12.4107,9.8386-12.2968,14.0512.0908,3.3586,2.7966,3.8355,6.0194,2.0229,2.4072-1.3539,4.8431-4.1348,6.676-6.8116l.1061-.06.3142,2.41,2.44-1.3725-.3111-11.5087c-.1263-4.6687-2.51-6.4217-7.2113-3.7774"/><path d="M327.4441,273.345c-3.183,1.79-5.8186,5.1537-7.5466,9.2193l-.0663.0373-.4051-4.2768-2.44,1.3726.5073,18.7614,2.9377-1.6523-.2965-10.9657c1.9426-5.09,4.3444-7.8886,6.9306-9.3431a9.0694,9.0694,0,0,1,3.2-1.175l.5956-3.12a7.27,7.27,0,0,0-3.416,1.1423"/><polyline points="351.427 265.221 336.214 273.777 336.279 276.172 351.491 267.617 351.427 265.221"/><path d="M368.372,250.7963,357.4833,256.92l.07,2.584,7.9576-4.4756.4374,16.1774,2.9311-1.6485-.5073-18.7614m-2.0041-7.8892a4.4673,4.4673,0,0,0-2.2675,3.781c.0407,1.5057,1.055,1.92,2.4012,1.1627a4.4309,4.4309,0,0,0,2.2673-3.7883c-.0395-1.4621-1.0614-1.9088-2.401-1.1554"/><path d="M385.5767,235.0062l-2.44,1.3725-.2284,6.2422-4.9817,2.9929.0648,2.3958,4.8807-2.745.24,8.8813c.1253,4.6325,1.8411,6.8419,6.861,4.0185a25.3584,25.3584,0,0,0,5.3477-4.1467l-.7-1.9943a19.29,19.29,0,0,1-4.0819,3.1555c-3.3223,1.8686-4.3971.7095-4.4879-2.6491l-.2412-8.9174,8.4218-4.7367-.07-2.584-8.4218,4.7366-.1628-6.0221"/><path d="M402.365,239.5918a12.0918,12.0918,0,0,1,5.6778-9.0352c2.9319-1.649,4.9268-.8353,5.2858,2.869l-10.9636,6.1662m5.5372-11.4986c-4.5956,2.5846-8.6731,8.64-8.5083,14.7349.1693,6.2609,4.3721,7.5786,9.5379,4.6732a22.1413,22.1413,0,0,0,6.5908-5.9774l-1.124-1.4842a17.4938,17.4938,0,0,1-5.1842,4.7161c-3.5692,2.0075-6.3916,1.4064-6.8539-2.6557l13.544-7.6175a15.2971,15.2971,0,0,0,.0872-2.0037c-.1431-5.2911-3.1359-7.1718-8.0895-4.3857"/><path d="M433.8639,213.4916c-1.9828,1.1151-3.01,2.9424-3.9442,5.51-.5559-1.8845-1.646-2.3662-3.3437-1.4114-1.9828,1.1151-3.0115,2.9062-3.8465,5.1394l-.0729.041-.3121-2.33-2.3343,1.3129.5073,18.7614,2.8979-1.63-.3675-13.5933c.7967-2.4027,1.553-3.8128,2.7533-4.4878,1.2732-.7161,1.8009.1261,1.8594,2.29l.357,13.2024,2.6857-1.5105-.3676-13.5933c.87-2.4437,1.48-3.7717,2.68-4.4468,1.2732-.7161,1.8672.0888,1.9257,2.2531l.357,13.2024,2.9045-1.6336-.3632-13.4341c-.1014-3.7494-1.5691-4.9961-3.9762-3.6422"/><path d="M471.3542,205.7284a5.8036,5.8036,0,0,0-2.7759,4.8973c.0532,1.9688,1.3619,2.5628,2.9534,1.6677a5.7428,5.7428,0,0,0,2.7761-4.89c-.0523-1.9326-1.3621-2.57-2.9536-1.6749m-.3736-13.8178a5.7916,5.7916,0,0,0-2.7761,4.89c.0532,1.9688,1.3619,2.5628,2.9534,1.6677a5.743,5.743,0,0,0,2.7761-4.89c-.0523-1.9327-1.3619-2.5629-2.9534-1.6678"/><path d="M495.6937,179.1869l-10.8886,6.1241.07,2.5841,7.9576-4.4756.4374,16.1774,2.931-1.6485-.5073-18.7615m-2.004-7.8891a4.4671,4.4671,0,0,0-2.2675,3.781c.0407,1.5056,1.055,1.92,2.4011,1.1626a4.4308,4.4308,0,0,0,2.2674-3.7883c-.04-1.4621-1.0615-1.9087-2.401-1.1553"/><path d="M513.4749,185.9624c-3.15,1.7716-5.1317.1822-5.2529-4.2983-.1158-4.285,2.214-8.498,5.1848-10.1689a4.7711,4.7711,0,0,1,4.548-.3607l.2524,9.3372c-1.4682,2.7143-3.0347,4.5359-4.7323,5.4907m7.0626-29.61L517.6,158.0043l.1953,7.2238.232,3.3526-.0663.0373a5.5659,5.5659,0,0,0-5.23.5168c-4.065,2.2863-7.6831,8.157-7.5181,14.2588.1691,6.2538,3.2427,8.1331,7.699,5.6268a16.8857,16.8857,0,0,0,5.5441-6.0943l.1061-.06.3121,2.33,2.4072-1.3539-.7433-27.4907"/><path d="M542.5144,161.9436l-15.2057,8.552.0648,2.3959,15.2056-8.5521-.0647-2.3958m-.2233-8.2589-15.2057,8.5521.0646,2.3887,15.2056-8.5521-.0645-2.3887"/><path d="M550.1652,158.074l5.8621-11.7622c.71-1.6193,1.487-3.2686,2.1974-4.8806l.179-.1007c-.0365,1.3874-.0578,3.0894-.0612,4.458l.2047,7.5713-8.382,4.7142m10.7283-21.5167-3.1432,1.7679-10.8285,22.0434.0573,2.1207,11.638-6.5455.1838,6.7966,2.7586-1.5515-.1837-6.7966,3.5013-1.9693-.07-2.584-3.5014,1.9692-.4124-15.2509"/><path d="M576.1994,127.4785c-3.1831,1.79-5.37,4.549-7.3657,7.9418l1.7467.8621c1.4084-2.4383,3.21-4.7815,5.3319-5.9749,3.329-1.8723,4.9339-.7763,5.01,2.0394.1105,4.0895-3.9435,10.764-11.3834,22.4362l.0511,1.8892,15.882-8.9325-.0741-2.7432-7.394,4.1585c-1.3461.7572-2.79,1.65-4.2056,2.5637,5.9567-9.5081,10.0767-16.484,9.9515-21.1165-.1181-4.3646-3.0279-5.6674-7.5505-3.1238"/><polyline points="591.368 120.278 591.451 123.368 602.272 125.196 602.276 125.356 591.877 139.119 591.961 142.209 604.894 125.059 604.827 122.584 591.368 120.278"/><path d="M330.6326,310.3507l-2.1883,1.2307c-4.4231,2.4877-6.5138,4.8393-6.4064,8.8131.072,2.6636.4871,4.8183.5528,7.25.0407,1.5055-.8744,3.512-5.0446,5.8941l.0544,2.0122c4.1721-2.31,5.1668-1.3774,5.2075.1281.07,2.5841-.2262,4.83-.15,7.6458.1076,3.9811,2.261,3.9456,6.6841,1.458l2.1883-1.2308-.0491-1.8168-1.8369,1.0331c-3.6074,2.0289-4.4105,1.4592-4.4782-1.0453-.0638-2.36.0942-4.4839.0232-7.1114-.068-2.5117-.8837-3.302-3.3366-2.3928l-.0043-.1592c2.4278-1.8358,3.177-3.5063,3.1091-6.018-.0647-2.3959-.3415-4.6651-.401-6.8655-.0679-2.5117.6807-3.9541,4.2882-5.9831l1.8369-1.0331-.049-1.8095"/><path d="M351.8529,298.4158l-2.1883,1.2307c-4.4231,2.4877-6.5139,4.8393-6.4064,8.8131.072,2.6637.4871,4.8183.5528,7.25.0408,1.5055-.8744,3.512-5.0446,5.8941l.0544,2.0122c4.1721-2.31,5.1668-1.3774,5.2075.1281.07,2.5841-.2262,4.83-.15,7.6458.1076,3.9811,2.261,3.9456,6.6841,1.458l2.1883-1.2308-.0491-1.8168-1.8369,1.0331c-3.6074,2.0289-4.4105,1.4592-4.4782-1.0452-.0638-2.36.0942-4.484.0231-7.1115-.0679-2.5117-.8836-3.302-3.3365-2.3928l-.0043-.1592c2.4278-1.8358,3.177-3.5063,3.1091-6.018-.0648-2.3959-.3415-4.6651-.401-6.8655-.068-2.5117.6807-3.9541,4.2882-5.9831l1.8368-1.0331-.0489-1.81"/><path d="M388.1685,277.8292l-9.0187,5.0723.07,2.5913,6.0876-3.4239.5029,18.6022c.12,4.4443,2.1988,5.6267,5.8792,3.5567a18.13,18.13,0,0,0,4.5651-3.7066l-.8074-1.9781a13.5661,13.5661,0,0,1-3.2,2.6668c-2.0491,1.1524-3.4266.7515-3.5-1.9556l-.5793-21.4251"/><path d="M403.6175,285.9163a12.0917,12.0917,0,0,1,5.6779-9.0352c2.9318-1.649,4.9267-.8353,5.2858,2.869l-10.9637,6.1662m5.5372-11.4986c-4.5955,2.5846-8.6731,8.64-8.5083,14.7349.1691,6.2538,4.3722,7.5786,9.538,4.6732a22.1409,22.1409,0,0,0,6.5907-5.9774l-1.124-1.4841a17.4936,17.4936,0,0,1-5.1842,4.716c-3.569,2.0074-6.3914,1.4006-6.8537-2.6558l13.5438-7.6174a15.28,15.28,0,0,0,.0872-2.0037c-.1431-5.2911-3.1359-7.1718-8.0895-4.3857"/><path d="M438.6634,258.2914l-2.8316,1.5926-3.672,12.8378c-.6582,2.2955-1.1718,4.4655-1.7261,6.6217l-.1393.0783q-.9789-2.2161-2.06-4.4921l-4.2458-8.3845-3.0107,1.6932L428.74,282.92l3.2891-1.85,6.6347-22.7783"/><path d="M446.0581,262.0465a12.0918,12.0918,0,0,1,5.6778-9.0352c2.9257-1.6455,4.9259-.8348,5.2857,2.8691l-10.9635,6.1661m5.5372-11.4986c-4.5955,2.5846-8.6731,8.64-8.5083,14.7349.1691,6.2538,4.3721,7.5786,9.5379,4.6733a22.074,22.074,0,0,0,6.5842-5.9738l-1.1174-1.4878a17.4965,17.4965,0,0,1-5.1842,4.7161c-3.569,2.0073-6.3914,1.4005-6.8537-2.6559l13.5438-7.6174a15.2971,15.2971,0,0,0,.0872-2.0037c-.1431-5.2911-3.1359-7.1718-8.0895-4.3857"/><path d="M473.05,230.09l-9.0186,5.0723.07,2.5912,6.0875-3.4238.503,18.6022c.12,4.4442,2.1987,5.6266,5.8725,3.56a18.1418,18.1418,0,0,0,4.5718-3.71l-.8075-1.9782a13.5634,13.5634,0,0,1-3.2,2.6668c-2.0491,1.1525-3.4266.7515-3.5-1.9555L473.05,230.09"/><path d="M509.52,209.74l-2.1552,1.2121.0489,1.81,1.8038-1.0145c3.6074-2.0289,4.4436-1.4778,4.5116,1.0339.06,2.2-.0882,4.7083-.0234,7.1041.0679,2.5117.8439,3.3244,3.2967,2.4152l.0044.1592c-2.4279,1.8358-3.1373,3.484-3.0694,5.9957.0711,2.6274.3375,4.5131.4013,6.8727.0677,2.5044-.7141,3.9656-4.3216,5.9945l-1.8037,1.0144.0491,1.8169,2.1552-1.2122c4.4562-2.5063,6.474-4.8168,6.3664-8.7979-.0762-2.8156-.45-4.685-.52-7.2691-.0407-1.5055.8745-3.5119,5.0512-5.8978l-.0544-2.0122c-4.1787,2.3134-5.1734,1.3811-5.2141-.1244-.0657-2.432.189-4.9634.117-7.6271-.1075-3.9738-2.1879-3.9794-6.6441-1.4731"/><path d="M530.74,197.8046l-2.1618,1.2159.0489,1.81,1.81-1.0182c3.6075-2.0289,4.4437-1.4778,4.5116,1.0339.06,2.2-.0881,4.7083-.0233,7.1042.0679,2.5116.8439,3.3244,3.2967,2.4151l.0043.1593c-2.4278,1.8358-3.1372,3.4839-3.0693,5.9956.071,2.6274.3375,4.5131.4013,6.8727.0677,2.5044-.7142,3.9656-4.3216,5.9945l-1.81,1.0182.0491,1.8168,2.1618-1.2159c4.4563-2.5063,6.474-4.8168,6.3664-8.7979-.0762-2.8156-.45-4.685-.52-7.2691-.0407-1.5055.8745-3.5119,5.0513-5.8978l-.0545-2.0122c-4.1787,2.3135-5.1733,1.3811-5.214-.1244-.0658-2.4321.1889-4.9634.1169-7.6271-.1075-3.9738-2.1878-3.9794-6.6441-1.4731"/><polyline points="331.663 360.401 318.736 377.547 318.803 380.023 332.256 382.333 332.172 379.242 321.351 377.414 321.347 377.255 331.746 363.492 331.663 360.401"/><path d="M346.2888,356.8042c-4.7083,2.648-7.086,6.3368-7.0046,9.3479.0762,2.8156,2.3491,3.22,6.8724,1.6974,4.6966-1.5833,5.3936-.9539,5.4322.472.0428,1.5852-1.3343,3.69-4.2388,5.3233-3.1432,1.7679-5.5047,2.0746-7.5291,1.648l-1.2886,2.8852a12.9016,12.9016,0,0,0,8.5342-1.8239c4.92-2.7674,7.57-6.8444,7.4878-9.8989-.0783-2.8953-1.4993-3.6612-7.2256-1.8147-3.563,1.1809-5.0672,1.3215-5.1111-.3-.0385-1.4259.988-3.2966,3.8859-4.9265a8.765,8.765,0,0,1,5.8225-1.276l1.3571-2.8428a11.0229,11.0229,0,0,0-6.9943,1.5089"/><path d="M368.2007,336.0886l-9.0186,5.0723.07,2.5912,6.0876-3.4238.503,18.6022c.12,4.4443,2.1987,5.6267,5.8791,3.5568a18.1362,18.1362,0,0,0,4.5652-3.7066l-.8075-1.9781a13.5619,13.5619,0,0,1-3.2,2.6666c-2.0491,1.1525-3.4266.7516-3.5-1.9555l-.5793-21.4251"/><path d="M392.0974,331.5105l-10.8887,6.1241.07,2.584,7.9576-4.4756.4374,16.1774,2.931-1.6485-.5072-18.7614m-2.0041-7.8892a4.4669,4.4669,0,0,0-2.2675,3.7811c.0407,1.5055,1.055,1.92,2.4011,1.1626a4.4308,4.4308,0,0,0,2.2673-3.7883c-.0395-1.4621-1.0614-1.9088-2.4009-1.1554"/><path d="M409.8785,338.286c-3.15,1.7716-5.132.1748-5.2529-4.2984-.1159-4.2851,2.214-8.498,5.1849-10.1689a4.7712,4.7712,0,0,1,4.5479-.3608l.2525,9.3374c-1.4685,2.707-3.0348,4.5359-4.7324,5.4907m7.0626-29.61-2.9377,1.6523.1953,7.2237.232,3.3525-.0663.0373a5.5665,5.5665,0,0,0-5.23.5168c-4.065,2.2863-7.6764,8.1533-7.5114,14.2551.1691,6.2538,3.236,8.1369,7.6923,5.6306a16.8853,16.8853,0,0,0,5.5441-6.0942l.1061-.06.3121,2.33,2.4072-1.3538-.7433-27.4908"/><path d="M426.09,320.3059a12.0917,12.0917,0,0,1,5.6779-9.0352c2.9257-1.6455,4.9316-.8381,5.2922,2.8654l-10.97,6.17m5.5372-11.4986c-4.5955,2.5846-8.673,8.64-8.5083,14.7348.1691,6.2539,4.3722,7.5788,9.538,4.6734a22.1425,22.1425,0,0,0,6.5907-5.9775l-1.1239-1.4841a17.4948,17.4948,0,0,1-5.1842,4.716c-3.5691,2.0074-6.3915,1.4006-6.8538-2.6558l13.5438-7.6174a15.28,15.28,0,0,0,.0872-2.0037c-.143-5.2911-3.1359-7.1718-8.0895-4.3857"/><path d="M457.2709,294.3847c-3.183,1.79-5.8253,5.1575-7.5466,9.2192l-.0663.0373-.4051-4.2766-2.44,1.3725.5072,18.7614,2.9377-1.6522L449.961,306.88c1.9426-5.09,4.3444-7.8885,6.924-9.3394a9.0151,9.0151,0,0,1,3.2-1.1749l.6022-3.1237a7.27,7.27,0,0,0-3.416,1.1423"/><path d="M503.5768,268.8113l-2.8315,1.5925-3.6721,12.8378c-.6582,2.2955-1.1718,4.4655-1.7261,6.6217l-.1393.0783q-.9789-2.2161-2.06-4.492l-4.2458-8.3846-3.0107,1.6933,7.762,14.6811,3.2891-1.85,6.6347-22.7782"/><polyline points="523.687 262.394 508.482 270.947 508.547 273.342 523.752 264.79 523.687 262.394"/><path d="M542.47,246.4661c-1.9828,1.1152-3.0105,2.9424-3.9442,5.51-.5559-1.8844-1.6461-2.3662-3.3437-1.4114-1.9827,1.1152-3.0115,2.9062-3.8464,5.1394l-.073.0411-.3121-2.33-2.3342,1.3129.5072,18.7614,2.8979-1.63-.3675-13.5934c.7968-2.4028,1.553-3.8128,2.7533-4.4879,1.2732-.7161,1.8009.1261,1.8594,2.29l.357,13.2025,2.6857-1.51-.3675-13.5934c.87-2.4438,1.48-3.7718,2.68-4.4468,1.2732-.7162,1.8672.0888,1.9258,2.253l.3569,13.2025,2.9045-1.6336-.3632-13.434c-.1014-3.7494-1.5757-4.9925-3.9762-3.6424"/><path d="M558.8459,254.5392c-3.2891,1.85-5.5614.2254-5.6773-4.06-.1168-4.3212,2-8.451,5.289-10.3009s5.5558-.1854,5.6726,4.1358c.1159,4.285-1.9952,8.3749-5.2843,10.2248m-.46-17.0243a16.9693,16.9693,0,0,0-8.2276,14.6579c.1681,6.2176,4.2307,7.5774,8.76,5.03a16.9409,16.9409,0,0,0,8.223-14.5818c-.17-6.29-4.2327-7.65-8.7553-5.1062"/><path d="M579.6408,242.8068c-3.15,1.7716-5.1319.1748-5.2529-4.2984-.1158-4.285,2.2141-8.4979,5.1849-10.1688a4.7712,4.7712,0,0,1,4.5479-.3608l.2525,9.3374c-1.4685,2.707-3.0348,4.5358-4.7324,5.4906m7.0626-29.61-2.9377,1.6522.1953,7.2237.232,3.3526-.0662.0373a5.5664,5.5664,0,0,0-5.2305.5168c-4.065,2.2863-7.683,8.157-7.518,14.2588.1691,6.2538,3.236,8.1369,7.6989,5.6268a16.8842,16.8842,0,0,0,5.5441-6.0941l.1061-.06.3121,2.33,2.4072-1.3539-.7433-27.4907"/><path d="M595.8463,224.83a12.1072,12.1072,0,0,1,5.6842-9.0389c2.9257-1.6455,4.9259-.8348,5.2857,2.8691l-10.97,6.17m5.5435-11.5023c-4.5955,2.5847-8.673,8.64-8.5082,14.7349.1691,6.2538,4.3721,7.5788,9.5379,4.6734a22.0723,22.0723,0,0,0,6.5841-5.9738l-1.1173-1.4878a17.4948,17.4948,0,0,1-5.1842,4.716c-3.569,2.0073-6.3972,1.4038-6.86-2.6521l13.55-7.6211a16.4873,16.4873,0,0,0,.0872-2.0037c-.143-5.2912-3.1358-7.1718-8.0895-4.3858"/><path d="M622.8442,192.87l-9.0186,5.0723.07,2.5912,6.0809-3.42.503,18.6022c.12,4.4443,2.2053,5.623,5.879,3.5568a18.1426,18.1426,0,0,0,4.5719-3.71l-.8075-1.9781a13.5633,13.5633,0,0,1-3.2,2.6667c-2.0491,1.1524-3.4265.7515-3.5-1.9556l-.5793-21.4251"/><path d="M651.1209,194.9181,635.9152,203.47l.0648,2.3958,15.2057-8.5521-.0648-2.3958m-.2233-8.2587-15.2057,8.552.0646,2.3886,15.2057-8.5521-.0646-2.3885"/><path d="M660.1327,172.4122a5.1921,5.1921,0,0,0-2.5314,4.4806c.0439,1.6213,1.0964,2.2051,2.5818,1.37a4.0717,4.0717,0,0,0,.9307-.7628,13.8736,13.8736,0,0,1-3.5308,8.1773l1.0448,1.2935c3.1351-3.5635,4.9262-7.7821,4.8217-11.6473-.08-2.9677-1.44-3.9664-3.3168-2.9109m8.1366-4.5763a5.1921,5.1921,0,0,0-2.5313,4.4806c.0438,1.6213,1.0964,2.2051,2.5818,1.37a4.0738,4.0738,0,0,0,.9307-.7628,13.8742,13.8742,0,0,1-3.5308,8.1773l1.0381,1.2973c3.1418-3.5673,4.9263-7.7822,4.8218-11.6474-.08-2.9676-1.4336-3.97-3.31-2.9146"/><path d="M686.5051,157.0652l-9.0187,5.0724.07,2.5912,6.0809-3.42.503,18.6022c.12,4.4443,2.1987,5.6267,5.8791,3.5567a18.14,18.14,0,0,0,4.5718-3.71l-.8075-1.978a13.5624,13.5624,0,0,1-3.2,2.6666c-2.0491,1.1524-3.4266.7515-3.5-1.9556l-.5793-21.4251"/><path d="M701.9475,165.1561a12.0919,12.0919,0,0,1,5.6778-9.0353c2.9319-1.6489,4.9325-.8385,5.2924,2.8653l-10.97,6.17m5.5438-11.5024c-4.6021,2.5883-8.6731,8.64-8.5083,14.7349.1691,6.2538,4.3722,7.5787,9.538,4.6733a22.0732,22.0732,0,0,0,6.5841-5.9737L713.9877,165.6a17.5257,17.5257,0,0,1-5.1842,4.7161c-3.569,2.0073-6.3972,1.4038-6.86-2.6522l13.55-7.6211a16.4873,16.4873,0,0,0,.0872-2.0037c-.1431-5.2911-3.1359-7.1718-8.0895-4.3857"/><path d="M737,137.5275l-2.8315,1.5925-3.6721,12.8378c-.6582,2.2955-1.1718,4.4655-1.7261,6.6217l-.1393.0783q-.9789-2.2161-2.06-4.492l-4.2524-8.3809-3.0041,1.69,7.7554,14.6849,3.2891-1.85L737,137.5275"/><path d="M744.3881,141.2863a12.0918,12.0918,0,0,1,5.6778-9.0353c2.9319-1.6489,4.9325-.8385,5.2924,2.8654l-10.97,6.17m5.5438-11.5024c-4.6022,2.5884-8.6731,8.64-8.5083,14.7349.1691,6.2538,4.3721,7.5787,9.5313,4.6771a22.1116,22.1116,0,0,0,6.5908-5.9775l-1.1174-1.4879a17.5257,17.5257,0,0,1-5.1842,4.7161c-3.569,2.0073-6.3972,1.4038-6.86-2.6522l13.5437-7.6173a15.2379,15.2379,0,0,0,.0939-2.0075c-.1431-5.2911-3.1425-7.168-8.0895-4.3857"/><path d="M771.3862,109.3257l-9.0186,5.0723.07,2.5912,6.0809-3.42.503,18.6022c.12,4.4443,2.1987,5.6267,5.8791,3.5568a18.1794,18.1794,0,0,0,4.5718-3.71l-.8075-1.9781a13.6444,13.6444,0,0,1-3.2,2.6666c-2.0491,1.1525-3.4266.7515-3.5-1.9555l-.5793-21.4251"/><path d="M787.4544,100.8028a5.1922,5.1922,0,0,0-2.5313,4.4806c.0438,1.6214,1.0964,2.2051,2.5818,1.37a4.0708,4.0708,0,0,0,.9306-.7628,13.8739,13.8739,0,0,1-3.5307,8.1774l1.0447,1.2935c3.1351-3.5636,4.92-7.7784,4.8152-11.6437-.08-2.9676-1.4336-3.97-3.31-2.9146m8.1367-4.5762a5.2041,5.2041,0,0,0-2.538,4.4843c.0438,1.6213,1.103,2.2013,2.5884,1.3659a4.0767,4.0767,0,0,0,.9307-.7643,13.9069,13.9069,0,0,1-3.5308,8.1788l1.0382,1.2972c3.1351-3.5635,4.9262-7.7821,4.8217-11.6473-.08-2.9677-1.4335-3.97-3.31-2.9146"/><polyline points="806.076 93.578 806.159 96.668 816.98 98.497 816.984 98.656 806.585 112.419 806.669 115.509 819.595 98.363 819.528 95.888 806.076 93.578"/><polyline points="290.475 430.595 277.548 447.742 277.615 450.217 291.068 452.527 290.984 449.436 280.163 447.608 280.159 447.449 290.558 433.686 290.475 430.595"/><polyline points="311.882 414.874 309.263 416.347 298.573 456.455 301.185 454.986 311.882 414.874"/><path d="M325.5434,432.8649c-1.9828,1.1152-3.77,1.2532-3.8271-.8676-.0669-2.4755,2.1185-5.3066,9.4558-10.0653l.1315,4.8641c-1.9279,2.8921-3.8172,4.976-5.76,6.0688m1.3081-18.1a28.5122,28.5122,0,0,0-7.6061,7.0188l1.2257,1.5078a22.864,22.864,0,0,1,5.9539-5.6266c3.329-1.8723,4.5148-.3421,4.69,2.1461-8.8584,5.7685-12.4107,9.8386-12.2968,14.0512.0908,3.3585,2.7966,3.8354,6.0194,2.0228,2.4072-1.3538,4.8431-4.1347,6.676-6.8116l.106-.06.3143,2.41,2.44-1.3725-.3112-11.5087c-.1262-4.6687-2.51-6.4218-7.2113-3.7775"/><path d="M352.422,400.3837c-3.1831,1.79-5.8253,5.1575-7.5466,9.2192l-.0663.0373-.4051-4.2767-2.44,1.3726.5073,18.7614,2.9377-1.6523-.2965-10.9658c1.9426-5.09,4.3444-7.8885,6.9306-9.3431a9.07,9.07,0,0,1,3.2-1.175l.5956-3.12a7.2709,7.2709,0,0,0-3.416,1.1424"/><polyline points="376.405 392.259 361.192 400.815 361.257 403.211 376.469 394.655 376.405 392.259"/><path d="M393.35,377.835l-10.8887,6.1241.07,2.584,7.9576-4.4756.4374,16.1774,2.9311-1.6485L393.35,377.835m-2.0041-7.8892a4.4671,4.4671,0,0,0-2.2675,3.7811c.0407,1.5055,1.055,1.92,2.4012,1.1626a4.431,4.431,0,0,0,2.2673-3.7883c-.04-1.4621-1.0614-1.9088-2.401-1.1554"/><path d="M410.5545,362.0448l-2.44,1.3725-.2284,6.2423-4.9817,2.9929.0648,2.3958,4.8807-2.745.24,8.8812c.1252,4.6325,1.8411,6.8419,6.861,4.0186a25.41,25.41,0,0,0,5.3477-4.1467l-.7-1.9944a19.2905,19.2905,0,0,1-4.0819,3.1556c-3.3223,1.8685-4.3971.7094-4.4879-2.6491l-.2412-8.9175,8.4152-4.7329-.07-2.584-8.4151,4.7329-.1629-6.0222"/><path d="M427.3429,366.63a12.0916,12.0916,0,0,1,5.6778-9.0352c2.9257-1.6455,4.9316-.8381,5.2922,2.8654l-10.97,6.17m5.5371-11.4986c-4.5955,2.5847-8.673,8.64-8.5082,14.7348.1693,6.2611,4.3721,7.5788,9.5379,4.6734a22.1416,22.1416,0,0,0,6.5908-5.9775l-1.124-1.4841a17.4951,17.4951,0,0,1-5.1842,4.7161c-3.569,2.0073-6.3914,1.4-6.8538-2.6558l13.5438-7.6174a15.2805,15.2805,0,0,0,.0873-2.0038c-.1431-5.2911-3.136-7.1717-8.09-4.3857"/><path d="M458.8418,340.53c-1.9828,1.1152-3.0106,2.9424-3.9442,5.51-.5559-1.8844-1.6461-2.3662-3.3437-1.4114-1.9828,1.1152-3.0115,2.9062-3.8465,5.1394l-.0729.0411-.3121-2.33-2.3343,1.3129.5073,18.7614,2.8979-1.63-.3675-13.5933c.7967-2.4028,1.553-3.8128,2.7533-4.4879,1.2732-.7161,1.8009.1261,1.8594,2.29l.357,13.2025,2.6857-1.5106-.3676-13.5933c.87-2.4438,1.48-3.7718,2.68-4.4468,1.2733-.7161,1.8673.0888,1.9258,2.253l.357,13.2025,2.9045-1.6336-.3632-13.4341c-.1014-3.7494-1.5757-4.9924-3.9762-3.6423"/><polyline points="467.803 330.861 467.887 333.951 478.708 335.779 478.712 335.939 468.313 349.702 468.396 352.792 481.33 335.642 481.263 333.167 467.803 330.861"/></g></g><g style="isolation:isolate"><g style="clip-path:url(#clip-path-5)"><path d="M1111.7294,1283.891a6.2043,6.2043,0,0,0-2.6495,4.612l4.989-2.8069c.03-1.2361-.42-2.8849-2.34-1.8051m18.8768-10.6206a6.2178,6.2178,0,0,0-2.6494,4.612l4.9955-2.8106c.0294-1.2361-.42-2.8849-2.3461-1.8014m-32.1254,52.83c.361-5.63,4.4148-12.2034,9.3265-14.9669s8.8948-.712,9.1663,4.5624l56.8517-31.9862c.3942-.2219.7079-.0427.7043.3949a1.5351,1.5351,0,0,1-.7174,1.1948l-56.8651,31.9938c-.447,5.5826-4.4606,12.0261-9.3113,14.7551s-8.7953.7633-9.1545-4.3657L1077.974,1339.22c-.3878.2182-.7014.039-.6979-.3985a1.5333,1.5333,0,0,1,.7109-1.1912l20.4938-11.53m27.1264-51.15-3.777,12.6866-1.6351.92-3.4867-8.6,1.8289-1.029,1.7929,4.9217a19.1558,19.1558,0,0,1,.7339,2.2946l.0581-.0326c.22-.9951.5054-2.0266.8236-3.171l1.8713-6.9833,1.79-1.0071m-13.6083,18.4357c-2.8951,1.6289-4.6094.452-4.5832-2.7493a9.738,9.738,0,0,1,4.4607-8.2007c3.07-1.7271,3.8591.8557,3.843,2.81a9.1918,9.1918,0,0,1-.0655.93l-6.6046,3.716c.0174,2.5888,1.482,2.8318,3.1946,1.8683a10.7144,10.7144,0,0,0,2.6088-2.0122l.28,1.2219a13.231,13.231,0,0,1-3.1333,2.4162m18.8769-10.6206c-2.8952,1.6289-4.6031.4484-4.5768-2.753a9.7256,9.7256,0,0,1,4.4543-8.197c3.07-1.7271,3.859.8558,3.8429,2.81a9.1975,9.1975,0,0,1-.0654.93l-6.6047,3.716c.0174,2.5889,1.4885,2.8282,3.1946,1.8683a10.6368,10.6368,0,0,0,2.6088-2.0122l.28,1.222a13.1509,13.1509,0,0,1-3.1332,2.4161m14.925-20.5558-.4409-1.1456a11.4683,11.4683,0,0,1,3.3178-2.9555c2.4815-1.3962,3.5989-.37,3.5847,1.3658a6.9082,6.9082,0,0,1-2.3605,4.6671l0,.0438c1.5481-.5226,2.804.0774,2.7876,2.0755-.0186,2.2753-1.6118,5.16-4.6427,6.8658a5.543,5.543,0,0,1-3.275.8772l.4775-1.75a4.8291,4.8291,0,0,0,2.7909-.6774,5.2386,5.2386,0,0,0,2.8791-4.3709c-.0032-1.98-1.5859-1.9387-3.24-1.0079l-.95.5345.0119-1.4512.95-.5345c1.2473-.7018,2.8235-2.3072,2.8373-3.9918.0094-1.1449-.6221-1.7913-2.1989-.9041a9.0486,9.0486,0,0,0-2.5281,2.3587M1099.218,1300.36l.1211-14.7745,1.6867-.949-.108,13.17,5.5966-3.1488-.0132,1.6044-7.2832,4.0977m37.45-21.07.1277-15.5694,1.706-.96-.1276,15.5694-1.7061.96m43.1-62.8586-106.4884,59.9132c-7.671,4.3158-13.9714,14.8727-14.0424,23.5288l-.5311,64.7936c-.071,8.6562,6.114,12.1884,13.7849,7.8725l106.4884-59.9132c7.671-4.3159,13.9715-14.8727,14.0424-23.5289l.5312-64.7936c.0709-8.6561-6.114-12.1883-13.785-7.8724" style="fill:#f2f2f2"/><path d="M1072.49,1372.5387c-7.6709,4.3159-13.8559.7837-13.7849-7.8725l.5311-64.7936c.071-8.6561,6.3714-19.213,14.0424-23.5288l106.4884-59.9132c7.671-4.3159,13.8559-.7837,13.785,7.8724l-.5312,64.7936c-.0709,8.6562-6.3714,19.213-14.0424,23.5289L1072.49,1372.5387m107.2786-156.3123L1073.2806,1276.14c-7.7678,4.37-14.1466,15.0657-14.2185,23.8312l-.5312,64.7936c-.0718,8.7655,6.19,12.3416,13.9579,7.9712l106.4884-59.9132c7.7678-4.37,14.1466-15.0584,14.2185-23.8239l.5311-64.7936c.0719-8.7655-6.19-12.3489-13.9578-7.9785" style="fill:#e6e6e6"/><path d="M1116.9471,1317.2931l-18.4658,10.3894c.3592,5.129,4.304,7.0948,9.1545,4.3657s8.8643-9.1725,9.3113-14.7551m-9.14-6.16c-4.9117,2.7635-8.9655,9.3367-9.3265,14.9669l18.4928-10.4045c-.2715-5.2744-4.2545-7.3259-9.1663-4.5624" style="fill:#666"/><path d="M1173.8253,1283.71l-56.8517,31.9862L1098.4808,1326.1l-20.4938,11.53a1.5333,1.5333,0,0,0-.7109,1.1912c-.0035.4375.31.6167.6979.3985l20.5073-11.5379,18.4658-10.3894,56.8651-31.9938a1.5351,1.5351,0,0,0,.7174-1.1948c.0036-.4376-.31-.6168-.7043-.3949" style="fill:#666"/><polyline points="1101.026 1284.636 1099.339 1285.585 1099.218 1300.36 1106.501 1296.262 1106.514 1294.657 1100.918 1297.806 1101.026 1284.636"/><path d="M1109.08,1288.503a6.2043,6.2043,0,0,1,2.6495-4.612c1.9194-1.08,2.369.569,2.34,1.8051l-4.989,2.8069m2.7965-6.0666a9.738,9.738,0,0,0-4.4607,8.2007c-.0262,3.2013,1.6881,4.3782,4.5832,2.7493a13.231,13.231,0,0,0,3.1333-2.4162l-.28-1.2219a10.7144,10.7144,0,0,1-2.6088,2.0122c-1.7126.9635-3.1772.72-3.1946-1.8683l6.6046-3.716a9.1918,9.1918,0,0,0,.0655-.93c.0161-1.9544-.7733-4.5372-3.843-2.81"/><path d="M1125.6072,1274.9507l-1.79,1.0071-1.8713,6.9833c-.3182,1.1444-.6032,2.1759-.8236,3.171l-.0581.0326a19.1558,19.1558,0,0,0-.7339-2.2946l-1.7929-4.9217-1.8289,1.029,3.4867,8.6,1.6351-.92,3.777-12.6866"/><path d="M1127.9568,1277.8824a6.2178,6.2178,0,0,1,2.6494-4.612c1.9258-1.0835,2.3755.5653,2.3461,1.8014l-4.9955,2.8106m2.7965-6.0666a9.7256,9.7256,0,0,0-4.4543,8.197c-.0263,3.2014,1.6816,4.3819,4.5768,2.753a13.1509,13.1509,0,0,0,3.1332-2.4161l-.28-1.222a10.6368,10.6368,0,0,1-2.6088,2.0122c-1.7061.96-3.1772.7206-3.1946-1.8683l6.6047-3.716a9.1975,9.1975,0,0,0,.0654-.93c.0161-1.9543-.7732-4.5372-3.8429-2.81"/><polyline points="1138.502 1262.76 1136.796 1263.72 1136.668 1279.289 1138.374 1278.329 1138.502 1262.76"/><path d="M1148.6777,1258.1089a11.4683,11.4683,0,0,0-3.3178,2.9555l.4409,1.1456a9.0486,9.0486,0,0,1,2.5281-2.3587c1.5768-.8872,2.2083-.2408,2.1989.9041-.0138,1.6846-1.59,3.29-2.8373,3.9918l-.95.5345-.0119,1.4512.95-.5345c1.6544-.9308,3.2371-.972,3.24,1.0079a5.2386,5.2386,0,0,1-2.8791,4.3709,4.8291,4.8291,0,0,1-2.7909.6774l-.4775,1.75a5.543,5.543,0,0,0,3.275-.8772c3.0309-1.7053,4.6241-4.5905,4.6427-6.8658.0164-1.9981-1.24-2.5981-2.7876-2.0755l0-.0438a6.9082,6.9082,0,0,0,2.3605-4.6671c.0142-1.7356-1.1032-2.762-3.5847-1.3658"/></g></g><line x1="686" y1="945" x2="686" y2="945" style="fill:none;stroke:#000;stroke-linecap:round;stroke-linejoin:round;stroke-width:3px"/><line x1="685.9942" y1="939.0127" x2="685.6212" y2="552.8297" style="fill:none;stroke:#000;stroke-linecap:round;stroke-linejoin:round;stroke-width:3px;stroke-dasharray:0,5.987335205078125"/><line x1="685.6183" y1="549.8361" x2="685.6183" y2="549.8361" style="fill:none;stroke:#000;stroke-linecap:round;stroke-linejoin:round;stroke-width:3px"/><line x1="680.4947" y1="546.8688" x2="662.5618" y2="536.4836" style="fill:none;stroke:#000;stroke-linecap:round;stroke-linejoin:round;stroke-width:3px;stroke-dasharray:0,5.920835971832275"/><line x1="660" y1="535" x2="660" y2="535" style="fill:none;stroke:#000;stroke-linecap:round;stroke-linejoin:round;stroke-width:3px"/><g style="isolation:isolate"><g style="clip-path:url(#clip-path-6)"><path d="M461.8494,1551.6443l-12.6725,7.1273-13.9315,65.6371c-2.9079,14.2083-5.1405,25.7516-8.3445,39.9649l-.59.3319c-3.8717-10.2337-6.5-19.0432-10.2233-29.5219l-17.0169-48.2307-13.2627,7.4593,33.8013,88.1051,14.443-8.1232,27.7973-122.75"/><path d="M543.345,1533.5633l-12.2348,6.8812,1.4657,54.2069c-7.6837,14.6091-13.6117,22.19-21.8611,26.83-11.7905,6.6313-16.6968,2.2041-17.0925-12.4316l-1.2657-46.8094-12.2348,6.8812,1.3134,48.5756c.5568,20.5927,8.6642,27.1361,25.614,17.6031,11.0477-6.2136,19.2757-17.3739,26.2493-30.6063l.59-.3319,1.3976,13.0949,10.1725-5.7213-2.1137-78.1726"/><path d="M580.629,1545.58c1.8276-16.6838,11.9351-31.0428,23.6565-37.6352,12.2105-6.8676,20.5442-3.4853,22.0408,11.9338L580.629,1545.58m23.0821-47.9231c-19.1579,10.775-36.1345,35.997-35.4474,61.41.7046,26.0576,18.209,31.5631,39.7277,19.46,11.4921-6.4635,20.517-15.7866,27.4468-24.9088l-4.6513-6.2019c-6.3637,8.15-13.0626,14.8567-21.61,19.6642-14.872,8.3644-26.6394,5.86-28.5655-11.0417l56.4312-31.7385a65.8936,65.8936,0,0,0,.3728-8.3736c-.5958-22.0331-13.0738-29.8733-33.7039-18.27"/><path d="M723.5619,1404.45l-13.1168,7.3772-12.5364,34.32c-2.2238,6.1447-4.0228,11.5655-6.5057,19.3329l-.59.3319c-3.2665-4.5338-5.5922-7.6347-8.2292-11.0456l-14.2807-19.2375-13.707,7.7092,28.3483,35.8174-27.4119,70.7718,13.1168-7.3773,13.6777-36.4318c2.3631-6.7154,4.72-13.4271,7.3508-21.4395l.5835-.3282c3.4167,4.6109,6.2127,8.4247,9.0087,12.2384l15.2085,20.1855,13.8528-7.7913-30.3429-37.6348,25.5737-66.7986"/><path d="M761.7581,1433.7511l-1.0568-39.0863,15.9086-8.9475c15.0333-8.4551,23.4241-8.1114,23.7981,5.7208.3652,13.5065-7.708,24.91-22.7413,33.3655l-15.9086,8.9475m16.3267-59.9665-30.2058,16.9885,2.8528,105.5114,12.5266-7.0454-1.2046-44.5511,17.1043-9.62L803.63,1466.533l13.9988-7.8733-25.7759-32.2591c12.9816-10.8839,21.3725-25.5251,20.9292-41.922-.596-22.04-15.0951-21.7189-34.6973-10.694"/><path d="M404.0507,1771.3933a9.8246,9.8246,0,0,1-8.4.8006l-.4522-16.7274c3.01-5.2054,6.1319-8.5045,8.8574-10.0373,6.1406-3.4537,8.8065.0291,9.0065,7.4265.2243,8.295-3.693,15.5465-9.0113,18.5376m-9.5178-40.5295-5.2587,2.9576,1.33,49.2053,4.1778-2.35.41-4.0148.1857-.1044a11.3437,11.3437,0,0,0,9.6857-.8181c7.2812-4.0952,13.6849-14.5013,13.3745-25.9811-.28-10.3651-4.9575-14.539-13.2467-9.8769-3.6141,2.0326-7.4857,6.2456-10.1867,10.9245l-.1856.1044.0762-6.6416-.3624-13.4052"/><path d="M456.7527,1711.7272l-5.0664,2.85-6.15,22.2634c-.9258,3.6069-2.0374,7.8107-3.0257,11.5925l-.252.1417c-1.3545-2.5376-2.7827-5.3129-4.0632-7.6055l-7.9743-14.3192-5.3184,2.9911,15.22,25.6091-.8215,2.9825c-1.4064,5.0016-3.9188,9.4348-8.2292,11.859a10.731,10.731,0,0,1-2.7983,1.0815l-.951,5.1643a13.8517,13.8517,0,0,0,4.0706-1.5839c7.0292-3.9535,10.6262-11.0983,12.7279-19.0187l12.6314-44.0073"/><polyline points="532.854 1656.992 500.056 1675.439 500.188 1680.346 513.929 1672.618 515.022 1713.051 520.34 1710.06 519.247 1669.627 532.987 1661.899 532.854 1656.992"/><path d="M545.8388,1675.79c.7858-7.1666,5.13-13.3347,10.1647-16.1662,5.2465-2.9507,8.8265-1.5008,9.47,5.1229L545.8388,1675.79m9.9172-20.59c-8.2295,4.6285-15.5236,15.4693-15.2285,26.3845.3028,11.1975,7.8261,13.5649,17.07,8.3658a39.5258,39.5258,0,0,0,11.7949-10.7047l-2.0042-2.6645a31.2572,31.2572,0,0,1-9.2839,8.4548c-6.3888,3.5932-11.4458,2.5109-12.2735-4.7514l24.2509-13.6395a28.2683,28.2683,0,0,0,.1587-3.5943c-.256-9.4676-5.6184-12.8373-14.4845-7.8507"/><path d="M595.9618,1632.587c-9.3038,5.2327-16.9815,16.0762-16.677,27.3388.301,11.1323,7.69,13.502,17.3118,8.09a35.8309,35.8309,0,0,0,12.0794-12.1287l-2.4418-2.4183c-2.47,3.7771-5.5822,7.4236-9.382,9.5607-7.0292,3.9534-11.9819,1.5438-12.1894-6.1287-.2092-7.7377,4.5247-15.6615,11.62-19.6523a9.6652,9.6652,0,0,1,8.5245-.9366l2.4939-5.1208c-2.6061-1.2679-6.3331-1.42-11.34,1.3956"/><path d="M622.4719,1602.6644l-5.2586,2.9576,1.33,49.2053,5.2586-2.9576-.6335-23.43c3.4394-6.0054,5.852-9.3978,9.5258-11.464,5-2.8122,7.11-.9785,7.2817,5.3838l.5437,20.1078,5.252-2.9539-.5644-20.875c-.2392-8.8451-3.7217-11.6555-11.0029-7.56-4.748,2.67-8.2789,7.53-11.2814,13.01l-.1924.1082.1035-8.1266-.3625-13.4052"/><path d="M672.1957,1589.7109c-4.8144,2.7077-8.279,7.5295-11.4092,13.0156l-.2586.1455-.5909-5.4214-4.31,2.4243.908,33.5853,5.2587-2.9577-.6335-23.43c3.4394-6.0054,5.852-9.3978,9.5258-11.464,5-2.8122,7.11-.9785,7.2816,5.3839l.5437,20.1077,5.252-2.9539-.5644-20.875c-.2392-8.845-3.7216-11.6555-11.0028-7.56"/><path d="M707.5293,1600.7819c-5.8886,3.3119-9.9528.4025-10.16-7.27-.2092-7.7377,3.5764-15.1282,9.465-18.44s9.9546-.3374,10.1638,7.4c.2074,7.6725-3.58,14.9978-9.4686,18.31m-.8241-30.48a30.3716,30.3716,0,0,0-14.7207,26.2385c.301,11.1324,7.57,13.5692,15.6738,9.0115s15.0186-14.9721,14.7176-26.1045c-.3045-11.2626-7.5672-13.7031-15.6707-9.1455"/><polyline points="737.201 1538.138 731.949 1541.092 733.279 1590.297 738.531 1587.343 738.285 1578.223 745.302 1566.402 757.152 1576.87 762.974 1573.595 748.511 1560.998 760.422 1540.935 754.407 1544.318 738.351 1571.234 738.099 1571.376 737.201 1538.138"/><path d="M791.6129,1522.5473c-5.703,3.2075-10.4211,9.2266-13.5028,16.5078l-.126.0709-.7255-7.66-4.37,2.4578.9081,33.5853,5.2586-2.9576-.5308-19.63c3.4832-9.1163,7.7842-14.1292,12.4062-16.7288a16.234,16.234,0,0,1,5.7263-2.0963l1.0742-5.5863a13.0291,13.0291,0,0,0-6.1183,2.0376"/><path d="M819.4767,1537.9591c-3.5478,1.9954-6.752,2.2544-6.8548-1.5457-.12-4.4225,3.7892-9.5014,16.9291-18.0159l.2354,8.7075c-3.455,5.1765-6.8283,8.8961-10.31,10.8541m2.3353-32.3966c-5.378,3.0247-10.4993,8.5725-13.6094,12.5629l2.1936,2.6976c2.7992-3.5363,6.6688-7.8216,10.6609-10.0669,5.9483-3.3455,8.0821-.6143,8.3911,3.8413-15.8513,10.3188-22.2112,17.614-22.0075,25.1489.1627,6.015,5.006,6.87,10.7687,3.6285,4.3037-2.4206,8.6727-7.4056,11.95-12.1954l.1857-.1044.5676,4.31,4.37-2.4579-.5568-20.5926c-.2263-8.3674-4.4919-11.5089-12.9137-6.7722"/><path d="M857.697,1475.2759l-4.37,2.4578-.4047,11.1765-8.9166,5.36.1159,4.285,8.74-4.9157.43,15.8951c.2243,8.2949,3.2869,12.26,12.279,7.2026a45.6228,45.6228,0,0,0,9.5679-7.4167l-1.2548-3.5783a34.1271,34.1271,0,0,1-7.3,5.6487c-5.9549,3.3492-7.8758,1.2771-8.0385-4.7378l-.4317-15.9675,15.0731-8.4775-.1251-4.6252-15.073,8.4775-.2916-10.7849"/></g></g></g></svg>