<?xml version="1.0" encoding="UTF-8" standalone="no"?>
<svg
   xmlns:dc="http://purl.org/dc/elements/1.1/"
   xmlns:cc="http://creativecommons.org/ns#"
   xmlns:rdf="http://www.w3.org/1999/02/22-rdf-syntax-ns#"
   xmlns:svg="http://www.w3.org/2000/svg"
   xmlns="http://www.w3.org/2000/svg"
   xmlns:xlink="http://www.w3.org/1999/xlink"
   id="svg8"
   version="1.1"
   viewBox="0 0 190.27162 199.76938"
   height="199.76938mm"
   width="190.27162mm">
  <defs
     id="defs2">
    <linearGradient
       id="linear-gradient"
       x1="374.8812"
       y1="1153.5903"
       x2="686.35248"
       y2="647.00427"
       gradientUnits="userSpaceOnUse">
      <stop
         offset="0.191"
         stop-color="#f2f2f2"
         id="stop10" />
      <stop
         offset="0.2747"
         stop-color="#b3b3b3"
         id="stop12" />
      <stop
         offset="0.4359"
         stop-color="#b9b9b9"
         id="stop14" />
      <stop
         offset="0.6531"
         stop-color="#cacaca"
         id="stop16" />
      <stop
         offset="0.8994"
         stop-color="#e6e6e6"
         id="stop18" />
    </linearGradient>
    <clipPath
       id="clip-path">
      <polygon
         points="634.078,976.729 738.124,909.416 737.161,1024.128 633.115,1091.441 "
         style="fill:none"
         id="polygon21" />
    </clipPath>
    <linearGradient
       id="linear-gradient-2"
       x1="271.61389"
       y1="960.6651"
       x2="1032.3094"
       y2="1297.4104"
       gradientUnits="userSpaceOnUse">
      <stop
         offset="0"
         stop-color="#fff"
         stop-opacity="0"
         id="stop24" />
      <stop
         offset="1"
         stop-color="#009245"
         stop-opacity="0.3"
         id="stop26" />
    </linearGradient>
    <linearGradient
       id="linear-gradient-3"
       x1="109.6139"
       y1="898.6651"
       x2="870.30951"
       y2="1235.4104"
       gradientUnits="userSpaceOnUse">
      <stop
         offset="0"
         stop-color="#fff"
         stop-opacity="0"
         id="stop29" />
      <stop
         offset="1"
         stop-color="#1b1464"
         stop-opacity="0.32"
         id="stop31" />
    </linearGradient>
    <mask
       id="mask"
       x="1031.0804"
       y="1130.4894"
       width="179.0166"
       height="454.051"
       maskUnits="userSpaceOnUse">
      <path
         d="m 1205.3091,1131.0328 -155.525,98.4363 a 3.5943,3.5943 0 0 0 -1.6865,2.997 v 349.0959 a 2.9132,2.9132 0 0 0 3.2238,2.9665 3.4736,3.4736 0 0 0 1.6322,-0.5736 l 155.525,-103.3408 a 3.5865,3.5865 0 0 0 1.6183,-2.9593 v -344.1915 a 2.92,2.92 0 0 0 -3.23,-2.962 3.44,3.44 0 0 0 -1.5578,0.5315 z"
         style="fill:#ffffff"
         id="path34" />
    </mask>
    <linearGradient
       id="linear-gradient-4"
       x1="1088.0487"
       y1="1483.2458"
       x2="1179.0868"
       y2="1335.1788"
       xlink:href="#linear-gradient" />
    <clipPath
       id="clip-path-2">
      <polygon
         points="1051.579,1239.262 1202.138,1144.89 1202.56,1164.921 1052.001,1259.293 "
         style="fill:none"
         id="polygon38" />
    </clipPath>
    <clipPath
       id="clip-path-3">
      <polygon
         points="1163.082,1433.313 1194.398,1413.053 1194.108,1447.579 1162.792,1467.839 "
         style="fill:none"
         id="polygon41" />
    </clipPath>
    <clipPath
       id="clip-path-4">
      <polygon
         points="267.753,298.371 816.656,-10.348 830.453,499.924 281.55,808.643 "
         style="fill:none"
         id="polygon44" />
    </clipPath>
    <clipPath
       id="clip-path-5">
      <polygon
         points="1059.192,1284.066 1193.857,1208.3 1193.065,1304.896 1058.401,1380.662 "
         style="fill:none"
         id="polygon47" />
    </clipPath>
    <clipPath
       id="clip-path-6">
      <polygon
         points="385.509,1594.58 870.075,1322.047 875.561,1524.941 390.995,1797.474 "
         style="fill:none"
         id="polygon50" />
    </clipPath>
    <linearGradient
       gradientTransform="translate(-170.20897)"
       y2="647.00427"
       x2="686.35248"
       y1="1153.5903"
       x1="374.8812"
       gradientUnits="userSpaceOnUse"
       id="linearGradient689"
       xlink:href="#linear-gradient" />
  </defs>
  <metadata
     id="metadata5">
    <rdf:RDF>
      <cc:Work
         rdf:about="">
        <dc:format>image/svg+xml</dc:format>
        <dc:type
           rdf:resource="http://purl.org/dc/dcmitype/StillImage" />
        <dc:title></dc:title>
      </cc:Work>
    </rdf:RDF>
  </metadata>
  <g
     transform="translate(-9.3158529,0.89754942)"
     id="layer1">
    <g
       transform="matrix(0.13661118,0,0,0.13661118,30.96629,19.228123)"
       id="Layer_2"
       data-name="Layer 2">
      <path
         d="M 9.7910251,1181 V 923 c 0,0 -2,-33 28.9999999,-50 31,-17 314.000005,-178 323.000005,-184 9,-6 14,-6 30,5 16,11 198,116 198,116 0,0 6,3 6,12 v 260 l -353,233 z"
         style="opacity:0.4;fill:url(#linearGradient689)"
         id="path57" />
      <path
         d="m 595.79103,828 v 262 l -353,225 v -266 c 0,-14 6,-26 24,-36 18,-10 301,-178 323,-191 3.85,-2.2751 6,-4 6,6 z"
         style="fill:#b3b3b3"
         id="path59" />
      <polygon
         transform="translate(-170.20897)"
         points="180,1181 180,1143 413,1279 766,1055 766,1090 413,1315 "
         style="opacity:0.6"
         id="polygon61" />
      <path
         d="m 42.860325,1160.3022 c 0,0 -0.0693,-196.3022 -0.0693,-219.3022 0,-23 15,-43 32,-53 11.9744,-7.0437 325.000005,-186 325.000005,-186"
         style="opacity:0.4;fill:none;stroke:#001e00;stroke-width:4px;stroke-linecap:round;stroke-linejoin:round"
         id="path63" />
      <path
         d="m 123.79103,1070 c 0,0 -0.0693,-64.3022 -0.0693,-87.3022 0,-23 15,-43 32,-53"
         style="opacity:0.4;fill:none;stroke:#001e00;stroke-width:4px;stroke-linecap:round;stroke-linejoin:round"
         id="path65" />
      <path
         d="m 201.79103,1253 c 0,0 -0.0693,-196.3022 -0.0693,-219.3022 0,-23 15,-43 32,-53 11.9744,-7.0438 325,-186 325,-186"
         style="opacity:0.4;fill:none;stroke:#001e00;stroke-width:4px;stroke-linecap:round;stroke-linejoin:round"
         id="path67" />
      <polygon
         transform="translate(-170.20897)"
         points="309,886.062 549.512,750.562 579,768.5 338.488,904 "
         style="fill:#999999"
         id="polygon69" />
      <polygon
         transform="translate(-170.20897)"
         points="549.512,785 579,768.5 549.512,750.562 "
         style="fill:#b3b3b3"
         id="polygon71" />
      <polygon
         transform="translate(-170.20897)"
         points="367.488,921.062 608,785.562 637.488,803.5 396.975,939 "
         style="fill:#999999"
         id="polygon73" />
      <polygon
         transform="translate(-170.20897)"
         points="608,820 637.488,803.5 608,785.562 "
         style="fill:#b3b3b3"
         id="polygon75" />
      <path
         d="m 126.79103,1175 -37.000005,-67 17.717805,-9.6474 c 12.0012,-6.25 29.6915,3.9724 39.5123,22.8314 9.8208,18.859 8.0534,39.2137 -3.9479,45.4634 z"
         style="fill:#cccccc"
         id="path77" />
      <ellipse
         cx="-431.18396"
         cy="1062.4635"
         rx="24.5"
         ry="38.5"
         transform="rotate(-27.5083)"
         style="fill:#808080;stroke:#f2f2f2;stroke-miterlimit:10"
         id="ellipse79" />
      <polygon
         transform="translate(-170.20897)"
         points="262.602,1038.454 316,1049 315.972,1054.097 300.694,1062.5 262.5,1043.403 "
         style="fill:#999999"
         id="polygon81" />
      <path
         d="m 108.33273,1030 c 0.7639,0 37.43,19.0972 37.43,19.0972 l -15.2773,8.4028 -38.194405,-19.0972 z"
         style="fill:#808080"
         id="path83" />
      <g
         transform="translate(-170.20897)"
         style="isolation:isolate"
         id="g121">
        <g
           clip-path="url(#clip-path)"
           id="g119">
          <path
             d="m 703.1209,970.091 0.16,-19.1221 17.3378,-11.2167 -0.16,19.1221 -0.16,19.1152 -0.16,19.1221 -0.16,19.1152 -17.3387,11.2168 0.16,-19.1152 -0.16,19.1152 -17.3442,11.2208 0.16,-19.1152 -0.16,19.1152 -17.3378,11.2168 0.16,-19.1152 -0.16,19.1152 -17.3442,11.2208 0.16,-19.1152 0.16,-19.1222 0.16,-19.1152 0.16,-19.1221 17.3441,-11.2208 -0.16,19.1221 0.16,-19.1221 17.3392,-11.2165 -0.16,19.1222 0.16,-19.1222 17.3442,-11.2208 -0.16,19.1221 m 35.0027,-60.6748 -104.0465,67.3124 -0.9622,114.712 104.0461,-67.3127 0.9622,-114.712"
             id="path85" />
          <polyline
             points="668.599 973.406 651.255 984.627 651.095 1003.749 668.439 992.529 668.599 973.406"
             id="polyline87" />
          <polyline
             points="685.937 962.19 668.599 973.406 668.439 992.529 685.777 981.312 685.937 962.19"
             id="polyline89" />
          <polyline
             points="703.281 950.969 685.937 962.19 685.777 981.312 703.121 970.091 703.281 950.969"
             style="fill:#ffffff"
             id="polyline91" />
          <polyline
             points="720.619 939.752 703.281 950.969 703.121 970.091 720.459 958.874 720.619 939.752"
             style="fill:#ffffff"
             id="polyline93" />
          <polyline
             points="668.439 992.529 651.095 1003.749 650.934 1022.865 668.278 1011.644 668.439 992.529"
             id="polyline95" />
          <polyline
             points="685.777 981.312 668.439 992.529 668.278 1011.644 685.616 1000.427 685.777 981.312"
             id="polyline97" />
          <polyline
             points="703.121 970.091 685.777 981.312 685.616 1000.427 702.961 989.206 703.121 970.091"
             style="fill:#ffffff"
             id="polyline99" />
          <polyline
             points="720.459 958.874 703.121 970.091 702.961 989.206 720.298 977.99 720.459 958.874"
             id="polyline101" />
          <polyline
             points="668.278 1011.644 650.934 1022.865 650.774 1041.987 668.118 1030.766 668.278 1011.644"
             style="fill:#ffffff"
             id="polyline103" />
          <polyline
             points="685.616 1000.427 668.278 1011.644 668.118 1030.766 685.456 1019.549 685.616 1000.427"
             id="polyline105" />
          <polyline
             points="702.961 989.206 685.616 1000.427 685.456 1019.549 702.8 1008.328 702.961 989.206"
             id="polyline107" />
          <polyline
             points="720.298 977.99 702.961 989.206 702.8 1008.328 720.138 997.112 720.298 977.99"
             id="polyline109" />
          <polyline
             points="668.118 1030.766 650.774 1041.987 650.614 1061.102 667.958 1049.881 668.118 1030.766"
             style="fill:#ffffff"
             id="polyline111" />
          <polyline
             points="685.456 1019.549 668.118 1030.766 667.958 1049.881 685.296 1038.664 685.456 1019.549"
             style="fill:#ffffff"
             id="polyline113" />
          <polyline
             points="702.8 1008.328 685.456 1019.549 685.296 1038.664 702.64 1027.444 702.8 1008.328"
             id="polyline115" />
          <polyline
             points="720.138 997.112 702.8 1008.328 702.64 1027.444 719.978 1016.227 720.138 997.112"
             id="polyline117" />
        </g>
      </g>
      <polygon
         transform="translate(-176.33247,-436.34037)"
         points="567,338 1048,1197 -20,1585 "
         style="fill:url(#linear-gradient-2)"
         id="polygon123" />
      <polygon
         transform="translate(-146.69115,-423.32083)"
         points="-182,1523 405,276 886,1135 "
         style="fill:url(#linear-gradient-3)"
         id="polygon125" />
      <path
         d="m 995.48153,559.76963 -162.0706,102.5816 c -17.5291,11.0935 -28.4346,30.42 -28.4346,50.39 v 545.37997 a 19.45,19.45 0 0 0 21.5661,19.6872 23.2311,23.2311 0 0 0 10.782,-3.8322 l 167.52627,-111.3146 c 16.6281,-11.0463 26.8756,-29.6834 26.8766,-48.8823 V 578.11683 a 22.1,22.1 0 0 0 -24.5093,-22.3621 26.3267,26.3267 0 0 0 -11.73447,4.0183 z"
         style="fill:#696969"
         id="path127" />
      <path
         d="m 1022.6276,559.78963 32.5161,19.8674 -30.0155,8.4117 z m -173.24267,735.56997 -32.5174,-19.8671 30.0144,-8.4116 z"
         style="fill:#696969;fill-rule:evenodd"
         id="path129" />
      <path
         d="m 1027.8563,579.49083 -162.07057,102.5816 c -17.53,11.0976 -28.4346,30.42 -28.4346,50.39 v 545.37997 a 19.4487,19.4487 0 0 0 21.565,19.6872 23.2321,23.2321 0 0 0 10.7832,-3.8323 l 167.52617,-111.3107 c 16.631,-11.05 26.8766,-29.6873 26.8766,-48.8861 V 597.83843 a 22.0964,22.0964 0 0 0 -24.51,-22.362 26.2874,26.2874 0 0 0 -11.7335,4.0182 z"
         style="fill:#848a88"
         id="path131" />
      <path
         d="m 1028.9767,694.69243 -155.52497,98.4363 a 3.5943,3.5943 0 0 0 -1.6865,2.997 v 349.09587 a 2.9132,2.9132 0 0 0 3.2238,2.9665 3.4736,3.4736 0 0 0 1.6322,-0.5736 l 155.52497,-103.3408 a 3.5865,3.5865 0 0 0 1.6183,-2.9593 V 697.12293 a 2.92,2.92 0 0 0 -3.23,-2.962 3.44,3.44 0 0 0 -1.5578,0.5315 z"
         style="fill:#ffffff"
         id="path133" />
      <ellipse
         cx="-486.00568"
         cy="1427.7563"
         rx="45.0098"
         ry="25.8074"
         transform="rotate(-57.9874)"
         style="fill:#6e7a77"
         id="ellipse135" />
      <path
         d="m 982.41823,686.31303 c 7.3606,-4.509 13.17,-14.6918 12.9754,-22.7368 -0.1946,-8.0411 -6.3192,-10.904 -13.6789,-6.3911 l -58.288,38.3951 c -7.36,4.5089 -13.1671,14.6876 -12.9734,22.7288 0.1946,8.045 6.3192,10.9079 13.6788,6.395"
         style="fill:#6e7a77"
         id="path137" />
      <path
         d="m 1028.9767,694.69243 -155.52497,98.4363 a 3.5943,3.5943 0 0 0 -1.6865,2.997 v 349.09587 a 2.9132,2.9132 0 0 0 3.2238,2.9665 3.4736,3.4736 0 0 0 1.6322,-0.5736 l 155.52497,-103.3408 a 3.5865,3.5865 0 0 0 1.6183,-2.9593 V 697.12293 a 2.92,2.92 0 0 0 -3.23,-2.962 3.44,3.44 0 0 0 -1.5578,0.5315 z"
         style="fill:#ffffff"
         id="path139" />
      <g
         transform="translate(-176.33247,-436.34037)"
         mask="url(#mask)"
         id="g169">
        <path
           d="m 1031.088,1491.2572 v -75.4093 a 16.3972,16.3972 0 0 1 8.4762,-14.6142 c 9.0608,-4.9688 91.7772,-52.0266 94.4078,-53.78 2.6306,-1.7534 4.092,-1.7537 8.7685,1.4615 4.6765,3.2152 57.8723,33.9049 57.8723,33.9049 a 3.7993,3.7993 0 0 1 1.7537,3.5074 v 75.9939 l -103.1765,68.1019 z"
           style="opacity:0.4;fill:url(#linear-gradient-4)"
           id="path141" />
        <path
           d="m 1202.3665,1388.0809 v 76.5784 l -103.1763,65.764 v -77.7476 c 0,-4.092 1.7537,-7.5994 7.0148,-10.5222 5.2611,-2.9228 87.9775,-52.0266 94.4078,-55.8263 1.1253,-0.665 1.7537,-1.1691 1.7537,1.7537 z"
           style="fill:#b3b3b3"
           id="path143" />
        <polygon
           points="1202.366,1454.429 1202.366,1464.659 1099.19,1530.423 1031.088,1491.257 1031.088,1480.15 1099.19,1519.901 "
           style="opacity:0.6"
           id="polygon145" />
        <path
           d="m 1040.7536,1485.2076 c 0,0 -0.02,-57.376 -0.02,-64.0986 0,-6.7226 4.3842,-12.5682 9.3531,-15.491 3.5,-2.0588 94.9923,-54.3649 94.9923,-54.3649"
           style="opacity:0.4;fill:none;stroke:#001e00;stroke-width:1.16914px;stroke-linecap:round;stroke-linejoin:round"
           id="path147" />
        <path
           d="m 1064.4084,1458.8137 c 0,0 -0.02,-18.7946 -0.02,-25.5171 0,-6.7225 4.3843,-12.5682 9.3531,-15.491"
           style="opacity:0.4;fill:none;stroke:#001e00;stroke-width:1.16914px;stroke-linecap:round;stroke-linejoin:round"
           id="path149" />
        <path
           d="m 1087.2065,1512.3017 c 0,0 -0.02,-57.3761 -0.02,-64.0986 0,-6.7225 4.3843,-12.5682 9.3531,-15.4911 3.5,-2.0587 94.9923,-54.3648 94.9923,-54.3648"
           style="opacity:0.4;fill:none;stroke:#001e00;stroke-width:1.16914px;stroke-linecap:round;stroke-linejoin:round"
           id="path151" />
        <polygon
           points="1077.411,1410.295 1068.793,1405.052 1139.091,1365.447 1147.709,1370.69 "
           style="fill:#999999"
           id="polygon153" />
        <polygon
           points="1139.091,1375.513 1147.709,1370.69 1139.091,1365.447 "
           style="fill:#b3b3b3"
           id="polygon155" />
        <polygon
           points="1094.506,1420.524 1085.888,1415.282 1156.186,1375.677 1164.804,1380.92 "
           style="fill:#999999"
           id="polygon157" />
        <polygon
           points="1156.186,1385.743 1164.804,1380.92 1156.186,1375.677 "
           style="fill:#b3b3b3"
           id="polygon159" />
        <path
           d="m 1065.2852,1489.5035 -10.8145,-19.583 5.1786,-2.82 c 3.5078,-1.8267 8.6784,1.161 11.5489,6.6732 2.8705,5.5122 2.3538,11.4616 -1.1539,13.2882 z"
           style="fill:#cccccc"
           id="path161" />
        <ellipse
           cx="1059.8781"
           cy="1479.712"
           rx="7.1609998"
           ry="11.2529"
           transform="rotate(-27.5083,1059.8762,1479.7104)"
           style="fill:#808080;stroke:#f2f2f2;stroke-width:0.292284px;stroke-miterlimit:10"
           id="ellipse163" />
        <polygon
           points="1066.365,1456.622 1055.201,1451.04 1055.231,1449.593 1070.839,1452.676 1070.831,1454.166 "
           style="fill:#999999"
           id="polygon165" />
        <path
           d="m 1059.89,1447.1223 c 0.2232,0 10.94,5.5818 10.94,5.5818 l -4.4654,2.456 -11.1637,-5.5818 z"
           style="fill:#808080"
           id="path167" />
      </g>
      <g
         transform="translate(-176.33247,-436.34037)"
         style="isolation:isolate"
         id="g205">
        <g
           clip-path="url(#clip-path-2)"
           id="g203">
          <path
             d="m 1074.1017,1236.1168 c -1.0075,0.6315 -2.0757,1.54 -2.054,2.5735 0.014,0.668 0.4438,0.7126 0.9385,0.4025 a 3.0442,3.0442 0 0 0 1.2692,-1.7514 1.45,1.45 0 0 0 0.045,-0.3562 l -0.021,-0.9778 c -0.059,0.035 -0.1187,0.072 -0.1783,0.1094 m 38.5439,-26.2715 a 3.6618,3.6618 0 0 0 -1.5436,3.1234 c 0.023,1.1087 0.5767,1.6967 1.6182,1.0439 a 3.2666,3.2666 0 0 0 1.3256,-1.8914 2.5663,2.5663 0 0 0 0.066,-0.6 l -0.021,-1.0123 a 1.1516,1.1516 0 0 0 -0.068,-0.4314 c -0.1883,-0.482 -0.6738,-0.673 -1.3769,-0.2324 m -45.031,28.1913 a 3.788,3.788 0 0 0 -1.5944,3.2179 c 0.026,1.2326 0.7162,1.7488 1.6667,1.153 a 3.8777,3.8777 0 0 0 1.5682,-3.2085 c -0.02,-0.95 -0.4948,-1.8806 -1.64,-1.1624 m 35.5256,-22.268 a 3.8016,3.8016 0 0 0 -1.6009,3.2221 c 0.026,1.2325 0.7227,1.7447 1.6667,1.153 a 3.8907,3.8907 0 0 0 1.5747,-3.2127 c -0.02,-0.95 -0.4948,-1.8806 -1.64,-1.1624 m -16.4192,10.2569 a 3.5264,3.5264 0 0 0 -1.4557,2.6008 l 2.8319,-1.775 c -8e-4,-0.6623 -0.2891,-1.5072 -1.3762,-0.8258 m 12.4257,-2.563 c -0.3841,0.2407 -0.6575,0.098 -0.6664,-0.3219 a 1.4051,1.4051 0 0 1 0.6486,-1.153 c 0.384,-0.2407 0.6573,-0.1051 0.6665,0.3288 a 1.3814,1.3814 0 0 1 -0.6487,1.1461 m -1.58,-4.8494 0.01,0.6445 -2.3137,4.7642 c -0.2147,0.4555 -0.4238,0.8656 -0.6649,1.3168 v 0.021 l 3.1184,-1.9546 0.017,0.8194 -4.3292,2.7136 -0.013,-0.5991 2.3453,-4.8328 c 0.2215,-0.4458 0.4371,-0.8531 0.6716,-1.307 v -0.021 l -2.8839,1.8077 -0.017,-0.8263 4.0622,-2.5463 m -29.91,24.5873 c -1.4452,0.9059 -2.5819,0.4882 -2.62,-1.2953 a 5.6062,5.6062 0 0 1 2.58,-4.652 c 1.5364,-0.963 2.5964,-0.4344 2.6326,1.2871 a 5.6216,5.6216 0 0 1 -2.593,4.66 m 3.9629,-7.2631 -0.229,-0.54 a 6.7567,6.7567 0 0 1 1.7406,-1.6 c 1.6275,-1.02 2.0494,-0.092 2.0732,1.0377 l 0.044,2.1071 a 6.8344,6.8344 0 0 0 0.12,1.2994 l -0.8853,0.5549 -0.093,-0.6672 -0.033,0.02 a 4.4359,4.4359 0 0 1 -1.61,1.86 c -1.0807,0.6774 -1.651,0.2186 -1.6681,-0.594 -0.029,-1.357 1.0912,-2.8119 3.1368,-4.0941 l 0.028,-0.018 v -0.11 c -0.01,-0.4683 -0.1513,-1.2308 -1.2385,-0.5494 a 5.5753,5.5753 0 0 0 -1.3843,1.2933 m 6.3525,0.023 a 1.8837,1.8837 0 0 0 1.024,-1.493 c -0.01,-0.4888 -0.296,-0.5819 -1.018,-0.4153 -0.9646,0.2417 -1.4256,-0.041 -1.44,-0.7162 a 3.5862,3.5862 0 0 1 1.801,-2.8033 2.7281,2.7281 0 0 1 1.3225,-0.4731 l -0.2317,0.8987 a 1.9957,1.9957 0 0 0 -1.094,0.3579 1.6919,1.6919 0 0 0 -0.8758,1.3234 c 0.01,0.4682 0.3334,0.4817 1.0292,0.3246 0.9388,-0.2117 1.4179,-0.017 1.4356,0.8234 a 3.6978,3.6978 0 0 1 -1.9564,2.9426 3.1136,3.1136 0 0 1 -1.5055,0.553 l 0.2243,-0.936 a 2.3606,2.3606 0 0 0 1.2847,-0.3867 m 9.0521,-4.9064 c -1.6406,1.0283 -2.6412,0.4973 -2.6771,-1.2035 a 5.5163,5.5163 0 0 1 2.4357,-4.61 c 1.7383,-1.09 2.2345,0.2389 2.2564,1.2787 a 4.1293,4.1293 0 0 1 -0.022,0.4955 l -3.7434,2.3463 c 0.049,1.3787 0.9006,1.417 1.8706,0.8089 a 6.6507,6.6507 0 0 0 1.4651,-1.2114 l 0.1848,0.6307 a 8.4933,8.4933 0 0 1 -1.77,1.4652 m 4.0227,-7.2378 0.045,-0.029 a 3.6756,3.6756 0 0 1 1.4519,-2.1589 1.438,1.438 0 0 1 0.2741,-0.1369 l 0.02,0.9709 a 1.6361,1.6361 0 0 0 -0.3328,0.1737 3.26,3.26 0 0 0 -1.3033,2.6309 l 0.063,3.0091 -0.957,0.6 -0.082,-3.8836 c -0.014,-0.661 -0.039,-1.2244 -0.083,-1.7273 l 0.8464,-0.5305 0.056,1.0814 m 12.1289,-2.8794 c -1.4387,0.9019 -2.5755,0.4842 -2.6131,-1.2993 a 5.5965,5.5965 0 0 1 2.58,-4.652 c 1.53,-0.959 2.59,-0.43 2.6261,1.2911 a 5.6214,5.6214 0 0 1 -2.593,4.66 m 4.6215,-7.62 0.046,-0.029 a 3.6567,3.6567 0 0 1 1.4452,-2.1547 1.5674,1.5674 0 0 1 0.2807,-0.141 l 0.02,0.9709 a 1.726,1.726 0 0 0 -0.3327,0.1736 3.04,3.04 0 0 0 -1.2742,2.1313 3.8966,3.8966 0 0 0 -0.036,0.5037 l 0.063,3.0091 -0.957,0.6 -0.082,-3.8836 c -0.014,-0.661 -0.039,-1.2243 -0.083,-1.7272 l 0.8529,-0.5346 0.056,1.0813 m 4.6522,1.6538 c -1.3216,0.8284 -2.2905,0.2357 -2.3234,-1.3274 a 5.4866,5.4866 0 0 1 2.339,-4.5011 c 0.9245,-0.5794 1.4431,-0.3882 1.6808,-0.063 l 0.026,-0.016 0.021,-0.8714 0.8529,-0.5346 c -0.018,0.4226 -0.028,0.8893 -0.013,1.5779 l 0.069,3.2707 a 5.2625,5.2625 0 0 1 -0.7075,3.0528 5.9044,5.9044 0 0 1 -1.9258,1.8908 3.54,3.54 0 0 1 -1.78,0.6486 l 0.2244,-0.9359 a 2.9665,2.9665 0 0 0 1.5717,-0.5387 3.37,3.37 0 0 0 1.6773,-3.04 l -0.013,-0.6335 -0.02,0.012 a 4.3445,4.3445 0 0 1 -1.6792,2.0084 m -51.2517,27.2276 -0.016,-0.7781 0.82,-0.5142 -0.029,-1.3565 0.9448,-0.8643 0.034,1.625 1.3867,-0.8691 0.016,0.7781 -1.3867,0.8691 0.064,3.0436 c 0.015,0.6954 0.2118,0.9765 0.7522,0.6378 a 3.9031,3.9031 0 0 0 0.5584,-0.42 l 0.062,0.7358 a 4.403,4.403 0 0 1 -0.8562,0.6832 c -0.4557,0.2857 -0.817,0.3586 -1.0573,0.2232 -0.28,-0.1317 -0.3945,-0.569 -0.4085,-1.23 l -0.065,-3.078 -0.82,0.5142 m 19.3025,-12.0991 -0.016,-0.7781 0.8267,-0.5182 -0.029,-1.3565 0.9384,-0.86 0.034,1.6251 1.3866,-0.8692 0.016,0.7781 -1.3866,0.8692 0.064,3.0435 c 0.015,0.6955 0.2119,0.9765 0.7522,0.6379 a 3.8968,3.8968 0 0 0 0.5585,-0.42 l 0.062,0.7358 a 4.4,4.4 0 0 1 -0.8563,0.6833 c -0.4557,0.2856 -0.8169,0.3585 -1.0572,0.2231 -0.28,-0.1316 -0.3881,-0.573 -0.402,-1.234 l -0.065,-3.078 -0.8267,0.5182 m 98.3438,-70.6084 -117.7937,73.8347 c -5.2276,3.2767 -9.3778,10.42 -9.2611,15.9562 0.1165,5.5293 4.4556,7.3514 9.6833,4.0746 l 117.7936,-73.8347 c 5.2277,-3.2767 9.3777,-10.42 9.2612,-15.9492 -0.1167,-5.5362 -4.4557,-7.3583 -9.6833,-4.0816"
             style="fill:#f2f2f2"
             id="path171" />
          <path
             d="m 1200.1937,1147.79 a 4.3341,4.3341 0 0 0 -1.9283,3.33 c 0.024,1.15 0.9293,1.5314 2.0164,0.85 a 4.3367,4.3367 0 0 0 1.9352,-3.327 c -0.024,-1.1568 -0.93,-1.5383 -2.0233,-0.8527"
             style="fill:#4d4d4d"
             id="path173" />
          <path
             d="m 1200.3258,1154.056 a 4.3342,4.3342 0 0 0 -1.9284,3.33 c 0.024,1.15 0.9294,1.5314 2.0165,0.85 a 4.3371,4.3371 0 0 0 1.9352,-3.327 c -0.024,-1.1568 -0.9295,-1.5383 -2.0233,-0.8527"
             style="fill:#4d4d4d"
             id="path175" />
          <path
             d="m 1200.4579,1160.3221 a 4.3339,4.3339 0 0 0 -1.9284,3.33 c 0.024,1.15 0.9293,1.5315 2.0165,0.85 a 4.3367,4.3367 0 0 0 1.9351,-3.3269 c -0.024,-1.1568 -0.9295,-1.5383 -2.0232,-0.8527"
             style="fill:#4d4d4d"
             id="path177" />
          <path
             d="m 1062.9186,1238.6847 -0.9448,0.8643 0.029,1.3565 -0.82,0.5142 0.016,0.7781 0.82,-0.5142 0.065,3.078 c 0.014,0.661 0.1288,1.0983 0.4085,1.23 0.24,0.1354 0.6016,0.062 1.0573,-0.2232 a 4.403,4.403 0 0 0 0.8562,-0.6832 l -0.062,-0.7358 a 3.9031,3.9031 0 0 1 -0.5584,0.42 c -0.54,0.3387 -0.7376,0.058 -0.7522,-0.6378 l -0.064,-3.0436 1.3867,-0.8691 -0.016,-0.7781 -1.3867,0.8691 -0.034,-1.625"
             id="path179" />
          <path
             d="m 1067.6869,1242.4075 c -0.95,0.5958 -1.6407,0.08 -1.6667,-1.153 a 3.788,3.788 0 0 1 1.5944,-3.2179 c 1.1457,-0.7182 1.62,0.2121 1.64,1.1624 a 3.8777,3.8777 0 0 1 -1.5682,3.2085 m -0.069,-5.1544 a 5.6062,5.6062 0 0 0 -2.58,4.652 c 0.038,1.7835 1.1743,2.2012 2.62,1.2953 a 5.6216,5.6216 0 0 0 2.593,-4.66 c -0.036,-1.7215 -1.0962,-2.25 -2.6326,-1.2871"
             id="path181" />
          <path
             d="m 1072.9862,1239.0928 c -0.4947,0.31 -0.9244,0.2655 -0.9385,-0.4025 -0.022,-1.0335 1.0465,-1.942 2.054,-2.5735 0.06,-0.037 0.1193,-0.074 0.1783,-0.1094 l 0.021,0.9778 a 1.45,1.45 0 0 1 -0.045,0.3562 3.0442,3.0442 0 0 1 -1.2692,1.7514 m 0.1457,-5.296 a 6.7567,6.7567 0 0 0 -1.7406,1.6 l 0.229,0.54 a 5.5753,5.5753 0 0 1 1.3843,-1.2933 c 1.0872,-0.6814 1.2286,0.081 1.2385,0.5494 v 0.11 l -0.028,0.018 c -2.0456,1.2822 -3.1654,2.7371 -3.1368,4.0941 0.017,0.8126 0.5874,1.2714 1.6681,0.594 a 4.4359,4.4359 0 0 0 1.61,-1.86 l 0.033,-0.02 0.093,0.6672 0.8853,-0.5549 a 6.8344,6.8344 0 0 1 -0.12,-1.2994 l -0.044,-2.1071 c -0.024,-1.1293 -0.4457,-2.0578 -2.0732,-1.0377"
             id="path183" />
          <path
             d="m 1078.34,1230.5323 a 3.5862,3.5862 0 0 0 -1.801,2.8033 c 0.014,0.6749 0.4753,0.9579 1.44,0.7162 0.722,-0.1666 1.0077,-0.073 1.018,0.4153 a 1.8837,1.8837 0 0 1 -1.024,1.493 2.3606,2.3606 0 0 1 -1.2847,0.3867 l -0.2243,0.936 a 3.1136,3.1136 0 0 0 1.5055,-0.553 3.6978,3.6978 0 0 0 1.9564,-2.9426 c -0.018,-0.84 -0.4968,-1.0351 -1.4356,-0.8234 -0.6958,0.1571 -1.0194,0.1436 -1.0292,-0.3246 a 1.6919,1.6919 0 0 1 0.8758,-1.3234 1.9957,1.9957 0 0 1 1.094,-0.3579 l 0.2317,-0.8987 a 2.7281,2.7281 0 0 0 -1.3225,0.4731"
             id="path185" />
          <path
             d="m 1082.2211,1226.5856 -0.9384,0.86 0.029,1.3565 -0.8267,0.5182 0.016,0.7781 0.8267,-0.5182 0.065,3.078 c 0.014,0.661 0.1222,1.1024 0.402,1.234 0.24,0.1354 0.6015,0.062 1.0572,-0.2231 a 4.4,4.4 0 0 0 0.8563,-0.6833 l -0.062,-0.7358 a 3.8968,3.8968 0 0 1 -0.5585,0.42 c -0.54,0.3386 -0.7375,0.058 -0.7522,-0.6379 l -0.064,-3.0435 1.3866,-0.8692 -0.016,-0.7781 -1.3866,0.8692 -0.034,-1.6251"
             id="path187" />
          <path
             d="m 1085.2653,1228.6263 a 3.5264,3.5264 0 0 1 1.4557,-2.6008 c 1.0871,-0.6814 1.3754,0.1635 1.3762,0.8258 l -2.8319,1.775 m 1.5182,-3.3865 a 5.5163,5.5163 0 0 0 -2.4357,4.61 c 0.036,1.7008 1.0365,2.2318 2.6771,1.2035 a 8.4933,8.4933 0 0 0 1.77,-1.4652 l -0.1848,-0.6307 a 6.6507,6.6507 0 0 1 -1.4651,1.2114 c -0.97,0.6081 -1.8218,0.57 -1.8706,-0.8089 l 3.7434,-2.3463 a 4.1293,4.1293 0 0 0 0.022,-0.4955 c -0.022,-1.04 -0.5181,-2.3683 -2.2564,-1.2787"
             id="path189" />
          <path
             d="m 1092.545,1221.6284 a 3.6756,3.6756 0 0 0 -1.4519,2.1589 l -0.045,0.029 -0.056,-1.0814 -0.8464,0.5305 c 0.044,0.5029 0.069,1.0663 0.083,1.7273 l 0.082,3.8836 0.957,-0.6 -0.063,-3.0091 a 3.26,3.26 0 0 1 1.3033,-2.6309 1.6361,1.6361 0 0 1 0.3328,-0.1737 l -0.021,-0.9709 a 1.438,1.438 0 0 0 -0.2741,0.1369"
             id="path191" />
          <path
             d="m 1097.567,1218.6131 -4.0622,2.5463 0.017,0.8263 2.8839,-1.8077 v 0.021 c -0.2345,0.4539 -0.45,0.8612 -0.6716,1.307 l -2.3453,4.8328 0.013,0.5991 4.3292,-2.7136 -0.017,-0.8194 -3.1184,1.9546 v -0.021 c 0.2411,-0.4512 0.45,-0.8613 0.6649,-1.3168 l 2.3137,-4.7642 -0.01,-0.6445"
             id="path193" />
          <path
             d="m 1099.1289,1221.9876 a 1.4051,1.4051 0 0 0 -0.6486,1.153 c 0.01,0.42 0.2823,0.5626 0.6664,0.3219 a 1.3814,1.3814 0 0 0 0.6487,-1.1461 c -0.01,-0.4339 -0.2825,-0.5695 -0.6665,-0.3288"
             id="path195" />
          <path
             d="m 1103.206,1220.1437 c -0.944,0.5917 -1.6407,0.079 -1.6667,-1.153 a 3.8016,3.8016 0 0 1 1.6009,-3.2221 c 1.1457,-0.7182 1.62,0.2122 1.64,1.1624 a 3.8907,3.8907 0 0 1 -1.5747,3.2127 m -0.063,-5.1585 a 5.5965,5.5965 0 0 0 -2.58,4.652 c 0.038,1.7835 1.1744,2.2012 2.6131,1.2993 a 5.6214,5.6214 0 0 0 2.593,-4.66 c -0.036,-1.7214 -1.0962,-2.25 -2.6261,-1.2911"
             id="path197" />
          <path
             d="m 1109.2889,1211.1331 a 3.6567,3.6567 0 0 0 -1.4452,2.1547 l -0.046,0.029 -0.056,-1.0813 -0.8529,0.5346 c 0.044,0.5029 0.069,1.0662 0.083,1.7272 l 0.082,3.8836 0.957,-0.6 -0.063,-3.0091 a 3.8966,3.8966 0 0 1 0.036,-0.5037 3.04,3.04 0 0 1 1.2742,-2.1313 1.726,1.726 0 0 1 0.3327,-0.1736 l -0.02,-0.9709 a 1.5674,1.5674 0 0 0 -0.2807,0.141"
             id="path199" />
          <path
             d="m 1112.72,1214.0126 c -1.0415,0.6528 -1.5948,0.065 -1.6182,-1.0439 a 3.6618,3.6618 0 0 1 1.5436,-3.1234 c 0.7031,-0.4406 1.1886,-0.25 1.3769,0.2324 a 1.1516,1.1516 0 0 1 0.068,0.4314 l 0.021,1.0123 a 2.5663,2.5663 0 0 1 -0.067,0.6 3.2666,3.2666 0 0 1 -1.3256,1.8914 m -0.2544,-4.8709 a 5.4866,5.4866 0 0 0 -2.339,4.5011 c 0.033,1.5631 1.0018,2.1558 2.3234,1.3274 a 4.3445,4.3445 0 0 0 1.6792,-2.0084 l 0.02,-0.012 0.013,0.6335 a 3.37,3.37 0 0 1 -1.6773,3.04 2.9665,2.9665 0 0 1 -1.5717,0.5387 l -0.2244,0.9359 a 3.54,3.54 0 0 0 1.78,-0.6486 5.9044,5.9044 0 0 0 1.9258,-1.8908 5.2625,5.2625 0 0 0 0.7075,-3.0528 l -0.069,-3.2707 c -0.015,-0.6886 0,-1.1553 0.013,-1.5779 l -0.8529,0.5346 -0.021,0.8714 -0.026,0.016 c -0.2377,-0.3255 -0.7563,-0.5167 -1.6808,0.063"
             id="path201" />
        </g>
      </g>
      <g
         transform="translate(-176.33247,-436.34037)"
         style="isolation:isolate"
         id="g243">
        <g
           clip-path="url(#clip-path-3)"
           id="g241">
          <path
             d="m 1183.8647,1431.3112 0.048,-5.75 5.2214,-3.378 -0.048,5.75 -0.048,5.7567 -0.048,5.7568 -0.048,5.7567 -5.2214,3.3781 0.048,-5.7568 -0.048,5.7568 -5.2215,3.378 0.048,-5.7567 -0.048,5.7567 -5.2215,3.378 0.048,-5.7567 -0.048,5.7567 -5.2152,3.3741 0.048,-5.7568 0.048,-5.7568 0.048,-5.7567 0.048,-5.75 5.2152,-3.374 -0.048,5.75 0.048,-5.75 5.2215,-3.3781 -0.048,5.75 0.048,-5.75 5.2215,-3.378 -0.048,5.75 m 10.5333,-18.2586 -31.3164,20.26 -0.29,34.5267 31.3164,-20.26 0.29,-34.5267"
             id="path207" />
          <polyline
             points="1173.47 1432.317 1168.255 1435.691 1168.207 1441.441 1173.422 1438.067 1173.47 1432.317"
             id="polyline209" />
          <polyline
             points="1178.691 1428.939 1173.47 1432.317 1173.422 1438.067 1178.643 1434.689 1178.691 1428.939"
             id="polyline211" />
          <polyline
             points="1183.913 1425.561 1178.691 1428.939 1178.643 1434.689 1183.865 1431.311 1183.913 1425.561"
             style="fill:#ffffff"
             id="polyline213" />
          <polyline
             points="1189.134 1422.183 1183.913 1425.561 1183.865 1431.311 1189.086 1427.933 1189.134 1422.183"
             style="fill:#ffffff"
             id="polyline215" />
          <polyline
             points="1173.422 1438.067 1168.207 1441.441 1168.158 1447.198 1173.373 1443.824 1173.422 1438.067"
             id="polyline217" />
          <polyline
             points="1178.643 1434.689 1173.422 1438.067 1173.373 1443.824 1178.595 1440.446 1178.643 1434.689"
             id="polyline219" />
          <polyline
             points="1183.865 1431.311 1178.643 1434.689 1178.595 1440.446 1183.816 1437.068 1183.865 1431.311"
             style="fill:#ffffff"
             id="polyline221" />
          <polyline
             points="1189.086 1427.933 1183.865 1431.311 1183.816 1437.068 1189.038 1433.69 1189.086 1427.933"
             id="polyline223" />
          <polyline
             points="1173.373 1443.824 1168.158 1447.198 1168.11 1452.955 1173.325 1449.581 1173.373 1443.824"
             style="fill:#ffffff"
             id="polyline225" />
          <polyline
             points="1178.595 1440.446 1173.373 1443.824 1173.325 1449.581 1178.547 1446.203 1178.595 1440.446"
             id="polyline227" />
          <polyline
             points="1183.816 1437.068 1178.595 1440.446 1178.547 1446.203 1183.768 1442.825 1183.816 1437.068"
             id="polyline229" />
          <polyline
             points="1189.038 1433.69 1183.816 1437.068 1183.768 1442.825 1188.99 1439.447 1189.038 1433.69"
             id="polyline231" />
          <polyline
             points="1173.325 1449.581 1168.11 1452.955 1168.062 1458.712 1173.277 1455.338 1173.325 1449.581"
             style="fill:#ffffff"
             id="polyline233" />
          <polyline
             points="1178.547 1446.203 1173.325 1449.581 1173.277 1455.338 1178.498 1451.96 1178.547 1446.203"
             style="fill:#ffffff"
             id="polyline235" />
          <polyline
             points="1183.768 1442.825 1178.547 1446.203 1178.498 1451.96 1183.72 1448.581 1183.768 1442.825"
             id="polyline237" />
          <polyline
             points="1188.99 1439.447 1183.768 1442.825 1183.72 1448.581 1188.941 1445.203 1188.99 1439.447"
             id="polyline239" />
        </g>
      </g>
      <g
         transform="translate(-170.20897)"
         style="isolation:isolate"
         id="g381">
        <g
           clip-path="url(#clip-path-4)"
           id="g379">
          <path
             d="m 443.4,508.6653 c -5.4842,3.0845 -7.7422,9.9539 -8.0623,14.3 l 15.8357,-8.9064 c -0.0421,-3.7975 -1.6792,-8.8215 -7.7734,-5.394 m 59.8876,-33.6825 c -5.4841,3.0845 -7.7355,9.95 -8.0556,14.2967 l 15.829,-8.9027 c -0.0355,-3.8012 -1.6726,-8.8252 -7.7734,-5.394 m -98.0941,163.9259 c 0.5541,-17.29 12.946,-37.6811 28.5227,-46.4418 15.5767,-8.7607 28.6772,-2.7074 30.1352,13.4509 L 644.1955,504.4868 c 1.2335,-0.6938 2.2644,-0.164 2.3008,1.1823 a 4.5627,4.5627 0 0 1 -2.1687,3.7035 L 463.941,610.8271 c -0.834,17.15 -13.1057,37.1463 -28.49,45.7989 -15.3843,8.6526 -28.36,2.8556 -30.0828,-12.8559 L 340.32,680.3548 c -1.24,0.6974 -2.2709,0.1676 -2.3075,-1.1859 a 4.5636,4.5636 0 0 1 2.1754,-3.7 l 65.0052,-36.5607 m 82.1042,-158.4815 -10.8308,39.1368 -5.1725,2.9091 -12.2193,-26.1726 5.7959,-3.26 6.3433,15.0014 a 56.13,56.13 0 0 1 2.6327,6.9845 l 0.1856,-0.1044 c 0.6039,-3.0658 1.3931,-6.2433 2.2945,-9.7557 l 5.3012,-21.5507 5.67,-3.1888 M 445.3112,537.77 c -9.1844,5.1656 -14.84,1.6523 -15.1056,-8.1627 -0.2656,-9.8223 4.8239,-20.5327 13.5109,-25.4185 9.7348,-5.4751 12.5737,2.4148 12.7356,8.4008 a 27.06,27.06 0 0 1 -0.1112,2.8622 l -20.9484,11.782 c 0.3425,7.9346 5.1132,8.5948 10.5311,5.5477 a 33.3433,33.3433 0 0 0 8.21,-6.3227 l 1.0429,3.7122 a 41.2825,41.2825 0 0 1 -9.8658,7.599 m 59.8876,-33.6825 c -9.1778,5.1619 -14.84,1.6523 -15.1056,-8.1627 -0.2655,-9.8223 4.8239,-20.5326 13.511,-25.4185 9.7347,-5.4751 12.5736,2.4148 12.7355,8.4008 a 25.3927,25.3927 0 0 1 -0.1111,2.8622 L 495.28,493.5511 c 0.3424,7.9346 5.1132,8.5948 10.5376,5.544 a 33.418,33.418 0 0 0 8.2106,-6.3227 l 1.0363,3.7159 a 41.241,41.241 0 0 1 -9.8659,7.599 m 46.0034,-63.9009 -1.5355,-3.5086 a 35.4007,35.4007 0 0 1 10.38,-9.2477 c 7.8912,-4.4382 11.5971,-1.3346 11.7407,3.9782 0.1218,4.5022 -2.2348,9.7222 -7.1092,14.44 l 0.004,0.1376 c 4.9563,-1.6927 9.0706,0.0863 9.236,6.2026 0.1892,6.9993 -4.6388,15.924 -14.2476,21.3283 -4.496,2.5287 -8.4834,3.2061 -10.4912,2.8951 l 1.3553,-5.399 a 16.029,16.029 0 0 0 8.9406,-2.2288 c 6.9629,-3.9161 8.9938,-9.9743 8.8292,-13.5706 -0.2252,-6.09 -5.3491,-5.8682 -10.5879,-2.9218 l -3.0172,1.697 -0.12,-4.437 3.0172,-1.697 c 3.9457,-2.2191 8.879,-7.25 8.7391,-12.425 -0.0945,-3.4961 -2.2141,-5.449 -7.2075,-2.6406 a 27.9749,27.9749 0 0 0 -7.9258,7.397 M 404.7489,559.9 l -1.2255,-45.3257 5.3581,-3.0135 1.0929,40.4181 17.7455,-9.9805 0.1326,4.9075 -23.1036,12.9941 m 118.7939,-66.813 -1.2909,-47.7432 5.4244,-3.0509 1.2909,47.7432 -5.4244,3.0509 M 656.0287,297.7525 318.2547,487.7262 c -24.337,13.6878 -43.56,46.4416 -42.842,73.013 l 5.3749,198.79 c 0.7185,26.5714 21.1107,37.0443 45.4477,23.3564 L 664.0093,592.912 c 24.337,-13.6878 43.5538,-46.4379 42.8353,-73.0093 l -5.3749,-198.79 c -0.7184,-26.5714 -21.104,-37.048 -45.441,-23.36"
             style="fill:#f2f2f2"
             id="path245" />
          <path
             d="m 326.2353,782.8857 c -24.337,13.6879 -44.7292,3.215 -45.4477,-23.3564 l -5.3749,-198.79 c -0.7184,-26.5714 18.505,-59.3252 42.842,-73.013 l 337.774,-189.9737 c 24.337,-13.6878 44.7226,-3.2112 45.441,23.36 l 5.3749,198.79 c 0.7185,26.5714 -18.4983,59.3215 -42.8353,73.0093 L 326.2353,782.8857 M 656.0121,297.1373 318.2381,487.111 c -24.6487,13.8631 -44.11,47.0371 -43.3824,73.9415 l 5.3749,198.79 c 0.7277,26.9117 21.3727,37.5215 46.0214,23.6584 L 664.0259,593.5274 c 24.6487,-13.8631 44.11,-47.03 43.3824,-73.9416 l -5.3749,-198.79 c -0.7274,-26.9044 -21.3726,-37.5215 -46.0213,-23.6584"
             style="fill:#e6e6e6"
             id="path247" />
          <path
             d="M 463.941,610.8271 405.3681,643.77 c 1.7232,15.7115 14.6984,21.5085 30.0828,12.8559 15.3844,-8.6526 27.6561,-28.6492 28.49,-45.7989 m -30.2248,-18.3606 c -15.5767,8.7607 -27.9686,29.1518 -28.5227,46.4418 l 58.6579,-32.9909 c -1.458,-16.1583 -14.5586,-22.2116 -30.1352,-13.4509"
             style="fill:#666666"
             id="path249" />
          <path
             d="m 644.1955,504.4868 -180.3441,101.4306 -58.6579,32.9909 -65.0052,36.5607 a 4.5636,4.5636 0 0 0 -2.1754,3.7 c 0.0366,1.3535 1.0675,1.8833 2.3075,1.1859 L 405.3681,643.77 463.941,610.827 644.3276,509.3726 a 4.5627,4.5627 0 0 0 2.1687,-3.7035 c -0.0364,-1.3463 -1.0673,-1.8761 -2.3008,-1.1823"
             style="fill:#666666"
             id="path251" />
          <polyline
             points="408.882 511.561 403.523 514.574 404.749 559.9 427.853 546.906 427.72 541.998 409.974 551.979 408.882 511.561"
             id="polyline253" />
          <path
             d="m 435.3377,522.9657 c 0.32,-4.3465 2.5781,-11.2159 8.0623,-14.3 6.0942,-3.4275 7.7313,1.5965 7.7734,5.394 l -15.8357,8.9064 m 8.3788,-18.7771 c -8.687,4.8858 -13.7765,15.5962 -13.5109,25.4185 0.2654,9.815 5.9212,13.3283 15.1056,8.1627 a 41.2825,41.2825 0 0 0 9.8658,-7.599 l -1.0429,-3.7122 a 33.3433,33.3433 0 0 1 -8.21,6.3227 c -5.4179,3.0471 -10.1886,2.3869 -10.5311,-5.5477 l 20.9484,-11.782 a 27.06,27.06 0 0 0 0.1112,-2.8622 c -0.1619,-5.986 -3.0008,-13.8759 -12.7356,-8.4008"
             id="path255" />
          <path
             d="m 487.2977,480.4268 -5.67,3.1888 -5.3012,21.5507 c -0.9014,3.5124 -1.6906,6.69 -2.2945,9.7557 l -0.1856,0.1044 a 56.13,56.13 0 0 0 -2.6327,-6.9845 l -6.3433,-15.0014 -5.7959,3.26 12.22,26.1725 5.1725,-2.9091 10.8308,-39.1368"
             id="path257" />
          <path
             d="m 495.232,489.28 c 0.32,-4.3466 2.5715,-11.2122 8.0556,-14.2967 6.1008,-3.4312 7.7379,1.5928 7.7734,5.394 l -15.829,8.9027 m 8.3722,-18.7734 c -8.6871,4.8859 -13.7765,15.5962 -13.511,25.4185 0.2654,9.815 5.9278,13.3246 15.1056,8.1627 a 41.241,41.241 0 0 0 9.8659,-7.599 l -1.0363,-3.7159 a 33.418,33.418 0 0 1 -8.2106,6.3227 c -5.4244,3.0508 -10.1952,2.3906 -10.5376,-5.544 l 20.9484,-11.782 a 25.3927,25.3927 0 0 0 0.1111,-2.8622 c -0.1619,-5.986 -3.0008,-13.8759 -12.7355,-8.4008"
             id="path259" />
          <polyline
             points="527.676 442.293 522.252 445.344 523.543 493.087 528.967 490.036 527.676 442.293"
             id="polyline261" />
          <path
             d="m 560.0468,427.43 a 35.4007,35.4007 0 0 0 -10.38,9.2477 l 1.5355,3.5086 a 27.9749,27.9749 0 0 1 7.9258,-7.397 c 4.9934,-2.8084 7.113,-0.8555 7.2075,2.6406 0.14,5.1753 -4.7934,10.2059 -8.7391,12.425 l -3.0172,1.697 0.12,4.437 3.0172,-1.697 c 5.2388,-2.9464 10.3627,-3.1682 10.5879,2.9218 0.1646,3.5963 -1.8663,9.6545 -8.8292,13.5706 a 16.029,16.029 0 0 1 -8.9406,2.2288 l -1.3553,5.399 c 2.0078,0.311 5.9952,-0.3664 10.4912,-2.8951 9.6088,-5.4043 14.4368,-14.329 14.2476,-21.3283 -0.1654,-6.1163 -4.28,-7.8953 -9.236,-6.2026 l -0.004,-0.1376 c 4.8744,-4.7181 7.231,-9.9381 7.1092,-14.44 -0.1436,-5.3128 -3.85,-8.4164 -11.7407,-3.9782"
             id="path263" />
          <polyline
             points="286.717 291.622 273.79 308.768 273.857 311.244 287.31 313.553 287.227 310.463 276.406 308.635 276.401 308.475 286.801 294.712 286.717 291.622"
             id="polyline265" />
          <path
             d="m 300.5656,305.8263 c -1.9828,1.1151 -3.77,1.2531 -3.8272,-0.8677 -0.0667,-2.4682 2.1185,-5.3066 9.4559,-10.0652 l 0.1317,4.8714 c -1.9282,2.8847 -3.8108,4.9649 -5.76,6.0615 m 1.3081,-18.1 a 28.5491,28.5491 0 0 0 -7.6061,7.0187 l 1.2256,1.5079 a 22.8632,22.8632 0 0 1 5.954,-5.6267 c 3.3289,-1.8723 4.5147,-0.3421 4.69,2.1461 -8.8584,5.7685 -12.4107,9.8386 -12.2968,14.0512 0.0908,3.3586 2.7966,3.8355 6.0194,2.0229 2.4072,-1.3539 4.8431,-4.1348 6.676,-6.8116 l 0.1061,-0.06 0.3142,2.41 2.44,-1.3725 -0.3111,-11.5087 c -0.1263,-4.6687 -2.51,-6.4217 -7.2113,-3.7774"
             id="path267" />
          <path
             d="m 327.4441,273.345 c -3.183,1.79 -5.8186,5.1537 -7.5466,9.2193 l -0.0663,0.0373 -0.4051,-4.2768 -2.44,1.3726 0.5073,18.7614 2.9377,-1.6523 -0.2965,-10.9657 c 1.9426,-5.09 4.3444,-7.8886 6.9306,-9.3431 a 9.0694,9.0694 0 0 1 3.2,-1.175 l 0.5956,-3.12 a 7.27,7.27 0 0 0 -3.416,1.1423"
             id="path269" />
          <polyline
             points="351.427 265.221 336.214 273.777 336.279 276.172 351.491 267.617 351.427 265.221"
             id="polyline271" />
          <path
             d="m 368.372,250.7963 -10.8887,6.1237 0.07,2.584 7.9576,-4.4756 0.4374,16.1774 2.9311,-1.6485 -0.5073,-18.7614 m -2.0041,-7.8892 a 4.4673,4.4673 0 0 0 -2.2675,3.781 c 0.0407,1.5057 1.055,1.92 2.4012,1.1627 a 4.4309,4.4309 0 0 0 2.2673,-3.7883 c -0.0395,-1.4621 -1.0614,-1.9088 -2.401,-1.1554"
             id="path273" />
          <path
             d="m 385.5767,235.0062 -2.44,1.3725 -0.2284,6.2422 -4.9817,2.9929 0.0648,2.3958 4.8807,-2.745 0.24,8.8813 c 0.1253,4.6325 1.8411,6.8419 6.861,4.0185 a 25.3584,25.3584 0 0 0 5.3477,-4.1467 l -0.7,-1.9943 a 19.29,19.29 0 0 1 -4.0819,3.1555 c -3.3223,1.8686 -4.3971,0.7095 -4.4879,-2.6491 l -0.2412,-8.9174 8.4218,-4.7367 -0.07,-2.584 -8.4218,4.7366 -0.1628,-6.0221"
             id="path275" />
          <path
             d="m 402.365,239.5918 a 12.0918,12.0918 0 0 1 5.6778,-9.0352 c 2.9319,-1.649 4.9268,-0.8353 5.2858,2.869 l -10.9636,6.1662 m 5.5372,-11.4986 c -4.5956,2.5846 -8.6731,8.64 -8.5083,14.7349 0.1693,6.2609 4.3721,7.5786 9.5379,4.6732 a 22.1413,22.1413 0 0 0 6.5908,-5.9774 l -1.124,-1.4842 a 17.4938,17.4938 0 0 1 -5.1842,4.7161 c -3.5692,2.0075 -6.3916,1.4064 -6.8539,-2.6557 l 13.544,-7.6175 a 15.2971,15.2971 0 0 0 0.0872,-2.0037 c -0.1431,-5.2911 -3.1359,-7.1718 -8.0895,-4.3857"
             id="path277" />
          <path
             d="m 433.8639,213.4916 c -1.9828,1.1151 -3.01,2.9424 -3.9442,5.51 -0.5559,-1.8845 -1.646,-2.3662 -3.3437,-1.4114 -1.9828,1.1151 -3.0115,2.9062 -3.8465,5.1394 l -0.0729,0.041 -0.3121,-2.33 -2.3343,1.3129 0.5073,18.7614 2.8979,-1.63 -0.3675,-13.5933 c 0.7967,-2.4027 1.553,-3.8128 2.7533,-4.4878 1.2732,-0.7161 1.8009,0.1261 1.8594,2.29 l 0.357,13.2024 2.6857,-1.5105 -0.3676,-13.5933 c 0.87,-2.4437 1.48,-3.7717 2.68,-4.4468 1.2732,-0.7161 1.8672,0.0888 1.9257,2.2531 l 0.357,13.2024 2.9045,-1.6336 -0.3632,-13.4341 c -0.1014,-3.7494 -1.5691,-4.9961 -3.9762,-3.6422"
             id="path279" />
          <path
             d="m 471.3542,205.7284 a 5.8036,5.8036 0 0 0 -2.7759,4.8973 c 0.0532,1.9688 1.3619,2.5628 2.9534,1.6677 a 5.7428,5.7428 0 0 0 2.7761,-4.89 c -0.0523,-1.9326 -1.3621,-2.57 -2.9536,-1.6749 m -0.3736,-13.8178 a 5.7916,5.7916 0 0 0 -2.7761,4.89 c 0.0532,1.9688 1.3619,2.5628 2.9534,1.6677 a 5.743,5.743 0 0 0 2.7761,-4.89 c -0.0523,-1.9327 -1.3619,-2.5629 -2.9534,-1.6678"
             id="path281" />
          <path
             d="m 495.6937,179.1869 -10.8886,6.1241 0.07,2.5841 7.9576,-4.4756 0.4374,16.1774 2.931,-1.6485 -0.5073,-18.7615 m -2.004,-7.8891 a 4.4671,4.4671 0 0 0 -2.2675,3.781 c 0.0407,1.5056 1.055,1.92 2.4011,1.1626 a 4.4308,4.4308 0 0 0 2.2674,-3.7883 c -0.04,-1.4621 -1.0615,-1.9087 -2.401,-1.1553"
             id="path283" />
          <path
             d="m 513.4749,185.9624 c -3.15,1.7716 -5.1317,0.1822 -5.2529,-4.2983 -0.1158,-4.285 2.214,-8.498 5.1848,-10.1689 a 4.7711,4.7711 0 0 1 4.548,-0.3607 l 0.2524,9.3372 c -1.4682,2.7143 -3.0347,4.5359 -4.7323,5.4907 m 7.0626,-29.61 -2.9375,1.6519 0.1953,7.2238 0.232,3.3526 -0.0663,0.0373 a 5.5659,5.5659 0 0 0 -5.23,0.5168 c -4.065,2.2863 -7.6831,8.157 -7.5181,14.2588 0.1691,6.2538 3.2427,8.1331 7.699,5.6268 a 16.8857,16.8857 0 0 0 5.5441,-6.0943 l 0.1061,-0.06 0.3121,2.33 2.4072,-1.3539 -0.7433,-27.4907"
             id="path285" />
          <path
             d="m 542.5144,161.9436 -15.2057,8.552 0.0648,2.3959 15.2056,-8.5521 -0.0647,-2.3958 m -0.2233,-8.2589 -15.2057,8.5521 0.0646,2.3887 15.2056,-8.5521 -0.0645,-2.3887"
             id="path287" />
          <path
             d="m 550.1652,158.074 5.8621,-11.7622 c 0.71,-1.6193 1.487,-3.2686 2.1974,-4.8806 l 0.179,-0.1007 c -0.0365,1.3874 -0.0578,3.0894 -0.0612,4.458 l 0.2047,7.5713 -8.382,4.7142 m 10.7283,-21.5167 -3.1432,1.7679 -10.8285,22.0434 0.0573,2.1207 11.638,-6.5455 0.1838,6.7966 2.7586,-1.5515 -0.1837,-6.7966 3.5013,-1.9693 -0.07,-2.584 -3.5014,1.9692 -0.4124,-15.2509"
             id="path289" />
          <path
             d="m 576.1994,127.4785 c -3.1831,1.79 -5.37,4.549 -7.3657,7.9418 l 1.7467,0.8621 c 1.4084,-2.4383 3.21,-4.7815 5.3319,-5.9749 3.329,-1.8723 4.9339,-0.7763 5.01,2.0394 0.1105,4.0895 -3.9435,10.764 -11.3834,22.4362 l 0.0511,1.8892 15.882,-8.9325 -0.0741,-2.7432 -7.394,4.1585 c -1.3461,0.7572 -2.79,1.65 -4.2056,2.5637 5.9567,-9.5081 10.0767,-16.484 9.9515,-21.1165 -0.1181,-4.3646 -3.0279,-5.6674 -7.5505,-3.1238"
             id="path291" />
          <polyline
             points="591.368 120.278 591.451 123.368 602.272 125.196 602.276 125.356 591.877 139.119 591.961 142.209 604.894 125.059 604.827 122.584 591.368 120.278"
             id="polyline293" />
          <path
             d="m 330.6326,310.3507 -2.1883,1.2307 c -4.4231,2.4877 -6.5138,4.8393 -6.4064,8.8131 0.072,2.6636 0.4871,4.8183 0.5528,7.25 0.0407,1.5055 -0.8744,3.512 -5.0446,5.8941 l 0.0544,2.0122 c 4.1721,-2.31 5.1668,-1.3774 5.2075,0.1281 0.07,2.5841 -0.2262,4.83 -0.15,7.6458 0.1076,3.9811 2.261,3.9456 6.6841,1.458 l 2.1883,-1.2308 -0.0491,-1.8168 -1.8369,1.0331 c -3.6074,2.0289 -4.4105,1.4592 -4.4782,-1.0453 -0.0638,-2.36 0.0942,-4.4839 0.0232,-7.1114 -0.068,-2.5117 -0.8837,-3.302 -3.3366,-2.3928 l -0.004,-0.1592 c 2.4278,-1.8358 3.177,-3.5063 3.1091,-6.018 -0.0647,-2.3959 -0.3415,-4.6651 -0.401,-6.8655 -0.0679,-2.5117 0.6807,-3.9541 4.2882,-5.9831 l 1.8369,-1.0331 -0.049,-1.8095"
             id="path295" />
          <path
             d="m 351.8529,298.4158 -2.1883,1.2307 c -4.4231,2.4877 -6.5139,4.8393 -6.4064,8.8131 0.072,2.6637 0.4871,4.8183 0.5528,7.25 0.0408,1.5055 -0.8744,3.512 -5.0446,5.8941 l 0.0544,2.0122 c 4.1721,-2.31 5.1668,-1.3774 5.2075,0.1281 0.07,2.5841 -0.2262,4.83 -0.15,7.6458 0.1076,3.9811 2.261,3.9456 6.6841,1.458 l 2.1883,-1.2308 -0.0491,-1.8168 -1.8369,1.0331 c -3.6074,2.0289 -4.4105,1.4592 -4.4782,-1.0452 -0.0638,-2.36 0.0942,-4.484 0.0231,-7.1115 -0.0679,-2.5117 -0.8836,-3.302 -3.3365,-2.3928 l -0.004,-0.1592 c 2.4278,-1.8358 3.177,-3.5063 3.1091,-6.018 -0.0648,-2.3959 -0.3415,-4.6651 -0.401,-6.8655 -0.068,-2.5117 0.6807,-3.9541 4.2882,-5.9831 l 1.8368,-1.0331 -0.0489,-1.81"
             id="path297" />
          <path
             d="m 388.1685,277.8292 -9.0187,5.0723 0.07,2.5913 6.0876,-3.4239 0.5029,18.6022 c 0.12,4.4443 2.1988,5.6267 5.8792,3.5567 a 18.13,18.13 0 0 0 4.5651,-3.7066 l -0.8074,-1.9781 a 13.5661,13.5661 0 0 1 -3.2,2.6668 c -2.0491,1.1524 -3.4266,0.7515 -3.5,-1.9556 l -0.5793,-21.4251"
             id="path299" />
          <path
             d="m 403.6175,285.9163 a 12.0917,12.0917 0 0 1 5.6779,-9.0352 c 2.9318,-1.649 4.9267,-0.8353 5.2858,2.869 l -10.9637,6.1662 m 5.5372,-11.4986 c -4.5955,2.5846 -8.6731,8.64 -8.5083,14.7349 0.1691,6.2538 4.3722,7.5786 9.538,4.6732 a 22.1409,22.1409 0 0 0 6.5907,-5.9774 l -1.124,-1.4841 a 17.4936,17.4936 0 0 1 -5.1842,4.716 c -3.569,2.0074 -6.3914,1.4006 -6.8537,-2.6558 l 13.5438,-7.6174 a 15.28,15.28 0 0 0 0.0872,-2.0037 c -0.1431,-5.2911 -3.1359,-7.1718 -8.0895,-4.3857"
             id="path301" />
          <path
             d="m 438.6634,258.2914 -2.8316,1.5926 -3.672,12.8378 c -0.6582,2.2955 -1.1718,4.4655 -1.7261,6.6217 l -0.1393,0.0783 q -0.9789,-2.2161 -2.06,-4.4921 l -4.2458,-8.3845 -3.0107,1.6932 7.7621,14.6816 3.2891,-1.85 6.6347,-22.7783"
             id="path303" />
          <path
             d="m 446.0581,262.0465 a 12.0918,12.0918 0 0 1 5.6778,-9.0352 c 2.9257,-1.6455 4.9259,-0.8348 5.2857,2.8691 l -10.9635,6.1661 m 5.5372,-11.4986 c -4.5955,2.5846 -8.6731,8.64 -8.5083,14.7349 0.1691,6.2538 4.3721,7.5786 9.5379,4.6733 a 22.074,22.074 0 0 0 6.5842,-5.9738 l -1.1174,-1.4878 a 17.4965,17.4965 0 0 1 -5.1842,4.7161 c -3.569,2.0073 -6.3914,1.4005 -6.8537,-2.6559 l 13.5438,-7.6174 a 15.2971,15.2971 0 0 0 0.0872,-2.0037 c -0.1431,-5.2911 -3.1359,-7.1718 -8.0895,-4.3857"
             id="path305" />
          <path
             d="m 473.05,230.09 -9.0186,5.0723 0.07,2.5912 6.0875,-3.4238 0.503,18.6022 c 0.12,4.4442 2.1987,5.6266 5.8725,3.56 a 18.1418,18.1418 0 0 0 4.5718,-3.71 l -0.8075,-1.9782 a 13.5634,13.5634 0 0 1 -3.2,2.6668 c -2.0491,1.1525 -3.4266,0.7515 -3.5,-1.9555 L 473.05,230.09"
             id="path307" />
          <path
             d="m 509.52,209.74 -2.1552,1.2121 0.0489,1.81 1.8038,-1.0145 c 3.6074,-2.0289 4.4436,-1.4778 4.5116,1.0339 0.06,2.2 -0.0882,4.7083 -0.0234,7.1041 0.0679,2.5117 0.8439,3.3244 3.2967,2.4152 l 0.004,0.1592 c -2.4279,1.8358 -3.1373,3.484 -3.0694,5.9957 0.0711,2.6274 0.3375,4.5131 0.4013,6.8727 0.0677,2.5044 -0.7141,3.9656 -4.3216,5.9945 l -1.8037,1.0144 0.0491,1.8169 2.1552,-1.2122 c 4.4562,-2.5063 6.474,-4.8168 6.3664,-8.7979 -0.0762,-2.8156 -0.45,-4.685 -0.52,-7.2691 -0.0407,-1.5055 0.8745,-3.5119 5.0512,-5.8978 l -0.0544,-2.0122 c -4.1787,2.3134 -5.1734,1.3811 -5.2141,-0.1244 -0.0657,-2.432 0.189,-4.9634 0.117,-7.6271 -0.1075,-3.9738 -2.1879,-3.9794 -6.6441,-1.4731"
             id="path309" />
          <path
             d="m 530.74,197.8046 -2.1618,1.2159 0.0489,1.81 1.81,-1.0182 c 3.6075,-2.0289 4.4437,-1.4778 4.5116,1.0339 0.06,2.2 -0.0881,4.7083 -0.0233,7.1042 0.0679,2.5116 0.8439,3.3244 3.2967,2.4151 l 0.004,0.1593 c -2.4278,1.8358 -3.1372,3.4839 -3.0693,5.9956 0.071,2.6274 0.3375,4.5131 0.4013,6.8727 0.0677,2.5044 -0.7142,3.9656 -4.3216,5.9945 l -1.81,1.0182 0.0491,1.8168 2.1618,-1.2159 c 4.4563,-2.5063 6.474,-4.8168 6.3664,-8.7979 -0.0762,-2.8156 -0.45,-4.685 -0.52,-7.2691 -0.0407,-1.5055 0.8745,-3.5119 5.0513,-5.8978 l -0.0545,-2.0122 c -4.1787,2.3135 -5.1733,1.3811 -5.214,-0.1244 -0.0658,-2.4321 0.1889,-4.9634 0.1169,-7.6271 -0.1075,-3.9738 -2.1878,-3.9794 -6.6441,-1.4731"
             id="path311" />
          <polyline
             points="331.663 360.401 318.736 377.547 318.803 380.023 332.256 382.333 332.172 379.242 321.351 377.414 321.347 377.255 331.746 363.492 331.663 360.401"
             id="polyline313" />
          <path
             d="m 346.2888,356.8042 c -4.7083,2.648 -7.086,6.3368 -7.0046,9.3479 0.0762,2.8156 2.3491,3.22 6.8724,1.6974 4.6966,-1.5833 5.3936,-0.9539 5.4322,0.472 0.0428,1.5852 -1.3343,3.69 -4.2388,5.3233 -3.1432,1.7679 -5.5047,2.0746 -7.5291,1.648 l -1.2886,2.8852 a 12.9016,12.9016 0 0 0 8.5342,-1.8239 c 4.92,-2.7674 7.57,-6.8444 7.4878,-9.8989 -0.0783,-2.8953 -1.4993,-3.6612 -7.2256,-1.8147 -3.563,1.1809 -5.0672,1.3215 -5.1111,-0.3 -0.0385,-1.4259 0.988,-3.2966 3.8859,-4.9265 a 8.765,8.765 0 0 1 5.8225,-1.276 l 1.3571,-2.8428 a 11.0229,11.0229 0 0 0 -6.9943,1.5089"
             id="path315" />
          <path
             d="m 368.2007,336.0886 -9.0186,5.0723 0.07,2.5912 6.0876,-3.4238 0.503,18.6022 c 0.12,4.4443 2.1987,5.6267 5.8791,3.5568 a 18.1362,18.1362 0 0 0 4.5652,-3.7066 l -0.8075,-1.9781 a 13.5619,13.5619 0 0 1 -3.2,2.6666 c -2.0491,1.1525 -3.4266,0.7516 -3.5,-1.9555 l -0.5793,-21.4251"
             id="path317" />
          <path
             d="m 392.0974,331.5105 -10.8887,6.1241 0.07,2.584 7.9576,-4.4756 0.4374,16.1774 2.931,-1.6485 -0.5072,-18.7614 m -2.0041,-7.8892 a 4.4669,4.4669 0 0 0 -2.2675,3.7811 c 0.0407,1.5055 1.055,1.92 2.4011,1.1626 a 4.4308,4.4308 0 0 0 2.2673,-3.7883 c -0.0395,-1.4621 -1.0614,-1.9088 -2.4009,-1.1554"
             id="path319" />
          <path
             d="m 409.8785,338.286 c -3.15,1.7716 -5.132,0.1748 -5.2529,-4.2984 -0.1159,-4.2851 2.214,-8.498 5.1849,-10.1689 a 4.7712,4.7712 0 0 1 4.5479,-0.3608 l 0.2525,9.3374 c -1.4685,2.707 -3.0348,4.5359 -4.7324,5.4907 m 7.0626,-29.61 -2.9377,1.6523 0.1953,7.2237 0.232,3.3525 -0.0663,0.0373 a 5.5665,5.5665 0 0 0 -5.23,0.5168 c -4.065,2.2863 -7.6764,8.1533 -7.5114,14.2551 0.1691,6.2538 3.236,8.1369 7.6923,5.6306 a 16.8853,16.8853 0 0 0 5.5441,-6.0942 l 0.1061,-0.06 0.3121,2.33 2.4072,-1.3538 -0.7433,-27.4908"
             id="path321" />
          <path
             d="m 426.09,320.3059 a 12.0917,12.0917 0 0 1 5.6779,-9.0352 c 2.9257,-1.6455 4.9316,-0.8381 5.2922,2.8654 l -10.97,6.17 m 5.5372,-11.4986 c -4.5955,2.5846 -8.673,8.64 -8.5083,14.7348 0.1691,6.2539 4.3722,7.5788 9.538,4.6734 a 22.1425,22.1425 0 0 0 6.5907,-5.9775 l -1.1239,-1.4841 a 17.4948,17.4948 0 0 1 -5.1842,4.716 c -3.5691,2.0074 -6.3915,1.4006 -6.8538,-2.6558 l 13.5438,-7.6174 a 15.28,15.28 0 0 0 0.0872,-2.0037 c -0.143,-5.2911 -3.1359,-7.1718 -8.0895,-4.3857"
             id="path323" />
          <path
             d="m 457.2709,294.3847 c -3.183,1.79 -5.8253,5.1575 -7.5466,9.2192 l -0.0663,0.0373 -0.4051,-4.2766 -2.44,1.3725 0.5072,18.7614 2.9377,-1.6522 -0.2968,-10.9663 c 1.9426,-5.09 4.3444,-7.8885 6.924,-9.3394 a 9.0151,9.0151 0 0 1 3.2,-1.1749 l 0.6022,-3.1237 a 7.27,7.27 0 0 0 -3.416,1.1423"
             id="path325" />
          <path
             d="m 503.5768,268.8113 -2.8315,1.5925 -3.6721,12.8378 c -0.6582,2.2955 -1.1718,4.4655 -1.7261,6.6217 l -0.1393,0.0783 q -0.9789,-2.2161 -2.06,-4.492 l -4.2458,-8.3846 -3.0107,1.6933 7.762,14.6811 3.2891,-1.85 6.6347,-22.7782"
             id="path327" />
          <polyline
             points="523.687 262.394 508.482 270.947 508.547 273.342 523.752 264.79 523.687 262.394"
             id="polyline329" />
          <path
             d="m 542.47,246.4661 c -1.9828,1.1152 -3.0105,2.9424 -3.9442,5.51 -0.5559,-1.8844 -1.6461,-2.3662 -3.3437,-1.4114 -1.9827,1.1152 -3.0115,2.9062 -3.8464,5.1394 l -0.073,0.0411 -0.3121,-2.33 -2.3342,1.3129 0.5072,18.7614 2.8979,-1.63 -0.3675,-13.5934 c 0.7968,-2.4028 1.553,-3.8128 2.7533,-4.4879 1.2732,-0.7161 1.8009,0.1261 1.8594,2.29 l 0.357,13.2025 2.6857,-1.51 -0.3675,-13.5934 c 0.87,-2.4438 1.48,-3.7718 2.68,-4.4468 1.2732,-0.7162 1.8672,0.0888 1.9258,2.253 l 0.3569,13.2025 2.9045,-1.6336 -0.3632,-13.434 c -0.1014,-3.7494 -1.5757,-4.9925 -3.9762,-3.6424"
             id="path331" />
          <path
             d="m 558.8459,254.5392 c -3.2891,1.85 -5.5614,0.2254 -5.6773,-4.06 -0.1168,-4.3212 2,-8.451 5.289,-10.3009 3.289,-1.8499 5.5558,-0.1854 5.6726,4.1358 0.1159,4.285 -1.9952,8.3749 -5.2843,10.2248 m -0.46,-17.0243 a 16.9693,16.9693 0 0 0 -8.2276,14.6579 c 0.1681,6.2176 4.2307,7.5774 8.76,5.03 a 16.9409,16.9409 0 0 0 8.223,-14.5818 c -0.17,-6.29 -4.2327,-7.65 -8.7553,-5.1062"
             id="path333" />
          <path
             d="m 579.6408,242.8068 c -3.15,1.7716 -5.1319,0.1748 -5.2529,-4.2984 -0.1158,-4.285 2.2141,-8.4979 5.1849,-10.1688 a 4.7712,4.7712 0 0 1 4.5479,-0.3608 l 0.2525,9.3374 c -1.4685,2.707 -3.0348,4.5358 -4.7324,5.4906 m 7.0626,-29.61 -2.9377,1.6522 0.1953,7.2237 0.232,3.3526 -0.0662,0.0373 a 5.5664,5.5664 0 0 0 -5.2305,0.5168 c -4.065,2.2863 -7.683,8.157 -7.518,14.2588 0.1691,6.2538 3.236,8.1369 7.6989,5.6268 a 16.8842,16.8842 0 0 0 5.5441,-6.0941 l 0.1061,-0.06 0.3121,2.33 2.4072,-1.3539 -0.7433,-27.4907"
             id="path335" />
          <path
             d="m 595.8463,224.83 a 12.1072,12.1072 0 0 1 5.6842,-9.0389 c 2.9257,-1.6455 4.9259,-0.8348 5.2857,2.8691 l -10.97,6.17 m 5.5435,-11.5023 c -4.5955,2.5847 -8.673,8.64 -8.5082,14.7349 0.1691,6.2538 4.3721,7.5788 9.5379,4.6734 a 22.0723,22.0723 0 0 0 6.5841,-5.9738 l -1.1173,-1.4878 a 17.4948,17.4948 0 0 1 -5.1842,4.716 c -3.569,2.0073 -6.3972,1.4038 -6.86,-2.6521 l 13.55,-7.6211 a 16.4873,16.4873 0 0 0 0.0872,-2.0037 c -0.143,-5.2912 -3.1358,-7.1718 -8.0895,-4.3858"
             id="path337" />
          <path
             d="m 622.8442,192.87 -9.0186,5.0723 0.07,2.5912 6.0809,-3.42 0.503,18.6022 c 0.12,4.4443 2.2053,5.623 5.879,3.5568 a 18.1426,18.1426 0 0 0 4.5719,-3.71 l -0.8075,-1.9781 a 13.5633,13.5633 0 0 1 -3.2,2.6667 c -2.0491,1.1524 -3.4265,0.7515 -3.5,-1.9556 l -0.5793,-21.4251"
             id="path339" />
          <path
             d="m 651.1209,194.9181 -15.2057,8.5519 0.0648,2.3958 15.2057,-8.5521 -0.0648,-2.3958 m -0.2233,-8.2587 -15.2057,8.552 0.0646,2.3886 15.2057,-8.5521 -0.0646,-2.3885"
             id="path341" />
          <path
             d="m 660.1327,172.4122 a 5.1921,5.1921 0 0 0 -2.5314,4.4806 c 0.0439,1.6213 1.0964,2.2051 2.5818,1.37 a 4.0717,4.0717 0 0 0 0.9307,-0.7628 13.8736,13.8736 0 0 1 -3.5308,8.1773 l 1.0448,1.2935 c 3.1351,-3.5635 4.9262,-7.7821 4.8217,-11.6473 -0.08,-2.9677 -1.44,-3.9664 -3.3168,-2.9109 m 8.1366,-4.5763 a 5.1921,5.1921 0 0 0 -2.5313,4.4806 c 0.0438,1.6213 1.0964,2.2051 2.5818,1.37 a 4.0738,4.0738 0 0 0 0.9307,-0.7628 13.8742,13.8742 0 0 1 -3.5308,8.1773 l 1.0381,1.2973 c 3.1418,-3.5673 4.9263,-7.7822 4.8218,-11.6474 -0.08,-2.9676 -1.4336,-3.97 -3.31,-2.9146"
             id="path343" />
          <path
             d="m 686.5051,157.0652 -9.0187,5.0724 0.07,2.5912 6.0809,-3.42 0.503,18.6022 c 0.12,4.4443 2.1987,5.6267 5.8791,3.5567 a 18.14,18.14 0 0 0 4.5718,-3.71 l -0.8075,-1.978 a 13.5624,13.5624 0 0 1 -3.2,2.6666 c -2.0491,1.1524 -3.4266,0.7515 -3.5,-1.9556 l -0.5793,-21.4251"
             id="path345" />
          <path
             d="m 701.9475,165.1561 a 12.0919,12.0919 0 0 1 5.6778,-9.0353 c 2.9319,-1.6489 4.9325,-0.8385 5.2924,2.8653 l -10.97,6.17 m 5.5438,-11.5024 c -4.6021,2.5883 -8.6731,8.64 -8.5083,14.7349 0.1691,6.2538 4.3722,7.5787 9.538,4.6733 a 22.0732,22.0732 0 0 0 6.5841,-5.9737 L 713.9877,165.6 a 17.5257,17.5257 0 0 1 -5.1842,4.7161 c -3.569,2.0073 -6.3972,1.4038 -6.86,-2.6522 l 13.55,-7.6211 a 16.4873,16.4873 0 0 0 0.0872,-2.0037 c -0.1431,-5.2911 -3.1359,-7.1718 -8.0895,-4.3857"
             id="path347" />
          <path
             d="m 737,137.5275 -2.8315,1.5925 -3.6721,12.8378 c -0.6582,2.2955 -1.1718,4.4655 -1.7261,6.6217 l -0.1393,0.0783 q -0.9789,-2.2161 -2.06,-4.492 l -4.2524,-8.3809 -3.0041,1.69 7.7554,14.6849 3.2891,-1.85 6.641,-22.7823"
             id="path349" />
          <path
             d="m 744.3881,141.2863 a 12.0918,12.0918 0 0 1 5.6778,-9.0353 c 2.9319,-1.6489 4.9325,-0.8385 5.2924,2.8654 l -10.97,6.17 m 5.5438,-11.5024 c -4.6022,2.5884 -8.6731,8.64 -8.5083,14.7349 0.1691,6.2538 4.3721,7.5787 9.5313,4.6771 a 22.1116,22.1116 0 0 0 6.5908,-5.9775 l -1.1174,-1.4879 a 17.5257,17.5257 0 0 1 -5.1842,4.7161 c -3.569,2.0073 -6.3972,1.4038 -6.86,-2.6522 l 13.5437,-7.6173 a 15.2379,15.2379 0 0 0 0.0939,-2.0075 c -0.1431,-5.2911 -3.1425,-7.168 -8.0895,-4.3857"
             id="path351" />
          <path
             d="m 771.3862,109.3257 -9.0186,5.0723 0.07,2.5912 6.0809,-3.42 0.503,18.6022 c 0.12,4.4443 2.1987,5.6267 5.8791,3.5568 a 18.1794,18.1794 0 0 0 4.5718,-3.71 l -0.8075,-1.9781 a 13.6444,13.6444 0 0 1 -3.2,2.6666 c -2.0491,1.1525 -3.4266,0.7515 -3.5,-1.9555 l -0.5793,-21.4251"
             id="path353" />
          <path
             d="m 787.4544,100.8028 a 5.1922,5.1922 0 0 0 -2.5313,4.4806 c 0.0438,1.6214 1.0964,2.2051 2.5818,1.37 a 4.0708,4.0708 0 0 0 0.9306,-0.7628 13.8739,13.8739 0 0 1 -3.5307,8.1774 l 1.0447,1.2935 c 3.1351,-3.5636 4.92,-7.7784 4.8152,-11.6437 -0.08,-2.9676 -1.4336,-3.97 -3.31,-2.9146 m 8.1367,-4.5762 a 5.2041,5.2041 0 0 0 -2.538,4.4843 c 0.0438,1.6213 1.103,2.2013 2.5884,1.3659 a 4.0767,4.0767 0 0 0 0.9307,-0.7643 13.9069,13.9069 0 0 1 -3.5308,8.1788 l 1.0382,1.2972 c 3.1351,-3.5635 4.9262,-7.7821 4.8217,-11.6473 -0.08,-2.9677 -1.4335,-3.97 -3.31,-2.9146"
             id="path355" />
          <polyline
             points="806.076 93.578 806.159 96.668 816.98 98.497 816.984 98.656 806.585 112.419 806.669 115.509 819.595 98.363 819.528 95.888 806.076 93.578"
             id="polyline357" />
          <polyline
             points="290.475 430.595 277.548 447.742 277.615 450.217 291.068 452.527 290.984 449.436 280.163 447.608 280.159 447.449 290.558 433.686 290.475 430.595"
             id="polyline359" />
          <polyline
             points="311.882 414.874 309.263 416.347 298.573 456.455 301.185 454.986 311.882 414.874"
             id="polyline361" />
          <path
             d="m 325.5434,432.8649 c -1.9828,1.1152 -3.77,1.2532 -3.8271,-0.8676 -0.0669,-2.4755 2.1185,-5.3066 9.4558,-10.0653 l 0.1315,4.8641 c -1.9279,2.8921 -3.8172,4.976 -5.76,6.0688 m 1.3081,-18.1 a 28.5122,28.5122 0 0 0 -7.6061,7.0188 l 1.2257,1.5078 a 22.864,22.864 0 0 1 5.9539,-5.6266 c 3.329,-1.8723 4.5148,-0.3421 4.69,2.1461 -8.8584,5.7685 -12.4107,9.8386 -12.2968,14.0512 0.0908,3.3585 2.7966,3.8354 6.0194,2.0228 2.4072,-1.3538 4.8431,-4.1347 6.676,-6.8116 l 0.106,-0.06 0.3143,2.41 2.44,-1.3725 -0.3112,-11.5087 c -0.1262,-4.6687 -2.51,-6.4218 -7.2113,-3.7775"
             id="path363" />
          <path
             d="m 352.422,400.3837 c -3.1831,1.79 -5.8253,5.1575 -7.5466,9.2192 l -0.0663,0.0373 -0.4051,-4.2767 -2.44,1.3726 0.5073,18.7614 2.9377,-1.6523 -0.2965,-10.9658 c 1.9426,-5.09 4.3444,-7.8885 6.9306,-9.3431 a 9.07,9.07 0 0 1 3.2,-1.175 l 0.5956,-3.12 a 7.2709,7.2709 0 0 0 -3.416,1.1424"
             id="path365" />
          <polyline
             points="376.405 392.259 361.192 400.815 361.257 403.211 376.469 394.655 376.405 392.259"
             id="polyline367" />
          <path
             d="m 393.35,377.835 -10.8887,6.1241 0.07,2.584 7.9576,-4.4756 0.4374,16.1774 2.9311,-1.6485 -0.5074,-18.7614 m -2.0041,-7.8892 a 4.4671,4.4671 0 0 0 -2.2675,3.7811 c 0.0407,1.5055 1.055,1.92 2.4012,1.1626 a 4.431,4.431 0 0 0 2.2673,-3.7883 c -0.04,-1.4621 -1.0614,-1.9088 -2.401,-1.1554"
             id="path369" />
          <path
             d="m 410.5545,362.0448 -2.44,1.3725 -0.2284,6.2423 -4.9817,2.9929 0.0648,2.3958 4.8807,-2.745 0.24,8.8812 c 0.1252,4.6325 1.8411,6.8419 6.861,4.0186 a 25.41,25.41 0 0 0 5.3477,-4.1467 l -0.7,-1.9944 a 19.2905,19.2905 0 0 1 -4.0819,3.1556 c -3.3223,1.8685 -4.3971,0.7094 -4.4879,-2.6491 l -0.2412,-8.9175 8.4152,-4.7329 -0.07,-2.584 -8.4151,4.7329 -0.1629,-6.0222"
             id="path371" />
          <path
             d="m 427.3429,366.63 a 12.0916,12.0916 0 0 1 5.6778,-9.0352 c 2.9257,-1.6455 4.9316,-0.8381 5.2922,2.8654 l -10.97,6.17 m 5.5371,-11.4986 c -4.5955,2.5847 -8.673,8.64 -8.5082,14.7348 0.1693,6.2611 4.3721,7.5788 9.5379,4.6734 a 22.1416,22.1416 0 0 0 6.5908,-5.9775 l -1.124,-1.4841 a 17.4951,17.4951 0 0 1 -5.1842,4.7161 c -3.569,2.0073 -6.3914,1.4 -6.8538,-2.6558 l 13.5438,-7.6174 a 15.2805,15.2805 0 0 0 0.0873,-2.0038 c -0.1431,-5.2911 -3.136,-7.1717 -8.09,-4.3857"
             id="path373" />
          <path
             d="m 458.8418,340.53 c -1.9828,1.1152 -3.0106,2.9424 -3.9442,5.51 -0.5559,-1.8844 -1.6461,-2.3662 -3.3437,-1.4114 -1.9828,1.1152 -3.0115,2.9062 -3.8465,5.1394 l -0.0729,0.0411 -0.3121,-2.33 -2.3343,1.3129 0.5073,18.7614 2.8979,-1.63 -0.3675,-13.5933 c 0.7967,-2.4028 1.553,-3.8128 2.7533,-4.4879 1.2732,-0.7161 1.8009,0.1261 1.8594,2.29 l 0.357,13.2025 2.6857,-1.5106 -0.3676,-13.5933 c 0.87,-2.4438 1.48,-3.7718 2.68,-4.4468 1.2733,-0.7161 1.8673,0.0888 1.9258,2.253 l 0.357,13.2025 2.9045,-1.6336 -0.3632,-13.4341 c -0.1014,-3.7494 -1.5757,-4.9924 -3.9762,-3.6423"
             id="path375" />
          <polyline
             points="467.803 330.861 467.887 333.951 478.708 335.779 478.712 335.939 468.313 349.702 468.396 352.792 481.33 335.642 481.263 333.167 467.803 330.861"
             id="polyline377" />
        </g>
      </g>
      <g
         transform="translate(-176.33247,-436.34037)"
         style="isolation:isolate"
         id="g405">
        <g
           clip-path="url(#clip-path-5)"
           id="g403">
          <path
             d="m 1111.7294,1283.891 a 6.2043,6.2043 0 0 0 -2.6495,4.612 l 4.989,-2.8069 c 0.03,-1.2361 -0.42,-2.8849 -2.34,-1.8051 m 18.8768,-10.6206 a 6.2178,6.2178 0 0 0 -2.6494,4.612 l 4.9955,-2.8106 c 0.029,-1.2361 -0.42,-2.8849 -2.3461,-1.8014 m -32.1254,52.83 c 0.361,-5.63 4.4148,-12.2034 9.3265,-14.9669 4.9117,-2.7635 8.8948,-0.712 9.1663,4.5624 l 56.8517,-31.9862 c 0.3942,-0.2219 0.7079,-0.043 0.7043,0.3949 a 1.5351,1.5351 0 0 1 -0.7174,1.1948 l -56.8651,31.9938 c -0.447,5.5826 -4.4606,12.0261 -9.3113,14.7551 -4.8507,2.729 -8.7953,0.7633 -9.1545,-4.3657 l -20.5068,11.5374 c -0.3878,0.2182 -0.7014,0.039 -0.6979,-0.3985 a 1.5333,1.5333 0 0 1 0.7109,-1.1912 l 20.4938,-11.53 m 27.1264,-51.15 -3.777,12.6866 -1.6351,0.92 -3.4867,-8.6 1.8289,-1.029 1.7929,4.9217 a 19.1558,19.1558 0 0 1 0.7339,2.2946 l 0.058,-0.033 c 0.22,-0.9951 0.5054,-2.0266 0.8236,-3.171 l 1.8713,-6.9833 1.79,-1.0071 m -13.6083,18.4357 c -2.8951,1.6289 -4.6094,0.452 -4.5832,-2.7493 a 9.738,9.738 0 0 1 4.4607,-8.2007 c 3.07,-1.7271 3.8591,0.8557 3.843,2.81 a 9.1918,9.1918 0 0 1 -0.065,0.93 l -6.6046,3.716 c 0.017,2.5888 1.482,2.8318 3.1946,1.8683 a 10.7144,10.7144 0 0 0 2.6088,-2.0122 l 0.28,1.2219 a 13.231,13.231 0 0 1 -3.1333,2.4162 m 18.8769,-10.6206 c -2.8952,1.6289 -4.6031,0.4484 -4.5768,-2.753 a 9.7256,9.7256 0 0 1 4.4543,-8.197 c 3.07,-1.7271 3.859,0.8558 3.8429,2.81 a 9.1975,9.1975 0 0 1 -0.065,0.93 l -6.6047,3.716 c 0.017,2.5889 1.4885,2.8282 3.1946,1.8683 a 10.6368,10.6368 0 0 0 2.6088,-2.0122 l 0.28,1.222 a 13.1509,13.1509 0 0 1 -3.1332,2.4161 m 14.925,-20.5558 -0.4409,-1.1456 a 11.4683,11.4683 0 0 1 3.3178,-2.9555 c 2.4815,-1.3962 3.5989,-0.37 3.5847,1.3658 a 6.9082,6.9082 0 0 1 -2.3605,4.6671 v 0.044 c 1.5481,-0.5226 2.804,0.077 2.7876,2.0755 -0.019,2.2753 -1.6118,5.16 -4.6427,6.8658 a 5.543,5.543 0 0 1 -3.275,0.8772 l 0.4775,-1.75 a 4.8291,4.8291 0 0 0 2.7909,-0.6774 5.2386,5.2386 0 0 0 2.8791,-4.3709 c 0,-1.98 -1.5859,-1.9387 -3.24,-1.0079 l -0.95,0.5345 0.012,-1.4512 0.95,-0.5345 c 1.2473,-0.7018 2.8235,-2.3072 2.8373,-3.9918 0.01,-1.1449 -0.6221,-1.7913 -2.1989,-0.9041 a 9.0486,9.0486 0 0 0 -2.5281,2.3587 m -46.5844,38.1506 0.1211,-14.7745 1.6867,-0.949 -0.108,13.17 5.5966,-3.1488 -0.013,1.6044 -7.2832,4.0977 m 37.45,-21.07 0.1277,-15.5694 1.706,-0.96 -0.1276,15.5694 -1.7061,0.96 m 43.1,-62.8586 -106.4884,59.9132 c -7.671,4.3158 -13.9714,14.8727 -14.0424,23.5288 l -0.5311,64.7936 c -0.071,8.6562 6.114,12.1884 13.7849,7.8725 l 106.4884,-59.9132 c 7.671,-4.3159 13.9715,-14.8727 14.0424,-23.5289 l 0.5312,-64.7936 c 0.071,-8.6561 -6.114,-12.1883 -13.785,-7.8724"
             style="fill:#f2f2f2"
             id="path383" />
          <path
             d="m 1072.49,1372.5387 c -7.6709,4.3159 -13.8559,0.7837 -13.7849,-7.8725 l 0.5311,-64.7936 c 0.071,-8.6561 6.3714,-19.213 14.0424,-23.5288 l 106.4884,-59.9132 c 7.671,-4.3159 13.8559,-0.7837 13.785,7.8724 l -0.5312,64.7936 c -0.071,8.6562 -6.3714,19.213 -14.0424,23.5289 l -106.4884,59.9132 m 107.2786,-156.3123 -106.488,59.9136 c -7.7678,4.37 -14.1466,15.0657 -14.2185,23.8312 l -0.5312,64.7936 c -0.072,8.7655 6.19,12.3416 13.9579,7.9712 l 106.4884,-59.9132 c 7.7678,-4.37 14.1466,-15.0584 14.2185,-23.8239 l 0.5311,-64.7936 c 0.072,-8.7655 -6.19,-12.3489 -13.9578,-7.9785"
             style="fill:#e6e6e6"
             id="path385" />
          <path
             d="m 1116.9471,1317.2931 -18.4658,10.3894 c 0.3592,5.129 4.304,7.0948 9.1545,4.3657 4.8505,-2.7291 8.8643,-9.1725 9.3113,-14.7551 m -9.14,-6.16 c -4.9117,2.7635 -8.9655,9.3367 -9.3265,14.9669 l 18.4928,-10.4045 c -0.2715,-5.2744 -4.2545,-7.3259 -9.1663,-4.5624"
             style="fill:#666666"
             id="path387" />
          <path
             d="m 1173.8253,1283.71 -56.8517,31.9862 -18.4928,10.4038 -20.4938,11.53 a 1.5333,1.5333 0 0 0 -0.7109,1.1912 c 0,0.4375 0.31,0.6167 0.6979,0.3985 l 20.5073,-11.5379 18.4658,-10.3894 56.8651,-31.9938 a 1.5351,1.5351 0 0 0 0.7174,-1.1948 c 0,-0.4376 -0.31,-0.6168 -0.7043,-0.3949"
             style="fill:#666666"
             id="path389" />
          <polyline
             points="1101.026 1284.636 1099.339 1285.585 1099.218 1300.36 1106.501 1296.262 1106.514 1294.657 1100.918 1297.806 1101.026 1284.636"
             id="polyline391" />
          <path
             d="m 1109.08,1288.503 a 6.2043,6.2043 0 0 1 2.6495,-4.612 c 1.9194,-1.08 2.369,0.569 2.34,1.8051 l -4.989,2.8069 m 2.7965,-6.0666 a 9.738,9.738 0 0 0 -4.4607,8.2007 c -0.026,3.2013 1.6881,4.3782 4.5832,2.7493 a 13.231,13.231 0 0 0 3.1333,-2.4162 l -0.28,-1.2219 a 10.7144,10.7144 0 0 1 -2.6088,2.0122 c -1.7126,0.9635 -3.1772,0.72 -3.1946,-1.8683 l 6.6046,-3.716 a 9.1918,9.1918 0 0 0 0.065,-0.93 c 0.016,-1.9544 -0.7733,-4.5372 -3.843,-2.81"
             id="path393" />
          <path
             d="m 1125.6072,1274.9507 -1.79,1.0071 -1.8713,6.9833 c -0.3182,1.1444 -0.6032,2.1759 -0.8236,3.171 l -0.058,0.033 a 19.1558,19.1558 0 0 0 -0.7339,-2.2946 l -1.7929,-4.9217 -1.8289,1.029 3.4867,8.6 1.6351,-0.92 3.777,-12.6866"
             id="path395" />
          <path
             d="m 1127.9568,1277.8824 a 6.2178,6.2178 0 0 1 2.6494,-4.612 c 1.9258,-1.0835 2.3755,0.5653 2.3461,1.8014 l -4.9955,2.8106 m 2.7965,-6.0666 a 9.7256,9.7256 0 0 0 -4.4543,8.197 c -0.026,3.2014 1.6816,4.3819 4.5768,2.753 a 13.1509,13.1509 0 0 0 3.1332,-2.4161 l -0.28,-1.222 a 10.6368,10.6368 0 0 1 -2.6088,2.0122 c -1.7061,0.96 -3.1772,0.7206 -3.1946,-1.8683 l 6.6047,-3.716 a 9.1975,9.1975 0 0 0 0.065,-0.93 c 0.016,-1.9543 -0.7732,-4.5372 -3.8429,-2.81"
             id="path397" />
          <polyline
             points="1138.502 1262.76 1136.796 1263.72 1136.668 1279.289 1138.374 1278.329 1138.502 1262.76"
             id="polyline399" />
          <path
             d="m 1148.6777,1258.1089 a 11.4683,11.4683 0 0 0 -3.3178,2.9555 l 0.4409,1.1456 a 9.0486,9.0486 0 0 1 2.5281,-2.3587 c 1.5768,-0.8872 2.2083,-0.2408 2.1989,0.9041 -0.014,1.6846 -1.59,3.29 -2.8373,3.9918 l -0.95,0.5345 -0.012,1.4512 0.95,-0.5345 c 1.6544,-0.9308 3.2371,-0.972 3.24,1.0079 a 5.2386,5.2386 0 0 1 -2.8791,4.3709 4.8291,4.8291 0 0 1 -2.7909,0.6774 l -0.4775,1.75 a 5.543,5.543 0 0 0 3.275,-0.8772 c 3.0309,-1.7053 4.6241,-4.5905 4.6427,-6.8658 0.016,-1.9981 -1.24,-2.5981 -2.7876,-2.0755 v -0.044 a 6.9082,6.9082 0 0 0 2.3605,-4.6671 c 0.014,-1.7356 -1.1032,-2.762 -3.5847,-1.3658"
             id="path401" />
        </g>
      </g>
      <line
         x1="515.79102"
         y1="945"
         x2="515.79102"
         y2="945"
         style="fill:none;stroke:#000000;stroke-width:3px;stroke-linecap:round;stroke-linejoin:round"
         id="line407" />
      <line
         x1="515.78522"
         y1="939.0127"
         x2="515.41223"
         y2="552.82971"
         style="fill:none;stroke:#000000;stroke-width:3px;stroke-linecap:round;stroke-linejoin:round;stroke-dasharray:0, 5.98734"
         id="line409" />
      <line
         x1="515.4093"
         y1="549.83612"
         x2="515.4093"
         y2="549.83612"
         style="fill:none;stroke:#000000;stroke-width:3px;stroke-linecap:round;stroke-linejoin:round"
         id="line411" />
      <line
         x1="510.28571"
         y1="546.86877"
         x2="492.35284"
         y2="536.48358"
         style="fill:none;stroke:#000000;stroke-width:3px;stroke-linecap:round;stroke-linejoin:round;stroke-dasharray:0, 5.92084"
         id="line413" />
      <line
         x1="489.79102"
         y1="535"
         x2="489.79102"
         y2="535"
         style="fill:none;stroke:#000000;stroke-width:3px;stroke-linecap:round;stroke-linejoin:round"
         id="line415" />
    </g>
  </g>
</svg>
