<?xml version="1.0" encoding="UTF-8" standalone="no"?>
<svg
   xmlns:dc="http://purl.org/dc/elements/1.1/"
   xmlns:cc="http://creativecommons.org/ns#"
   xmlns:rdf="http://www.w3.org/1999/02/22-rdf-syntax-ns#"
   xmlns:svg="http://www.w3.org/2000/svg"
   xmlns="http://www.w3.org/2000/svg"
   height="119.49928"
   width="852.07404"
   version="1.1"
   viewBox="0 0 852.07404 119.49928"
   id="svg_banner-light"
   data-brackets-id="17">
  <metadata
     id="metadata294">
    <rdf:RDF>
      <cc:Work
         rdf:about="">
        <dc:format>image/svg+xml</dc:format>
        <dc:type
           rdf:resource="http://purl.org/dc/dcmitype/StillImage" />
        <dc:title></dc:title>
      </cc:Work>
    </rdf:RDF>
  </metadata>
  <defs
     id="defs153" />
  <g
     id="g289"
     class="technokrat-logo"
     transform="matrix(68.8935,0,0,68.8935,64.179981,59.749638)">
    <g
       id="g265"
       class="cube">
      <g
         id="g163"
         class="mini-cube-0">
        <polyline
           id="polyline155"
           class="index-0"
           style="stroke-width:0.0025;stroke-linecap:round;stroke-linejoin:bevel"
           stroke="#f44242"
           fill="#f44242"
           points="-0.8930000000000001,0.022516660498395402,-0.8180000000000002,0.022516660498395402,-0.7805000000000001,-0.04243524478543753,-0.8180000000000001,-0.10738715006927035,-0.893,-0.10738715006927035,-0.9305000000000001,-0.04243524478543742,-0.8930000000000001,0.022516660498395402" />
        <polyline
           id="polyline157"
           class="index-1"
           style="stroke-width:0.0025;stroke-linecap:round;stroke-linejoin:bevel"
           stroke="#f24040"
           fill="#f24040"
           points="-0.893,-0.10738715006927035,-0.9305000000000001,-0.04243524478543742,-0.8930000000000001,0.022516660498395402,-0.8555,-0.04243524478543753,-0.893,-0.10738715006927035" />
        <polyline
           id="polyline159"
           class="index-2"
           style="stroke-width:0.0025;stroke-linecap:round;stroke-linejoin:bevel"
           stroke="#fd4b48"
           fill="#fd4b48"
           points="-0.7805000000000001,-0.04243524478543753,-0.8180000000000001,-0.10738715006927035,-0.893,-0.10738715006927035,-0.8555,-0.04243524478543753,-0.7805000000000001,-0.04243524478543753" />
        <polyline
           id="polyline161"
           class="index-3"
           style="stroke-width:0.0025;stroke-linecap:round;stroke-linejoin:bevel"
           stroke="#f84645"
           fill="#f84645"
           points="-0.8930000000000001,0.022516660498395402,-0.8180000000000002,0.022516660498395402,-0.7805000000000001,-0.04243524478543753,-0.8555,-0.04243524478543753,-0.8930000000000001,0.022516660498395402" />
      </g>
      <g
         id="g173"
         class="mini-cube-1">
        <polyline
           id="polyline165"
           class="index-0"
           style="stroke-width:0.0025;stroke-linecap:round;stroke-linejoin:bevel"
           stroke="#f44242"
           fill="#f44242"
           points="-0.7535000000000001,-0.23642493523315178,-0.6785000000000001,-0.23642493523315178,-0.6410000000000001,-0.30137684051698466,-0.6785000000000001,-0.36632874580081753,-0.7535000000000002,-0.36632874580081753,-0.7910000000000001,-0.30137684051698466,-0.7535000000000001,-0.23642493523315178" />
        <polyline
           id="polyline167"
           class="index-1"
           style="stroke-width:0.0025;stroke-linecap:round;stroke-linejoin:bevel"
           stroke="#f24040"
           fill="#f24040"
           points="-0.7535000000000002,-0.36632874580081753,-0.7910000000000001,-0.30137684051698466,-0.7535000000000001,-0.23642493523315178,-0.7160000000000001,-0.30137684051698466,-0.7535000000000002,-0.36632874580081753" />
        <polyline
           id="polyline169"
           class="index-2"
           style="stroke-width:0.0025;stroke-linecap:round;stroke-linejoin:bevel"
           stroke="#fd4b48"
           fill="#fd4b48"
           points="-0.6410000000000001,-0.30137684051698466,-0.6785000000000001,-0.36632874580081753,-0.7535000000000002,-0.36632874580081753,-0.7160000000000001,-0.30137684051698466,-0.6410000000000001,-0.30137684051698466" />
        <polyline
           id="polyline171"
           class="index-3"
           style="stroke-width:0.0025;stroke-linecap:round;stroke-linejoin:bevel"
           stroke="#f84645"
           fill="#f84645"
           points="-0.7535000000000001,-0.23642493523315178,-0.6785000000000001,-0.23642493523315178,-0.6410000000000001,-0.30137684051698466,-0.7160000000000001,-0.30137684051698466,-0.7535000000000001,-0.23642493523315178" />
      </g>
      <g
         id="g183"
         class="mini-cube-2">
        <polyline
           id="polyline175"
           class="index-0"
           style="stroke-width:0.0025;stroke-linecap:round;stroke-linejoin:bevel"
           stroke="#f44242"
           fill="#f44242"
           points="-0.49050000000000005,-0.7040786532767486,-0.4155,-0.7040786532767486,-0.37799999999999995,-0.7690305585605814,-0.41550000000000004,-0.8339824638444142,-0.4905,-0.8339824638444142,-0.528,-0.7690305585605814,-0.49050000000000005,-0.7040786532767486" />
        <polyline
           id="polyline177"
           class="index-1"
           style="stroke-width:0.0025;stroke-linecap:round;stroke-linejoin:bevel"
           stroke="#f24040"
           fill="#f24040"
           points="-0.4905,-0.8339824638444142,-0.528,-0.7690305585605814,-0.49050000000000005,-0.7040786532767486,-0.453,-0.7690305585605814,-0.4905,-0.8339824638444142" />
        <polyline
           id="polyline179"
           class="index-2"
           style="stroke-width:0.0025;stroke-linecap:round;stroke-linejoin:bevel"
           stroke="#fd4b48"
           fill="#fd4b48"
           points="-0.37799999999999995,-0.7690305585605814,-0.41550000000000004,-0.8339824638444142,-0.4905,-0.8339824638444142,-0.453,-0.7690305585605814,-0.37799999999999995,-0.7690305585605814" />
        <polyline
           id="polyline181"
           class="index-3"
           style="stroke-width:0.0025;stroke-linecap:round;stroke-linejoin:bevel"
           stroke="#f84645"
           fill="#f84645"
           points="-0.49050000000000005,-0.7040786532767486,-0.4155,-0.7040786532767486,-0.37799999999999995,-0.7690305585605814,-0.453,-0.7690305585605814,-0.49050000000000005,-0.7040786532767486" />
      </g>
      <g
         id="g193"
         class="mini-cube-3">
        <polyline
           id="polyline185"
           class="index-0"
           style="stroke-width:0.0025;stroke-linecap:round;stroke-linejoin:bevel"
           stroke="#f44242"
           fill="#f44242"
           points="-0.62,-0.4676537180435969,-0.545,-0.4676537180435969,-0.5075000000000001,-0.5326056233274298,-0.545,-0.5975575286112625,-0.6200000000000001,-0.5975575286112625,-0.6575000000000001,-0.5326056233274297,-0.62,-0.4676537180435969" />
        <polyline
           id="polyline187"
           class="index-1"
           style="stroke-width:0.0025;stroke-linecap:round;stroke-linejoin:bevel"
           stroke="#f24040"
           fill="#f24040"
           points="-0.6200000000000001,-0.5975575286112625,-0.6575000000000001,-0.5326056233274297,-0.62,-0.4676537180435969,-0.5825,-0.5326056233274298,-0.6200000000000001,-0.5975575286112625" />
        <polyline
           id="polyline189"
           class="index-2"
           style="stroke-width:0.0025;stroke-linecap:round;stroke-linejoin:bevel"
           stroke="#fd4b48"
           fill="#fd4b48"
           points="-0.5075000000000001,-0.5326056233274298,-0.545,-0.5975575286112625,-0.6200000000000001,-0.5975575286112625,-0.5825,-0.5326056233274298,-0.5075000000000001,-0.5326056233274298" />
        <polyline
           id="polyline191"
           class="index-3"
           style="stroke-width:0.0025;stroke-linecap:round;stroke-linejoin:bevel"
           stroke="#f84645"
           fill="#f84645"
           points="-0.62,-0.4676537180435969,-0.545,-0.4676537180435969,-0.5075000000000001,-0.5326056233274298,-0.5825,-0.5326056233274298,-0.62,-0.4676537180435969" />
      </g>
      <g
         id="g203"
         class="mini-cube-4">
        <polyline
           id="polyline195"
           class="index-0"
           style="stroke-width:0.0025;stroke-linecap:round;stroke-linejoin:bevel"
           stroke="#f44242"
           fill="#f44242"
           points="-0.7995000000000001,0.2762621038072359,-0.6995,0.2762621038072359,-0.6495000000000001,0.1896595634287921,-0.6995,0.10305702305034825,-0.7995,0.10305702305034825,-0.8495,0.1896595634287921,-0.7995000000000001,0.2762621038072359" />
        <polyline
           id="polyline197"
           class="index-1"
           style="stroke-width:0.0025;stroke-linecap:round;stroke-linejoin:bevel"
           stroke="#f24040"
           fill="#f24040"
           points="-0.7995,0.10305702305034825,-0.8495,0.1896595634287921,-0.7995000000000001,0.2762621038072359,-0.7495,0.1896595634287921,-0.7995,0.10305702305034825" />
        <polyline
           id="polyline199"
           class="index-2"
           style="stroke-width:0.0025;stroke-linecap:round;stroke-linejoin:bevel"
           stroke="#fd4b48"
           fill="#fd4b48"
           points="-0.6495000000000001,0.1896595634287921,-0.6995,0.10305702305034825,-0.7995,0.10305702305034825,-0.7495,0.1896595634287921,-0.6495000000000001,0.1896595634287921" />
        <polyline
           id="polyline201"
           class="index-3"
           style="stroke-width:0.0025;stroke-linecap:round;stroke-linejoin:bevel"
           stroke="#f84645"
           fill="#f84645"
           points="-0.7995000000000001,0.2762621038072359,-0.6995,0.2762621038072359,-0.6495000000000001,0.1896595634287921,-0.7495,0.1896595634287921,-0.7995000000000001,0.2762621038072359" />
      </g>
      <g
         id="g213"
         class="mini-cube-5">
        <polyline
           id="polyline205"
           class="index-0"
           style="stroke-width:0.0025;stroke-linecap:round;stroke-linejoin:bevel"
           stroke="#f44242"
           fill="#f44242"
           points="-0.6545000000000001,0.01991858428704213,-0.5545,0.01991858428704213,-0.5045,-0.06668395609140176,-0.5545,-0.15328649646984557,-0.6545,-0.15328649646984557,-0.7045,-0.06668395609140168,-0.6545000000000001,0.01991858428704213" />
        <polyline
           id="polyline207"
           class="index-1"
           style="stroke-width:0.0025;stroke-linecap:round;stroke-linejoin:bevel"
           stroke="#f24040"
           fill="#f24040"
           points="-0.6545,-0.15328649646984557,-0.7045,-0.06668395609140168,-0.6545000000000001,0.01991858428704213,-0.6045,-0.06668395609140176,-0.6545,-0.15328649646984557" />
        <polyline
           id="polyline209"
           class="index-2"
           style="stroke-width:0.0025;stroke-linecap:round;stroke-linejoin:bevel"
           stroke="#fd4b48"
           fill="#fd4b48"
           points="-0.5045,-0.06668395609140176,-0.5545,-0.15328649646984557,-0.6545,-0.15328649646984557,-0.6045,-0.06668395609140176,-0.5045,-0.06668395609140176" />
        <polyline
           id="polyline211"
           class="index-3"
           style="stroke-width:0.0025;stroke-linecap:round;stroke-linejoin:bevel"
           stroke="#f84645"
           fill="#f84645"
           points="-0.6545000000000001,0.01991858428704213,-0.5545,0.01991858428704213,-0.5045,-0.06668395609140176,-0.6045,-0.06668395609140176,-0.6545000000000001,0.01991858428704213" />
      </g>
      <g
         id="g223"
         class="mini-cube-6">
        <polyline
           id="polyline215"
           class="index-0"
           style="stroke-width:0.0025;stroke-linecap:round;stroke-linejoin:bevel"
           stroke="#f44242"
           fill="#f44242"
           points="-0.5155,-0.22430057958016952,-0.41550000000000004,-0.22430057958016952,-0.36550000000000005,-0.31090311995861336,-0.4155,-0.39750566033705714,-0.5155000000000001,-0.39750566033705714,-0.5655,-0.3109031199586133,-0.5155,-0.22430057958016952" />
        <polyline
           id="polyline217"
           class="index-1"
           style="stroke-width:0.0025;stroke-linecap:round;stroke-linejoin:bevel"
           stroke="#f24040"
           fill="#f24040"
           points="-0.5155000000000001,-0.39750566033705714,-0.5655,-0.3109031199586133,-0.5155,-0.22430057958016952,-0.4655,-0.31090311995861336,-0.5155000000000001,-0.39750566033705714" />
        <polyline
           id="polyline219"
           class="index-2"
           style="stroke-width:0.0025;stroke-linecap:round;stroke-linejoin:bevel"
           stroke="#fd4b48"
           fill="#fd4b48"
           points="-0.36550000000000005,-0.31090311995861336,-0.4155,-0.39750566033705714,-0.5155000000000001,-0.39750566033705714,-0.4655,-0.31090311995861336,-0.36550000000000005,-0.31090311995861336" />
        <polyline
           id="polyline221"
           class="index-3"
           style="stroke-width:0.0025;stroke-linecap:round;stroke-linejoin:bevel"
           stroke="#f84645"
           fill="#f84645"
           points="-0.5155,-0.22430057958016952,-0.41550000000000004,-0.22430057958016952,-0.36550000000000005,-0.31090311995861336,-0.4655,-0.31090311995861336,-0.5155,-0.22430057958016952" />
      </g>
      <g
         id="g233"
         class="mini-cube-7">
        <polyline
           id="polyline225"
           class="index-0"
           style="stroke-width:0.0025;stroke-linecap:round;stroke-linejoin:bevel"
           stroke="#f44242"
           fill="#f44242"
           points="-0.2545,-0.685026094393491,-0.15450000000000003,-0.685026094393491,-0.10450000000000004,-0.7716286347719349,-0.15450000000000008,-0.8582311751503788,-0.25450000000000006,-0.8582311751503788,-0.30450000000000005,-0.771628634771935,-0.2545,-0.685026094393491" />
        <polyline
           id="polyline227"
           class="index-1"
           style="stroke-width:0.0025;stroke-linecap:round;stroke-linejoin:bevel"
           stroke="#f24040"
           fill="#f24040"
           points="-0.25450000000000006,-0.8582311751503788,-0.30450000000000005,-0.771628634771935,-0.2545,-0.685026094393491,-0.20450000000000002,-0.7716286347719349,-0.25450000000000006,-0.8582311751503788" />
        <polyline
           id="polyline229"
           class="index-2"
           style="stroke-width:0.0025;stroke-linecap:round;stroke-linejoin:bevel"
           stroke="#fd4b48"
           fill="#fd4b48"
           points="-0.10450000000000004,-0.7716286347719349,-0.15450000000000008,-0.8582311751503788,-0.25450000000000006,-0.8582311751503788,-0.20450000000000002,-0.7716286347719349,-0.10450000000000004,-0.7716286347719349" />
        <polyline
           id="polyline231"
           class="index-3"
           style="stroke-width:0.0025;stroke-linecap:round;stroke-linejoin:bevel"
           stroke="#f84645"
           fill="#f84645"
           points="-0.2545,-0.685026094393491,-0.15450000000000003,-0.685026094393491,-0.10450000000000004,-0.7716286347719349,-0.20450000000000002,-0.7716286347719349,-0.2545,-0.685026094393491" />
      </g>
      <g
         id="g243"
         class="mini-cube-8">
        <polyline
           id="polyline235"
           class="index-0"
           style="stroke-width:0.0025;stroke-linecap:round;stroke-linejoin:bevel"
           stroke="#f44242"
           fill="#f44242"
           points="-0.37999999999999995,-0.45899346400575247,-0.27999999999999997,-0.45899346400575247,-0.22999999999999998,-0.5455960043841964,-0.28,-0.6321985447626403,-0.38,-0.6321985447626403,-0.43,-0.5455960043841963,-0.37999999999999995,-0.45899346400575247" />
        <polyline
           id="polyline237"
           class="index-1"
           style="stroke-width:0.0025;stroke-linecap:round;stroke-linejoin:bevel"
           stroke="#f24040"
           fill="#f24040"
           points="-0.38,-0.6321985447626403,-0.43,-0.5455960043841963,-0.37999999999999995,-0.45899346400575247,-0.32999999999999996,-0.5455960043841964,-0.38,-0.6321985447626403" />
        <polyline
           id="polyline239"
           class="index-2"
           style="stroke-width:0.0025;stroke-linecap:round;stroke-linejoin:bevel"
           stroke="#fd4b48"
           fill="#fd4b48"
           points="-0.22999999999999998,-0.5455960043841964,-0.28,-0.6321985447626403,-0.38,-0.6321985447626403,-0.32999999999999996,-0.5455960043841964,-0.22999999999999998,-0.5455960043841964" />
        <polyline
           id="polyline241"
           class="index-3"
           style="stroke-width:0.0025;stroke-linecap:round;stroke-linejoin:bevel"
           stroke="#f84645"
           fill="#f84645"
           points="-0.37999999999999995,-0.45899346400575247,-0.27999999999999997,-0.45899346400575247,-0.22999999999999998,-0.5455960043841964,-0.32999999999999996,-0.5455960043841964,-0.37999999999999995,-0.45899346400575247" />
      </g>
      <g
         id="g263"
         class="big_cube">
        <polyline
           id="polyline245"
           class="index-0"
           style="stroke-width:0.0025;stroke-linecap:round;stroke-linejoin:bevel"
           stroke="#fd4b48"
           fill="#fd4b48"
           points="-0.3214285714285714,-0.06185895741317424,-0.3928571428571428,-0.1855768722395226,0.10714285714285718,-0.1855768722395226,0.1785714285714286,-0.06185895741317424,-0.3214285714285714,-0.06185895741317424" />
        <polyline
           id="polyline247"
           class="index-1"
           style="stroke-width:0.0025;stroke-linecap:round;stroke-linejoin:bevel"
           stroke="#fd4b48"
           fill="#fd4b48"
           points="-0.4642857142857143,0.18557687223952257,-0.5357142857142857,0.061858957413174216,-0.03571428571428573,0.061858957413174216,0.035714285714285705,0.18557687223952257,-0.4642857142857143,0.18557687223952257" />
        <polyline
           id="polyline249"
           class="index-2"
           style="stroke-width:0.0025;stroke-linecap:round;stroke-linejoin:bevel"
           stroke="#fd4b48"
           fill="#fd4b48"
           points="-0.6071428571428572,0.43301270189221935,-0.6785714285714286,0.309294787065871,-0.1785714285714286,0.309294787065871,-0.10714285714285716,0.43301270189221935,-0.6071428571428572,0.43301270189221935" />
        <polyline
           id="polyline251"
           class="index-3"
           style="stroke-width:0.0025;stroke-linecap:round;stroke-linejoin:bevel"
           stroke="#f24040"
           fill="#f24040"
           points="0,-0.8660254037844386,0.12500000000000003,-0.649519052838329,0.06250000000000003,-0.5412658773652741,-0.0625,-0.7577722283113838,0,-0.8660254037844386" />
        <polyline
           id="polyline253"
           class="index-4"
           style="stroke-width:0.0025;stroke-linecap:round;stroke-linejoin:bevel"
           stroke="#f24040"
           fill="#f24040"
           points="-0.12499999999999994,-0.649519052838329,5.551115123125783e-17,-0.43301270189221935,-0.062499999999999944,-0.3247595264191645,-0.18749999999999994,-0.5412658773652741,-0.12499999999999994,-0.649519052838329" />
        <polyline
           id="polyline255"
           class="index-5"
           style="stroke-width:0.0025;stroke-linecap:round;stroke-linejoin:bevel"
           stroke="#f44242"
           fill="#f44242"
           points="-0.5,0.8660254037844386,0.49999999999999994,0.8660254037844386,1,-5.551115123125783e-17,0.5,-0.8660254037844386,0,-0.8660254037844386,0.12500000000000003,-0.649519052838329,-0.12499999999999994,-0.649519052838329,5.551115123125783e-17,-0.43301270189221935,-0.24999999999999994,-0.43301270189221935,-0.3214285714285714,-0.30929478706587094,-0.24999999999999997,-0.18557687223952257,-0.3214285714285714,-0.06185895741317424,-0.3928571428571428,-0.1855768722395226,-0.4642857142857143,-0.06185895741317417,-0.39285714285714285,0.061858957413174195,-0.4642857142857143,0.18557687223952257,-0.5357142857142857,0.061858957413174216,-0.6071428571428572,0.1855768722395226,-0.5357142857142857,0.309294787065871,-0.6071428571428572,0.43301270189221935,-0.6785714285714286,0.309294787065871,-0.75,0.43301270189221935,-0.5,0.8660254037844386" />
        <polyline
           id="polyline257"
           class="index-6"
           style="stroke-width:0.0025;stroke-linecap:round;stroke-linejoin:bevel"
           stroke="#f24040"
           fill="#f24040"
           points="-0.24999999999999994,-0.43301270189221935,-0.3214285714285714,-0.30929478706587094,-0.24999999999999997,-0.18557687223952257,-0.3214285714285714,-0.06185895741317424,-0.3928571428571428,-0.1855768722395226,-0.4642857142857143,-0.06185895741317417,-0.39285714285714285,0.061858957413174195,-0.4642857142857143,0.18557687223952257,-0.5357142857142857,0.061858957413174216,-0.6071428571428572,0.1855768722395226,-0.5357142857142857,0.309294787065871,-0.6071428571428572,0.43301270189221935,-0.6785714285714286,0.309294787065871,-0.75,0.43301270189221935,-0.5,0.8660254037844386,1.1102230246251565e-16,-5.551115123125783e-17,-0.24999999999999994,-0.43301270189221935" />
        <polyline
           id="polyline259"
           class="index-7"
           style="stroke-width:0.0025;stroke-linecap:round;stroke-linejoin:bevel"
           stroke="#fd4b48"
           fill="#fd4b48"
           points="1,-5.551115123125783e-17,0.5,-0.8660254037844386,0,-0.8660254037844386,0.12500000000000003,-0.649519052838329,-0.12499999999999994,-0.649519052838329,5.551115123125783e-17,-0.43301270189221935,-0.24999999999999994,-0.43301270189221935,1.1102230246251565e-16,-5.551115123125783e-17,1,-5.551115123125783e-17" />
        <polyline
           id="polyline261"
           class="index-8"
           style="stroke-width:0.0025;stroke-linecap:round;stroke-linejoin:bevel"
           stroke="#f84645"
           fill="#f84645"
           points="-0.5,0.8660254037844386,0.49999999999999994,0.8660254037844386,1,-5.551115123125783e-17,1.1102230246251565e-16,-5.551115123125783e-17,-0.5,0.8660254037844386" />
      </g>
    </g>
    <g
       id="g287"
       fill="#333333">
      <path
         id="path267"
         d="m 1.7629,0.37 h 0.1056 v -0.67980001 h 0.2508 v -0.099 H 1.5121 v 0.099 h 0.2508 z" />
      <path
         id="path269"
         d="M 3.0767797,0.1456 V 0.1104 c 0,-0.1342 -0.0704,-0.27500001 -0.2541,-0.27500001 -0.1562,0 -0.2695,0.11770001 -0.2695,0.27390001 0,0.1551 0.1034,0.27390001 0.2684,0.27390001 0.1001,0 0.176,-0.0352 0.231,-0.10670001 l -0.0748,-0.0572 c -0.0385,0.0473 -0.0825,0.0781 -0.143,0.0781 -0.0913,0 -0.176,-0.0605 -0.176,-0.1518 z m -0.418,-0.0792 c 0,-0.0693 0.0638,-0.15180001 0.1617,-0.15180001 0.1001,0 0.1485,0.06490001 0.1507,0.15180001 z" />
      <path
         id="path271"
         d="m 4.1439843,-0.08100001 c -0.0517,-0.0561 -0.1243,-0.0825 -0.2002,-0.0825 -0.1628,0 -0.2728,0.11440001 -0.2728,0.27500001 0,0.1606 0.1122,0.27170001 0.2728,0.27170001 0.0759,0 0.1463,-0.0231 0.198,-0.0803 l -0.0704,-0.0704 c -0.033,0.0385 -0.0715,0.0583 -0.1265,0.0583 -0.1023,0 -0.1683,-0.0792 -0.1683,-0.1771 0,-0.0979 0.055,-0.1848 0.1628,-0.1848 0.055,0 0.0935,0.0198 0.1298,0.0583 z" />
      <path
         id="path273"
         d="m 4.7269485,0.37 h 0.099 V 0.1016 c 0,-0.121 0.0627,-0.1738 0.1452,-0.1738 0.0627,0 0.1188,0.0363 0.1188,0.1342 V 0.37 h 0.099 V 0.0345 c 0,-0.13860001 -0.088,-0.19910001 -0.1892,-0.19910001 -0.0803,0 -0.1463,0.0385 -0.1716,0.09350001 h -0.0022 v -0.39050001 h -0.099 z" />
      <path
         id="path275"
         d="m 5.8392529,0.37 h 0.099 V 0.1016 c 0,-0.121 0.0627,-0.1738 0.1452,-0.1738 0.0627,0 0.1188,0.0363 0.1188,0.1342 V 0.37 h 0.099 V 0.0345 c 0,-0.13860001 -0.088,-0.19910001 -0.1892,-0.19910001 -0.0803,0 -0.1463,0.0385 -0.1716,0.09350001 h -0.0022 v -0.08030001 h -0.099 z" />
      <path
         id="path277"
         d="m 7.0318576,0.1093 c 0,-0.1056 0.066,-0.1815 0.1716,-0.1815 0.1056,0 0.1716,0.0759 0.1716,0.1815 0,0.1056 -0.066,0.1815 -0.1716,0.1815 -0.1056,0 -0.1716,-0.0759 -0.1716,-0.1815 z m -0.1056,0 c 0,0.1518 0.1221,0.27390001 0.2772,0.27390001 0.1551,0 0.2772,-0.12210001 0.2772,-0.27390001 0,-0.1518 -0.1221,-0.27390001 -0.2772,-0.27390001 -0.1551,0 -0.2772,0.12210001 -0.2772,0.27390001 z" />
      <path
         id="path279"
         d="m 8.1046829,0.37 h 0.099 V 0.0994 l 0.242,0.2706 h 0.1408 l -0.264,-0.2838 0.2431,-0.23650001 h -0.1375 L 8.2036829,0.0752 v -0.53680001 h -0.099 z" />
      <path
         id="path281"
         d="m 9.176167,0.37 h 0.099 V 0.1082 c 0,-0.1144 0.0528,-0.1672 0.1496,-0.1672 0.0154,0 0.0319,0.0033 0.0484,0.0077 l 0.0044,-0.10670001 c -0.0132,-0.0044 -0.0286,-0.0066 -0.044,-0.0066 -0.0649,0 -0.1309,0.0385 -0.1562,0.09350001 h -0.0022 v -0.08030001 h -0.099 z" />
      <path
         id="path283"
         d="m 10.143821,-0.026 c 0.0363,-0.0275 0.0726,-0.05940001 0.1485,-0.05940001 0.0847,0 0.124301,0.05610001 0.124301,0.11000001 v 0.022 h -0.0726 c -0.158401,0 -0.287101,0.0462 -0.287101,0.1804 0,0.1012 0.0836,0.15620001 0.1804,0.15620001 0.0792,0 0.138601,-0.0253 0.182601,-0.0924 h 0.0022 c 0,0.0264 0.0011,0.0528 0.0033,0.0792 h 0.088 c -0.0033,-0.0275 -0.0044,-0.0583 -0.0044,-0.0946 v -0.2662 C 10.509022,-0.081 10.445222,-0.1646 10.291221,-0.1646 c -0.0726,0 -0.1518,0.0253 -0.2068,0.077 z m 0.272801,0.1452 v 0.033 c 0,0.0704 -0.0385,0.1518 -0.148501,0.1518 -0.0682,0 -0.1122,-0.0253 -0.1122,-0.0847 0,-0.0836 0.1144,-0.1001 0.207901,-0.1001 z" />
      <path
         id="path285"
         d="m 11.433106,-0.15140001 h -0.1419 v -0.1463 h -0.099 v 0.1463 h -0.1144 V -0.0656 h 0.1144 v 0.2717 c 0,0.0836 0.0022,0.17710001 0.1551,0.17710001 0.0198,0 0.066,-0.0044 0.0891,-0.0176 v -0.0902 c -0.0198,0.0121 -0.0473,0.0154 -0.0704,0.0154 -0.0748,0 -0.0748,-0.0616 -0.0748,-0.1199 v -0.2365 h 0.1419 z" />
    </g>
  </g>
</svg>
